<mxfile host="app.diagrams.net" modified="2024-06-17T10:58:59.219Z" agent="Mozilla/5.0 (Windows NT 10.0; Win64; x64) AppleWebKit/537.36 (KHTML, like Gecko) Chrome/121.0.0.0 Safari/537.36" etag="aSXlzico5o_-L_zvZey2" version="24.5.4" type="device">
  <diagram name="Página-1" id="LgeUJABe8sgun6ls6cQh">
    <mxGraphModel dx="33880" dy="16440" grid="1" gridSize="10" guides="1" tooltips="1" connect="1" arrows="1" fold="1" page="0" pageScale="1" pageWidth="827" pageHeight="1169" math="0" shadow="0">
      <root>
        <mxCell id="0" />
        <mxCell id="1" parent="0" />
        <mxCell id="4i19fgPVKcpp5kQsuQ33-1" value="&#xa;&lt;span style=&quot;color: rgb(0, 0, 0); font-family: Helvetica; font-size: 12px; font-style: normal; font-variant-ligatures: normal; font-variant-caps: normal; font-weight: 400; letter-spacing: normal; orphans: 2; text-align: center; text-indent: 0px; text-transform: none; widows: 2; word-spacing: 0px; -webkit-text-stroke-width: 0px; white-space: normal; background-color: rgb(255, 255, 255); text-decoration-thickness: initial; text-decoration-style: initial; text-decoration-color: initial; display: inline !important; float: none;&quot;&gt;Corte de Tecido&lt;/span&gt;&#xa;&#xa;" style="rounded=0;whiteSpace=wrap;html=1;fillColor=#ffe6cc;strokeColor=#d79b00;" parent="1" vertex="1">
          <mxGeometry x="-3120" y="-440" width="5080" height="6920" as="geometry" />
        </mxCell>
        <mxCell id="hFd_SY-1JBbWM3t-39ka-145" value="&lt;span style=&quot;color: rgba(0, 0, 0, 0); font-family: monospace; font-size: 0px; text-align: start; text-wrap: nowrap;&quot;&gt;%3CmxGraphModel%3E%3Croot%3E%3CmxCell%20id%3D%220%22%2F%3E%3CmxCell%20id%3D%221%22%20parent%3D%220%22%2F%3E%3CmxCell%20id%3D%222%22%20value%3D%22%22%20style%3D%22edgeStyle%3DorthogonalEdgeStyle%3Brounded%3D0%3BorthogonalLoop%3D1%3BjettySize%3Dauto%3Bhtml%3D1%3B%22%20edge%3D%221%22%20source%3D%223%22%20target%3D%225%22%20parent%3D%221%22%3E%3CmxGeometry%20relative%3D%221%22%20as%3D%22geometry%22%2F%3E%3C%2FmxCell%3E%3CmxCell%20id%3D%223%22%20value%3D%22IN%C3%8DCIO%22%20style%3D%22ellipse%3BwhiteSpace%3Dwrap%3Bhtml%3D1%3B%22%20vertex%3D%221%22%20parent%3D%221%22%3E%3CmxGeometry%20x%3D%22790%22%20y%3D%22-120%22%20width%3D%22120%22%20height%3D%2280%22%20as%3D%22geometry%22%2F%3E%3C%2FmxCell%3E%3CmxCell%20id%3D%224%22%20value%3D%22%22%20style%3D%22edgeStyle%3DorthogonalEdgeStyle%3Brounded%3D0%3BorthogonalLoop%3D1%3BjettySize%3Dauto%3Bhtml%3D1%3B%22%20edge%3D%221%22%20source%3D%225%22%20target%3D%228%22%20parent%3D%221%22%3E%3CmxGeometry%20relative%3D%221%22%20as%3D%22geometry%22%2F%3E%3C%2FmxCell%3E%3CmxCell%20id%3D%225%22%20value%3D%22Adicionar%20material%20no%20estoque%22%20style%3D%22rounded%3D1%3BwhiteSpace%3Dwrap%3Bhtml%3D1%3B%22%20vertex%3D%221%22%20parent%3D%221%22%3E%3CmxGeometry%20x%3D%22790%22%20y%3D%2250%22%20width%3D%22120%22%20height%3D%2260%22%20as%3D%22geometry%22%2F%3E%3C%2FmxCell%3E%3CmxCell%20id%3D%226%22%20value%3D%22sim%22%20style%3D%22edgeStyle%3DorthogonalEdgeStyle%3Brounded%3D0%3BorthogonalLoop%3D1%3BjettySize%3Dauto%3Bhtml%3D1%3B%22%20edge%3D%221%22%20source%3D%228%22%20target%3D%229%22%20parent%3D%221%22%3E%3CmxGeometry%20relative%3D%221%22%20as%3D%22geometry%22%2F%3E%3C%2FmxCell%3E%3CmxCell%20id%3D%227%22%20value%3D%22n%C3%A3o%22%20style%3D%22edgeStyle%3DorthogonalEdgeStyle%3Brounded%3D0%3BorthogonalLoop%3D1%3BjettySize%3Dauto%3Bhtml%3D1%3B%22%20edge%3D%221%22%20source%3D%228%22%20target%3D%2211%22%20parent%3D%221%22%3E%3CmxGeometry%20relative%3D%221%22%20as%3D%22geometry%22%2F%3E%3C%2FmxCell%3E%3CmxCell%20id%3D%228%22%20value%3D%22Material%20suficiente%3F%22%20style%3D%22rhombus%3BwhiteSpace%3Dwrap%3Bhtml%3D1%3B%22%20vertex%3D%221%22%20parent%3D%221%22%3E%3CmxGeometry%20x%3D%22810%22%20y%3D%22200%22%20width%3D%2280%22%20height%3D%2280%22%20as%3D%22geometry%22%2F%3E%3C%2FmxCell%3E%3CmxCell%20id%3D%229%22%20value%3D%22FIM%22%20style%3D%22ellipse%3BwhiteSpace%3Dwrap%3Bhtml%3D1%3B%22%20vertex%3D%221%22%20parent%3D%221%22%3E%3CmxGeometry%20x%3D%22790%22%20y%3D%22370%22%20width%3D%22120%22%20height%3D%2280%22%20as%3D%22geometry%22%2F%3E%3C%2FmxCell%3E%3CmxCell%20id%3D%2210%22%20style%3D%22edgeStyle%3DorthogonalEdgeStyle%3Brounded%3D0%3BorthogonalLoop%3D1%3BjettySize%3Dauto%3Bhtml%3D1%3BexitX%3D0.5%3BexitY%3D1%3BexitDx%3D0%3BexitDy%3D0%3BentryX%3D1%3BentryY%3D0.5%3BentryDx%3D0%3BentryDy%3D0%3B%22%20edge%3D%221%22%20source%3D%2211%22%20target%3D%229%22%20parent%3D%221%22%3E%3CmxGeometry%20relative%3D%221%22%20as%3D%22geometry%22%2F%3E%3C%2FmxCell%3E%3CmxCell%20id%3D%2211%22%20value%3D%22retornar%20ao%20sistema%20de%20compras%22%20style%3D%22rounded%3D1%3BwhiteSpace%3Dwrap%3Bhtml%3D1%3B%22%20vertex%3D%221%22%20parent%3D%221%22%3E%3CmxGeometry%20x%3D%22950%22%20y%3D%22210%22%20width%3D%22120%22%20height%3D%2260%22%20as%3D%22geometry%22%2F%3E%3C%2FmxCell%3E%3C%2Froot%3E%3C%2FmxGraphModel%3E&lt;/span&gt;" style="rounded=0;whiteSpace=wrap;html=1;" parent="1" vertex="1">
          <mxGeometry x="-1040" y="1560" width="920" height="1560" as="geometry" />
        </mxCell>
        <mxCell id="hFd_SY-1JBbWM3t-39ka-133" value="" style="rounded=0;whiteSpace=wrap;html=1;" parent="1" vertex="1">
          <mxGeometry x="-3040" y="1560" width="920" height="1560" as="geometry" />
        </mxCell>
        <mxCell id="QQEnkS8oLGYEb6HzyKzU-84" value="" style="rounded=0;whiteSpace=wrap;html=1;" parent="1" vertex="1">
          <mxGeometry x="-2040" y="-77.5" width="920" height="1560" as="geometry" />
        </mxCell>
        <mxCell id="QQEnkS8oLGYEb6HzyKzU-3" value="" style="rounded=0;whiteSpace=wrap;html=1;" parent="1" vertex="1">
          <mxGeometry x="-4900" y="-140" width="920" height="2630" as="geometry" />
        </mxCell>
        <mxCell id="QQEnkS8oLGYEb6HzyKzU-7" value="" style="rounded=0;whiteSpace=wrap;html=1;fillColor=#dae8fc;strokeColor=#6c8ebf;" parent="1" vertex="1">
          <mxGeometry x="-4900" y="-140" width="920" height="120" as="geometry" />
        </mxCell>
        <mxCell id="QQEnkS8oLGYEb6HzyKzU-1" value="" style="rounded=0;whiteSpace=wrap;html=1;" parent="1" vertex="1">
          <mxGeometry x="-1040" y="-77.5" width="920" height="1560" as="geometry" />
        </mxCell>
        <mxCell id="4b1C1h9-l_e4xWgccLD7-125" value="" style="rounded=0;whiteSpace=wrap;html=1;" parent="1" vertex="1">
          <mxGeometry x="-40" y="-77.5" width="920" height="1560" as="geometry" />
        </mxCell>
        <mxCell id="4b1C1h9-l_e4xWgccLD7-7" style="edgeStyle=orthogonalEdgeStyle;rounded=1;orthogonalLoop=1;jettySize=auto;html=1;exitX=0.5;exitY=1;exitDx=0;exitDy=0;" parent="1" source="4b1C1h9-l_e4xWgccLD7-1" target="4b1C1h9-l_e4xWgccLD7-2" edge="1">
          <mxGeometry relative="1" as="geometry" />
        </mxCell>
        <mxCell id="4b1C1h9-l_e4xWgccLD7-1" value="&lt;span&gt;INÍCIO&lt;/span&gt;" style="ellipse;whiteSpace=wrap;html=1;fillColor=#f8cecc;strokeColor=#b85450;rounded=1;fontStyle=0;" parent="1" vertex="1">
          <mxGeometry x="340" y="40" width="130" height="80" as="geometry" />
        </mxCell>
        <mxCell id="4b1C1h9-l_e4xWgccLD7-8" style="edgeStyle=orthogonalEdgeStyle;rounded=1;orthogonalLoop=1;jettySize=auto;html=1;exitX=0.5;exitY=1;exitDx=0;exitDy=0;entryX=0.5;entryY=0;entryDx=0;entryDy=0;" parent="1" source="4b1C1h9-l_e4xWgccLD7-2" target="4b1C1h9-l_e4xWgccLD7-5" edge="1">
          <mxGeometry relative="1" as="geometry" />
        </mxCell>
        <mxCell id="4b1C1h9-l_e4xWgccLD7-2" value="Abrir APP" style="rounded=1;whiteSpace=wrap;html=1;fillColor=#dae8fc;strokeColor=#6c8ebf;" parent="1" vertex="1">
          <mxGeometry x="345" y="140" width="120" height="60" as="geometry" />
        </mxCell>
        <mxCell id="4b1C1h9-l_e4xWgccLD7-5" value="Usuário" style="rounded=1;whiteSpace=wrap;html=1;fillColor=#dae8fc;strokeColor=#6c8ebf;" parent="1" vertex="1">
          <mxGeometry x="345" y="220" width="120" height="60" as="geometry" />
        </mxCell>
        <mxCell id="4b1C1h9-l_e4xWgccLD7-11" style="edgeStyle=orthogonalEdgeStyle;rounded=1;orthogonalLoop=1;jettySize=auto;html=1;exitX=0.5;exitY=1;exitDx=0;exitDy=0;entryX=0.5;entryY=0;entryDx=0;entryDy=0;" parent="1" source="4b1C1h9-l_e4xWgccLD7-6" target="4b1C1h9-l_e4xWgccLD7-10" edge="1">
          <mxGeometry relative="1" as="geometry" />
        </mxCell>
        <mxCell id="4b1C1h9-l_e4xWgccLD7-6" value="Cadastrar" style="rounded=1;whiteSpace=wrap;html=1;fillColor=#dae8fc;strokeColor=#6c8ebf;" parent="1" vertex="1">
          <mxGeometry x="550" y="300" width="120" height="60" as="geometry" />
        </mxCell>
        <mxCell id="lxdEsuAKqhO_L1pSiuFA-752" style="edgeStyle=orthogonalEdgeStyle;rounded=0;orthogonalLoop=1;jettySize=auto;html=1;exitX=0;exitY=0.5;exitDx=0;exitDy=0;entryX=0.5;entryY=0;entryDx=0;entryDy=0;" parent="1" source="4b1C1h9-l_e4xWgccLD7-10" target="lxdEsuAKqhO_L1pSiuFA-749" edge="1">
          <mxGeometry relative="1" as="geometry" />
        </mxCell>
        <mxCell id="4b1C1h9-l_e4xWgccLD7-10" value="Inserir nome" style="rounded=1;whiteSpace=wrap;html=1;fillColor=#dae8fc;strokeColor=#6c8ebf;" parent="1" vertex="1">
          <mxGeometry x="550" y="380" width="120" height="60" as="geometry" />
        </mxCell>
        <mxCell id="lxdEsuAKqhO_L1pSiuFA-757" style="edgeStyle=orthogonalEdgeStyle;rounded=0;orthogonalLoop=1;jettySize=auto;html=1;exitX=0;exitY=0.5;exitDx=0;exitDy=0;entryX=0.5;entryY=0;entryDx=0;entryDy=0;" parent="1" source="4b1C1h9-l_e4xWgccLD7-12" target="lxdEsuAKqhO_L1pSiuFA-755" edge="1">
          <mxGeometry relative="1" as="geometry" />
        </mxCell>
        <mxCell id="4b1C1h9-l_e4xWgccLD7-12" value="Inserir EMAIL" style="rounded=1;whiteSpace=wrap;html=1;fillColor=#dae8fc;strokeColor=#6c8ebf;" parent="1" vertex="1">
          <mxGeometry x="550" y="580" width="120" height="60" as="geometry" />
        </mxCell>
        <mxCell id="4b1C1h9-l_e4xWgccLD7-17" style="edgeStyle=orthogonalEdgeStyle;rounded=1;orthogonalLoop=1;jettySize=auto;html=1;exitX=0.5;exitY=1;exitDx=0;exitDy=0;entryX=0.5;entryY=0;entryDx=0;entryDy=0;" parent="1" source="4b1C1h9-l_e4xWgccLD7-13" target="4b1C1h9-l_e4xWgccLD7-12" edge="1">
          <mxGeometry relative="1" as="geometry" />
        </mxCell>
        <mxCell id="4b1C1h9-l_e4xWgccLD7-18" value="NÃO" style="edgeLabel;html=1;align=center;verticalAlign=middle;resizable=0;points=[];rounded=1;" parent="4b1C1h9-l_e4xWgccLD7-17" vertex="1" connectable="0">
          <mxGeometry x="-0.1333" y="-1" relative="1" as="geometry">
            <mxPoint x="1" y="-3" as="offset" />
          </mxGeometry>
        </mxCell>
        <mxCell id="4b1C1h9-l_e4xWgccLD7-38" style="edgeStyle=orthogonalEdgeStyle;rounded=1;orthogonalLoop=1;jettySize=auto;html=1;exitX=1;exitY=0.5;exitDx=0;exitDy=0;" parent="1" source="4b1C1h9-l_e4xWgccLD7-13" target="4b1C1h9-l_e4xWgccLD7-37" edge="1">
          <mxGeometry relative="1" as="geometry" />
        </mxCell>
        <mxCell id="4b1C1h9-l_e4xWgccLD7-39" value="SIM" style="edgeLabel;html=1;align=center;verticalAlign=middle;resizable=0;points=[];rounded=1;" parent="4b1C1h9-l_e4xWgccLD7-38" vertex="1" connectable="0">
          <mxGeometry x="-0.0154" y="1" relative="1" as="geometry">
            <mxPoint x="-7" y="1" as="offset" />
          </mxGeometry>
        </mxCell>
        <mxCell id="4b1C1h9-l_e4xWgccLD7-13" value="Campo&lt;div&gt;vazio?&lt;/div&gt;" style="rhombus;whiteSpace=wrap;html=1;rounded=0;fillColor=#d5e8d4;strokeColor=#82b366;" parent="1" vertex="1">
          <mxGeometry x="570" y="470" width="80" height="80" as="geometry" />
        </mxCell>
        <mxCell id="4b1C1h9-l_e4xWgccLD7-33" style="edgeStyle=orthogonalEdgeStyle;rounded=1;orthogonalLoop=1;jettySize=auto;html=1;exitX=1;exitY=0.5;exitDx=0;exitDy=0;entryX=0;entryY=0.5;entryDx=0;entryDy=0;" parent="1" source="4b1C1h9-l_e4xWgccLD7-19" target="4b1C1h9-l_e4xWgccLD7-32" edge="1">
          <mxGeometry relative="1" as="geometry" />
        </mxCell>
        <mxCell id="4b1C1h9-l_e4xWgccLD7-35" value="SIM" style="edgeLabel;html=1;align=center;verticalAlign=middle;resizable=0;points=[];rounded=1;" parent="4b1C1h9-l_e4xWgccLD7-33" vertex="1" connectable="0">
          <mxGeometry x="-0.2165" y="1" relative="1" as="geometry">
            <mxPoint x="-1" y="1" as="offset" />
          </mxGeometry>
        </mxCell>
        <mxCell id="4b1C1h9-l_e4xWgccLD7-42" style="edgeStyle=orthogonalEdgeStyle;rounded=1;orthogonalLoop=1;jettySize=auto;html=1;exitX=0.5;exitY=1;exitDx=0;exitDy=0;entryX=0.5;entryY=0;entryDx=0;entryDy=0;" parent="1" source="4b1C1h9-l_e4xWgccLD7-19" target="4b1C1h9-l_e4xWgccLD7-23" edge="1">
          <mxGeometry relative="1" as="geometry" />
        </mxCell>
        <mxCell id="4b1C1h9-l_e4xWgccLD7-43" value="NÃO" style="edgeLabel;html=1;align=center;verticalAlign=middle;resizable=0;points=[];rounded=1;" parent="4b1C1h9-l_e4xWgccLD7-42" vertex="1" connectable="0">
          <mxGeometry x="-0.4358" relative="1" as="geometry">
            <mxPoint y="2" as="offset" />
          </mxGeometry>
        </mxCell>
        <mxCell id="4b1C1h9-l_e4xWgccLD7-19" value="Campo&lt;div&gt;&amp;nbsp;vazio?&lt;/div&gt;" style="rhombus;whiteSpace=wrap;html=1;rounded=0;fillColor=#d5e8d4;strokeColor=#82b366;" parent="1" vertex="1">
          <mxGeometry x="570" y="670" width="80" height="80" as="geometry" />
        </mxCell>
        <mxCell id="lxdEsuAKqhO_L1pSiuFA-766" style="edgeStyle=orthogonalEdgeStyle;rounded=0;orthogonalLoop=1;jettySize=auto;html=1;exitX=0;exitY=0.5;exitDx=0;exitDy=0;entryX=0.5;entryY=0;entryDx=0;entryDy=0;" parent="1" source="4b1C1h9-l_e4xWgccLD7-23" target="lxdEsuAKqhO_L1pSiuFA-765" edge="1">
          <mxGeometry relative="1" as="geometry" />
        </mxCell>
        <mxCell id="4b1C1h9-l_e4xWgccLD7-23" value="Inserir SENHA" style="rounded=1;whiteSpace=wrap;html=1;fillColor=#dae8fc;strokeColor=#6c8ebf;" parent="1" vertex="1">
          <mxGeometry x="550" y="780" width="120" height="60" as="geometry" />
        </mxCell>
        <mxCell id="4b1C1h9-l_e4xWgccLD7-29" style="edgeStyle=orthogonalEdgeStyle;rounded=1;orthogonalLoop=1;jettySize=auto;html=1;exitX=1;exitY=0.5;exitDx=0;exitDy=0;entryX=0;entryY=0.5;entryDx=0;entryDy=0;" parent="1" source="4b1C1h9-l_e4xWgccLD7-26" target="4b1C1h9-l_e4xWgccLD7-28" edge="1">
          <mxGeometry relative="1" as="geometry" />
        </mxCell>
        <mxCell id="4b1C1h9-l_e4xWgccLD7-30" value="NÃO" style="edgeLabel;html=1;align=center;verticalAlign=middle;resizable=0;points=[];rounded=1;" parent="4b1C1h9-l_e4xWgccLD7-29" vertex="1" connectable="0">
          <mxGeometry x="-0.1515" y="1" relative="1" as="geometry">
            <mxPoint x="-3" y="1" as="offset" />
          </mxGeometry>
        </mxCell>
        <mxCell id="4b1C1h9-l_e4xWgccLD7-46" style="edgeStyle=orthogonalEdgeStyle;rounded=1;orthogonalLoop=1;jettySize=auto;html=1;exitX=0.5;exitY=1;exitDx=0;exitDy=0;entryX=0.5;entryY=0;entryDx=0;entryDy=0;" parent="1" source="4b1C1h9-l_e4xWgccLD7-26" target="4b1C1h9-l_e4xWgccLD7-44" edge="1">
          <mxGeometry relative="1" as="geometry" />
        </mxCell>
        <mxCell id="4b1C1h9-l_e4xWgccLD7-26" value="&lt;div&gt;&lt;span style=&quot;background-color: initial;&quot;&gt;Campo&amp;nbsp;&lt;/span&gt;&lt;br&gt;&lt;/div&gt;&lt;div&gt;vazio&lt;span style=&quot;background-color: initial;&quot;&gt;?&lt;/span&gt;&lt;/div&gt;" style="rhombus;whiteSpace=wrap;html=1;rounded=0;fillColor=#d5e8d4;strokeColor=#82b366;" parent="1" vertex="1">
          <mxGeometry x="570" y="860" width="80" height="80" as="geometry" />
        </mxCell>
        <mxCell id="4b1C1h9-l_e4xWgccLD7-31" style="edgeStyle=orthogonalEdgeStyle;rounded=1;orthogonalLoop=1;jettySize=auto;html=1;exitX=0.5;exitY=0;exitDx=0;exitDy=0;entryX=1;entryY=0.5;entryDx=0;entryDy=0;" parent="1" source="4b1C1h9-l_e4xWgccLD7-28" target="4b1C1h9-l_e4xWgccLD7-23" edge="1">
          <mxGeometry relative="1" as="geometry" />
        </mxCell>
        <mxCell id="4b1C1h9-l_e4xWgccLD7-28" value="Mensagem de ERRO" style="rounded=1;whiteSpace=wrap;html=1;fillColor=#fff2cc;strokeColor=#d6b656;" parent="1" vertex="1">
          <mxGeometry x="710" y="870" width="120" height="60" as="geometry" />
        </mxCell>
        <mxCell id="4b1C1h9-l_e4xWgccLD7-36" style="edgeStyle=orthogonalEdgeStyle;rounded=1;orthogonalLoop=1;jettySize=auto;html=1;exitX=0.5;exitY=0;exitDx=0;exitDy=0;entryX=1;entryY=0.5;entryDx=0;entryDy=0;" parent="1" source="4b1C1h9-l_e4xWgccLD7-32" target="4b1C1h9-l_e4xWgccLD7-12" edge="1">
          <mxGeometry relative="1" as="geometry" />
        </mxCell>
        <mxCell id="4b1C1h9-l_e4xWgccLD7-32" value="Mensagem de ERRO" style="rounded=1;whiteSpace=wrap;html=1;fillColor=#fff2cc;strokeColor=#d6b656;" parent="1" vertex="1">
          <mxGeometry x="710" y="680" width="120" height="60" as="geometry" />
        </mxCell>
        <mxCell id="4b1C1h9-l_e4xWgccLD7-37" value="Mensagem de ERRO" style="rounded=1;whiteSpace=wrap;html=1;fillColor=#fff2cc;strokeColor=#d6b656;" parent="1" vertex="1">
          <mxGeometry x="710" y="480" width="120" height="60" as="geometry" />
        </mxCell>
        <mxCell id="4b1C1h9-l_e4xWgccLD7-40" style="edgeStyle=orthogonalEdgeStyle;rounded=1;orthogonalLoop=1;jettySize=auto;html=1;exitX=0.5;exitY=0;exitDx=0;exitDy=0;entryX=0.997;entryY=0.451;entryDx=0;entryDy=0;entryPerimeter=0;" parent="1" source="4b1C1h9-l_e4xWgccLD7-37" target="4b1C1h9-l_e4xWgccLD7-10" edge="1">
          <mxGeometry relative="1" as="geometry" />
        </mxCell>
        <mxCell id="4b1C1h9-l_e4xWgccLD7-48" style="edgeStyle=orthogonalEdgeStyle;rounded=1;orthogonalLoop=1;jettySize=auto;html=1;exitX=0.5;exitY=1;exitDx=0;exitDy=0;entryX=0.5;entryY=0;entryDx=0;entryDy=0;" parent="1" source="4b1C1h9-l_e4xWgccLD7-44" target="4b1C1h9-l_e4xWgccLD7-47" edge="1">
          <mxGeometry relative="1" as="geometry" />
        </mxCell>
        <mxCell id="lxdEsuAKqhO_L1pSiuFA-769" style="edgeStyle=orthogonalEdgeStyle;rounded=0;orthogonalLoop=1;jettySize=auto;html=1;exitX=0;exitY=0.5;exitDx=0;exitDy=0;entryX=0.5;entryY=0;entryDx=0;entryDy=0;" parent="1" source="4b1C1h9-l_e4xWgccLD7-44" target="lxdEsuAKqhO_L1pSiuFA-768" edge="1">
          <mxGeometry relative="1" as="geometry" />
        </mxCell>
        <mxCell id="4b1C1h9-l_e4xWgccLD7-44" value="Confirmar SENHA" style="rounded=1;whiteSpace=wrap;html=1;fillColor=#dae8fc;strokeColor=#6c8ebf;" parent="1" vertex="1">
          <mxGeometry x="550" y="960" width="120" height="60" as="geometry" />
        </mxCell>
        <mxCell id="4b1C1h9-l_e4xWgccLD7-50" style="edgeStyle=orthogonalEdgeStyle;rounded=1;orthogonalLoop=1;jettySize=auto;html=1;exitX=1;exitY=0.5;exitDx=0;exitDy=0;entryX=0;entryY=0.5;entryDx=0;entryDy=0;" parent="1" source="4b1C1h9-l_e4xWgccLD7-47" target="4b1C1h9-l_e4xWgccLD7-49" edge="1">
          <mxGeometry relative="1" as="geometry" />
        </mxCell>
        <mxCell id="4b1C1h9-l_e4xWgccLD7-51" value="NÃO" style="edgeLabel;html=1;align=center;verticalAlign=middle;resizable=0;points=[];rounded=1;" parent="4b1C1h9-l_e4xWgccLD7-50" vertex="1" connectable="0">
          <mxGeometry x="-0.1473" y="-1" relative="1" as="geometry">
            <mxPoint x="-3" y="-1" as="offset" />
          </mxGeometry>
        </mxCell>
        <mxCell id="4b1C1h9-l_e4xWgccLD7-54" style="edgeStyle=orthogonalEdgeStyle;rounded=1;orthogonalLoop=1;jettySize=auto;html=1;exitX=0.5;exitY=1;exitDx=0;exitDy=0;entryX=0.5;entryY=0;entryDx=0;entryDy=0;" parent="1" source="4b1C1h9-l_e4xWgccLD7-47" target="4b1C1h9-l_e4xWgccLD7-53" edge="1">
          <mxGeometry relative="1" as="geometry" />
        </mxCell>
        <mxCell id="4b1C1h9-l_e4xWgccLD7-47" value="Senhas iguais?" style="rhombus;whiteSpace=wrap;html=1;rounded=0;fillColor=#d5e8d4;strokeColor=#82b366;" parent="1" vertex="1">
          <mxGeometry x="570" y="1040" width="80" height="80" as="geometry" />
        </mxCell>
        <mxCell id="4b1C1h9-l_e4xWgccLD7-52" style="edgeStyle=orthogonalEdgeStyle;rounded=1;orthogonalLoop=1;jettySize=auto;html=1;exitX=0.5;exitY=0;exitDx=0;exitDy=0;entryX=1;entryY=0.5;entryDx=0;entryDy=0;" parent="1" source="4b1C1h9-l_e4xWgccLD7-49" target="4b1C1h9-l_e4xWgccLD7-44" edge="1">
          <mxGeometry relative="1" as="geometry" />
        </mxCell>
        <mxCell id="4b1C1h9-l_e4xWgccLD7-49" value="Mensagem de ERRO" style="rounded=1;whiteSpace=wrap;html=1;fillColor=#fff2cc;strokeColor=#d6b656;" parent="1" vertex="1">
          <mxGeometry x="710" y="1050" width="120" height="60" as="geometry" />
        </mxCell>
        <mxCell id="4b1C1h9-l_e4xWgccLD7-56" style="edgeStyle=orthogonalEdgeStyle;rounded=1;orthogonalLoop=1;jettySize=auto;html=1;exitX=0.5;exitY=1;exitDx=0;exitDy=0;entryX=0.5;entryY=0;entryDx=0;entryDy=0;" parent="1" source="4b1C1h9-l_e4xWgccLD7-53" target="4b1C1h9-l_e4xWgccLD7-55" edge="1">
          <mxGeometry relative="1" as="geometry" />
        </mxCell>
        <mxCell id="4b1C1h9-l_e4xWgccLD7-53" value="Clicar em CADASTRAR" style="rounded=1;whiteSpace=wrap;html=1;fillColor=#dae8fc;strokeColor=#6c8ebf;" parent="1" vertex="1">
          <mxGeometry x="550" y="1140" width="120" height="60" as="geometry" />
        </mxCell>
        <mxCell id="4b1C1h9-l_e4xWgccLD7-58" style="edgeStyle=orthogonalEdgeStyle;rounded=1;orthogonalLoop=1;jettySize=auto;html=1;exitX=0.5;exitY=1;exitDx=0;exitDy=0;entryX=1;entryY=0.5;entryDx=0;entryDy=0;" parent="1" source="4b1C1h9-l_e4xWgccLD7-55" target="4b1C1h9-l_e4xWgccLD7-57" edge="1">
          <mxGeometry relative="1" as="geometry" />
        </mxCell>
        <mxCell id="4b1C1h9-l_e4xWgccLD7-55" value="Tela de login" style="rounded=1;whiteSpace=wrap;html=1;fillColor=#dae8fc;strokeColor=#6c8ebf;" parent="1" vertex="1">
          <mxGeometry x="550" y="1220" width="120" height="60" as="geometry" />
        </mxCell>
        <mxCell id="4b1C1h9-l_e4xWgccLD7-57" value="FIM" style="ellipse;whiteSpace=wrap;html=1;fontStyle=0;fillColor=#f8cecc;strokeColor=#b85450;rounded=1;labelBackgroundColor=none;labelBorderColor=none;textShadow=0;" parent="1" vertex="1">
          <mxGeometry x="340" y="1370" width="130" height="80" as="geometry" />
        </mxCell>
        <mxCell id="4b1C1h9-l_e4xWgccLD7-59" value="Possui&amp;nbsp;&lt;div&gt;conta?&lt;/div&gt;" style="rhombus;whiteSpace=wrap;html=1;rounded=0;fillColor=#d5e8d4;strokeColor=#82b366;" parent="1" vertex="1">
          <mxGeometry x="365" y="290" width="80" height="80" as="geometry" />
        </mxCell>
        <mxCell id="4b1C1h9-l_e4xWgccLD7-61" style="edgeStyle=orthogonalEdgeStyle;rounded=1;orthogonalLoop=1;jettySize=auto;html=1;exitX=0.5;exitY=1;exitDx=0;exitDy=0;entryX=0.5;entryY=0;entryDx=0;entryDy=0;" parent="1" target="4b1C1h9-l_e4xWgccLD7-59" edge="1">
          <mxGeometry relative="1" as="geometry">
            <mxPoint x="404.85" y="280" as="sourcePoint" />
            <mxPoint x="404.85" y="300" as="targetPoint" />
          </mxGeometry>
        </mxCell>
        <mxCell id="4b1C1h9-l_e4xWgccLD7-63" style="edgeStyle=orthogonalEdgeStyle;rounded=1;orthogonalLoop=1;jettySize=auto;html=1;exitX=1;exitY=0.5;exitDx=0;exitDy=0;entryX=0;entryY=0.5;entryDx=0;entryDy=0;" parent="1" source="4b1C1h9-l_e4xWgccLD7-59" target="4b1C1h9-l_e4xWgccLD7-6" edge="1">
          <mxGeometry relative="1" as="geometry">
            <mxPoint x="445" y="340" as="sourcePoint" />
            <mxPoint x="445" y="360" as="targetPoint" />
          </mxGeometry>
        </mxCell>
        <mxCell id="4b1C1h9-l_e4xWgccLD7-64" value="NÃO" style="edgeLabel;html=1;align=center;verticalAlign=middle;resizable=0;points=[];hachureGap=4;rounded=1;" parent="4b1C1h9-l_e4xWgccLD7-63" vertex="1" connectable="0">
          <mxGeometry x="-0.2927" y="1" relative="1" as="geometry">
            <mxPoint x="8" y="1" as="offset" />
          </mxGeometry>
        </mxCell>
        <mxCell id="4b1C1h9-l_e4xWgccLD7-71" value="" style="edgeStyle=orthogonalEdgeStyle;rounded=1;hachureGap=4;orthogonalLoop=1;jettySize=auto;html=1;exitX=0.5;exitY=1;exitDx=0;exitDy=0;entryX=0.5;entryY=0;entryDx=0;entryDy=0;" parent="1" source="4b1C1h9-l_e4xWgccLD7-65" target="4b1C1h9-l_e4xWgccLD7-70" edge="1">
          <mxGeometry relative="1" as="geometry" />
        </mxCell>
        <mxCell id="4b1C1h9-l_e4xWgccLD7-73" value="" style="edgeStyle=orthogonalEdgeStyle;rounded=1;hachureGap=4;orthogonalLoop=1;jettySize=auto;html=1;fontFamily=Helvetica;" parent="1" source="4b1C1h9-l_e4xWgccLD7-65" target="4b1C1h9-l_e4xWgccLD7-70" edge="1">
          <mxGeometry relative="1" as="geometry" />
        </mxCell>
        <mxCell id="4b1C1h9-l_e4xWgccLD7-65" value="Login" style="rounded=1;whiteSpace=wrap;html=1;fillColor=#dae8fc;strokeColor=#6c8ebf;" parent="1" vertex="1">
          <mxGeometry x="150" y="300" width="120" height="60" as="geometry" />
        </mxCell>
        <mxCell id="4b1C1h9-l_e4xWgccLD7-68" style="edgeStyle=orthogonalEdgeStyle;rounded=1;orthogonalLoop=1;jettySize=auto;html=1;exitX=0;exitY=0.5;exitDx=0;exitDy=0;entryX=1;entryY=0.5;entryDx=0;entryDy=0;" parent="1" source="4b1C1h9-l_e4xWgccLD7-59" target="4b1C1h9-l_e4xWgccLD7-65" edge="1">
          <mxGeometry relative="1" as="geometry">
            <mxPoint x="365" y="339.57" as="sourcePoint" />
            <mxPoint x="470" y="339.57" as="targetPoint" />
          </mxGeometry>
        </mxCell>
        <mxCell id="4b1C1h9-l_e4xWgccLD7-69" value="SIM" style="edgeLabel;html=1;align=center;verticalAlign=middle;resizable=0;points=[];hachureGap=4;rounded=1;" parent="4b1C1h9-l_e4xWgccLD7-68" vertex="1" connectable="0">
          <mxGeometry x="-0.2927" y="1" relative="1" as="geometry">
            <mxPoint x="-11" y="-1" as="offset" />
          </mxGeometry>
        </mxCell>
        <mxCell id="lxdEsuAKqhO_L1pSiuFA-751" style="edgeStyle=orthogonalEdgeStyle;rounded=0;orthogonalLoop=1;jettySize=auto;html=1;exitX=1;exitY=0.5;exitDx=0;exitDy=0;" parent="1" source="4b1C1h9-l_e4xWgccLD7-70" target="lxdEsuAKqhO_L1pSiuFA-750" edge="1">
          <mxGeometry relative="1" as="geometry" />
        </mxCell>
        <mxCell id="4b1C1h9-l_e4xWgccLD7-70" value="Inserir EMAIL" style="rounded=1;whiteSpace=wrap;html=1;fillColor=#dae8fc;strokeColor=#6c8ebf;" parent="1" vertex="1">
          <mxGeometry x="150" y="380" width="120" height="60" as="geometry" />
        </mxCell>
        <mxCell id="4b1C1h9-l_e4xWgccLD7-77" style="edgeStyle=orthogonalEdgeStyle;rounded=0;orthogonalLoop=1;jettySize=auto;html=1;exitX=0;exitY=0.5;exitDx=0;exitDy=0;entryX=1;entryY=0.5;entryDx=0;entryDy=0;" parent="1" source="4b1C1h9-l_e4xWgccLD7-74" target="4b1C1h9-l_e4xWgccLD7-76" edge="1">
          <mxGeometry relative="1" as="geometry" />
        </mxCell>
        <mxCell id="4b1C1h9-l_e4xWgccLD7-78" value="SIM" style="edgeLabel;html=1;align=center;verticalAlign=middle;resizable=0;points=[];" parent="4b1C1h9-l_e4xWgccLD7-77" vertex="1" connectable="0">
          <mxGeometry x="-0.0235" y="1" relative="1" as="geometry">
            <mxPoint x="9" y="-1" as="offset" />
          </mxGeometry>
        </mxCell>
        <mxCell id="4b1C1h9-l_e4xWgccLD7-81" style="edgeStyle=orthogonalEdgeStyle;rounded=0;orthogonalLoop=1;jettySize=auto;html=1;exitX=0.5;exitY=1;exitDx=0;exitDy=0;entryX=0.5;entryY=0;entryDx=0;entryDy=0;" parent="1" source="4b1C1h9-l_e4xWgccLD7-74" target="4b1C1h9-l_e4xWgccLD7-80" edge="1">
          <mxGeometry relative="1" as="geometry" />
        </mxCell>
        <mxCell id="4b1C1h9-l_e4xWgccLD7-82" value="NÃO" style="edgeLabel;html=1;align=center;verticalAlign=middle;resizable=0;points=[];" parent="4b1C1h9-l_e4xWgccLD7-81" vertex="1" connectable="0">
          <mxGeometry x="-0.2157" y="1" relative="1" as="geometry">
            <mxPoint as="offset" />
          </mxGeometry>
        </mxCell>
        <mxCell id="4b1C1h9-l_e4xWgccLD7-74" value="Campo&lt;div&gt;vazio?&lt;/div&gt;" style="rhombus;whiteSpace=wrap;html=1;rounded=0;fillColor=#d5e8d4;strokeColor=#82b366;" parent="1" vertex="1">
          <mxGeometry x="170" y="470" width="80" height="80" as="geometry" />
        </mxCell>
        <mxCell id="4b1C1h9-l_e4xWgccLD7-79" style="edgeStyle=orthogonalEdgeStyle;rounded=1;orthogonalLoop=1;jettySize=auto;html=1;exitX=0.5;exitY=0;exitDx=0;exitDy=0;entryX=0;entryY=0.5;entryDx=0;entryDy=0;curved=0;" parent="1" source="4b1C1h9-l_e4xWgccLD7-76" target="4b1C1h9-l_e4xWgccLD7-70" edge="1">
          <mxGeometry relative="1" as="geometry" />
        </mxCell>
        <mxCell id="4b1C1h9-l_e4xWgccLD7-76" value="Mensagem de ERRO" style="rounded=1;whiteSpace=wrap;html=1;fillColor=#fff2cc;strokeColor=#d6b656;" parent="1" vertex="1">
          <mxGeometry x="-10" y="480" width="120" height="60" as="geometry" />
        </mxCell>
        <mxCell id="lxdEsuAKqhO_L1pSiuFA-758" style="edgeStyle=orthogonalEdgeStyle;rounded=0;orthogonalLoop=1;jettySize=auto;html=1;exitX=1;exitY=0.5;exitDx=0;exitDy=0;entryX=0.5;entryY=0;entryDx=0;entryDy=0;" parent="1" source="4b1C1h9-l_e4xWgccLD7-80" target="lxdEsuAKqhO_L1pSiuFA-756" edge="1">
          <mxGeometry relative="1" as="geometry" />
        </mxCell>
        <mxCell id="4b1C1h9-l_e4xWgccLD7-80" value="Inserir SENHA" style="rounded=1;whiteSpace=wrap;html=1;fillColor=#dae8fc;strokeColor=#6c8ebf;" parent="1" vertex="1">
          <mxGeometry x="150" y="580" width="120" height="60" as="geometry" />
        </mxCell>
        <mxCell id="4b1C1h9-l_e4xWgccLD7-87" value="" style="edgeStyle=orthogonalEdgeStyle;rounded=0;orthogonalLoop=1;jettySize=auto;html=1;" parent="1" source="4b1C1h9-l_e4xWgccLD7-83" target="4b1C1h9-l_e4xWgccLD7-86" edge="1">
          <mxGeometry relative="1" as="geometry" />
        </mxCell>
        <mxCell id="4b1C1h9-l_e4xWgccLD7-89" value="SIM" style="edgeLabel;html=1;align=center;verticalAlign=middle;resizable=0;points=[];" parent="4b1C1h9-l_e4xWgccLD7-87" vertex="1" connectable="0">
          <mxGeometry x="-0.3929" relative="1" as="geometry">
            <mxPoint x="-5" as="offset" />
          </mxGeometry>
        </mxCell>
        <mxCell id="4b1C1h9-l_e4xWgccLD7-91" value="" style="edgeStyle=orthogonalEdgeStyle;rounded=0;orthogonalLoop=1;jettySize=auto;html=1;" parent="1" source="4b1C1h9-l_e4xWgccLD7-83" target="4b1C1h9-l_e4xWgccLD7-90" edge="1">
          <mxGeometry relative="1" as="geometry" />
        </mxCell>
        <mxCell id="4b1C1h9-l_e4xWgccLD7-100" value="NÃO" style="edgeLabel;html=1;align=center;verticalAlign=middle;resizable=0;points=[];" parent="4b1C1h9-l_e4xWgccLD7-91" vertex="1" connectable="0">
          <mxGeometry relative="1" as="geometry">
            <mxPoint y="-5" as="offset" />
          </mxGeometry>
        </mxCell>
        <mxCell id="4b1C1h9-l_e4xWgccLD7-83" value="Campo&lt;div&gt;vazio?&lt;/div&gt;" style="rhombus;whiteSpace=wrap;html=1;rounded=0;fillColor=#d5e8d4;strokeColor=#82b366;" parent="1" vertex="1">
          <mxGeometry x="170" y="670" width="80" height="80" as="geometry" />
        </mxCell>
        <mxCell id="4b1C1h9-l_e4xWgccLD7-86" value="Mensagem de ERRO" style="rounded=1;whiteSpace=wrap;html=1;fillColor=#fff2cc;strokeColor=#d6b656;" parent="1" vertex="1">
          <mxGeometry x="-10" y="680" width="120" height="60" as="geometry" />
        </mxCell>
        <mxCell id="4b1C1h9-l_e4xWgccLD7-95" value="" style="edgeStyle=orthogonalEdgeStyle;rounded=0;orthogonalLoop=1;jettySize=auto;html=1;" parent="1" source="4b1C1h9-l_e4xWgccLD7-90" target="4b1C1h9-l_e4xWgccLD7-120" edge="1">
          <mxGeometry relative="1" as="geometry">
            <mxPoint x="210" y="900" as="targetPoint" />
          </mxGeometry>
        </mxCell>
        <mxCell id="4b1C1h9-l_e4xWgccLD7-101" value="SIM" style="edgeLabel;html=1;align=center;verticalAlign=middle;resizable=0;points=[];" parent="4b1C1h9-l_e4xWgccLD7-95" vertex="1" connectable="0">
          <mxGeometry x="-0.1242" y="-1" relative="1" as="geometry">
            <mxPoint as="offset" />
          </mxGeometry>
        </mxCell>
        <mxCell id="4b1C1h9-l_e4xWgccLD7-90" value="Senha correta?" style="rhombus;whiteSpace=wrap;html=1;rounded=0;fillColor=#d5e8d4;strokeColor=#82b366;" parent="1" vertex="1">
          <mxGeometry x="170" y="780" width="80" height="80" as="geometry" />
        </mxCell>
        <mxCell id="4b1C1h9-l_e4xWgccLD7-96" style="edgeStyle=orthogonalEdgeStyle;rounded=1;orthogonalLoop=1;jettySize=auto;html=1;exitX=0.5;exitY=0;exitDx=0;exitDy=0;entryX=0;entryY=0.5;entryDx=0;entryDy=0;" parent="1" source="4b1C1h9-l_e4xWgccLD7-86" target="4b1C1h9-l_e4xWgccLD7-80" edge="1">
          <mxGeometry relative="1" as="geometry">
            <mxPoint x="100" y="660" as="sourcePoint" />
            <mxPoint y="600" as="targetPoint" />
          </mxGeometry>
        </mxCell>
        <mxCell id="4b1C1h9-l_e4xWgccLD7-98" style="edgeStyle=orthogonalEdgeStyle;rounded=1;orthogonalLoop=1;jettySize=auto;html=1;exitX=0.5;exitY=0;exitDx=0;exitDy=0;entryX=0.5;entryY=1;entryDx=0;entryDy=0;" parent="1" target="4b1C1h9-l_e4xWgccLD7-86" edge="1">
          <mxGeometry relative="1" as="geometry">
            <mxPoint x="170" y="820" as="sourcePoint" />
            <mxPoint x="70" y="760" as="targetPoint" />
          </mxGeometry>
        </mxCell>
        <mxCell id="4b1C1h9-l_e4xWgccLD7-99" value="NÃO" style="edgeLabel;html=1;align=center;verticalAlign=middle;resizable=0;points=[];" parent="4b1C1h9-l_e4xWgccLD7-98" vertex="1" connectable="0">
          <mxGeometry x="-0.43" y="1" relative="1" as="geometry">
            <mxPoint as="offset" />
          </mxGeometry>
        </mxCell>
        <mxCell id="lxdEsuAKqhO_L1pSiuFA-771" style="edgeStyle=orthogonalEdgeStyle;rounded=1;orthogonalLoop=1;jettySize=auto;html=1;exitX=0.5;exitY=1;exitDx=0;exitDy=0;entryX=0;entryY=0.5;entryDx=0;entryDy=0;curved=0;" parent="1" source="4b1C1h9-l_e4xWgccLD7-120" target="4b1C1h9-l_e4xWgccLD7-57" edge="1">
          <mxGeometry relative="1" as="geometry" />
        </mxCell>
        <mxCell id="4b1C1h9-l_e4xWgccLD7-120" value="Efetuar login" style="rounded=1;whiteSpace=wrap;html=1;fillColor=#dae8fc;strokeColor=#6c8ebf;" parent="1" vertex="1">
          <mxGeometry x="150" y="915" width="120" height="60" as="geometry" />
        </mxCell>
        <mxCell id="4b1C1h9-l_e4xWgccLD7-123" value="&lt;h1 style=&quot;text-align: justify;&quot;&gt;&lt;font face=&quot;Times New Roman&quot; style=&quot;font-size: 60px; font-weight: normal;&quot;&gt;&lt;i&gt;LOGIN E CADASTRO&lt;/i&gt;&lt;/font&gt;&lt;/h1&gt;" style="text;html=1;align=center;verticalAlign=middle;resizable=0;points=[];autosize=1;" parent="1" vertex="1">
          <mxGeometry x="120" y="-80" width="570" height="120" as="geometry" />
        </mxCell>
        <mxCell id="4b1C1h9-l_e4xWgccLD7-134" style="edgeStyle=orthogonalEdgeStyle;rounded=0;orthogonalLoop=1;jettySize=auto;html=1;exitX=0.5;exitY=1;exitDx=0;exitDy=0;entryX=0.5;entryY=0;entryDx=0;entryDy=0;" parent="1" source="4b1C1h9-l_e4xWgccLD7-129" target="4b1C1h9-l_e4xWgccLD7-130" edge="1">
          <mxGeometry relative="1" as="geometry" />
        </mxCell>
        <mxCell id="4b1C1h9-l_e4xWgccLD7-129" value="&lt;span&gt;INÍCIO&lt;/span&gt;" style="ellipse;whiteSpace=wrap;html=1;fillColor=#f8cecc;strokeColor=#b85450;rounded=1;fontStyle=0;" parent="1" vertex="1">
          <mxGeometry x="-560" y="25" width="130" height="80" as="geometry" />
        </mxCell>
        <mxCell id="4b1C1h9-l_e4xWgccLD7-135" style="edgeStyle=orthogonalEdgeStyle;rounded=0;orthogonalLoop=1;jettySize=auto;html=1;exitX=0.5;exitY=1;exitDx=0;exitDy=0;entryX=0.5;entryY=0;entryDx=0;entryDy=0;" parent="1" source="4b1C1h9-l_e4xWgccLD7-130" target="4b1C1h9-l_e4xWgccLD7-131" edge="1">
          <mxGeometry relative="1" as="geometry" />
        </mxCell>
        <mxCell id="4b1C1h9-l_e4xWgccLD7-130" value="Abrir APP" style="rounded=1;whiteSpace=wrap;html=1;fillColor=#dae8fc;strokeColor=#6c8ebf;" parent="1" vertex="1">
          <mxGeometry x="-555" y="125" width="120" height="60" as="geometry" />
        </mxCell>
        <mxCell id="4b1C1h9-l_e4xWgccLD7-137" style="edgeStyle=orthogonalEdgeStyle;rounded=0;orthogonalLoop=1;jettySize=auto;html=1;exitX=0.5;exitY=1;exitDx=0;exitDy=0;entryX=0.5;entryY=0;entryDx=0;entryDy=0;" parent="1" source="4b1C1h9-l_e4xWgccLD7-131" target="4b1C1h9-l_e4xWgccLD7-136" edge="1">
          <mxGeometry relative="1" as="geometry" />
        </mxCell>
        <mxCell id="4b1C1h9-l_e4xWgccLD7-131" value="Usuário" style="rounded=1;whiteSpace=wrap;html=1;fillColor=#dae8fc;strokeColor=#6c8ebf;" parent="1" vertex="1">
          <mxGeometry x="-555" y="205" width="120" height="60" as="geometry" />
        </mxCell>
        <mxCell id="4b1C1h9-l_e4xWgccLD7-139" style="edgeStyle=orthogonalEdgeStyle;rounded=0;orthogonalLoop=1;jettySize=auto;html=1;exitX=0.5;exitY=1;exitDx=0;exitDy=0;" parent="1" source="4b1C1h9-l_e4xWgccLD7-136" target="4b1C1h9-l_e4xWgccLD7-138" edge="1">
          <mxGeometry relative="1" as="geometry" />
        </mxCell>
        <mxCell id="4b1C1h9-l_e4xWgccLD7-136" value="Deletar conta" style="rounded=1;whiteSpace=wrap;html=1;fillColor=#dae8fc;strokeColor=#6c8ebf;" parent="1" vertex="1">
          <mxGeometry x="-555" y="285" width="120" height="60" as="geometry" />
        </mxCell>
        <mxCell id="4b1C1h9-l_e4xWgccLD7-143" style="edgeStyle=orthogonalEdgeStyle;rounded=1;orthogonalLoop=1;jettySize=auto;html=1;exitX=0;exitY=0.5;exitDx=0;exitDy=0;entryX=0.5;entryY=0;entryDx=0;entryDy=0;curved=0;" parent="1" source="4b1C1h9-l_e4xWgccLD7-138" target="4b1C1h9-l_e4xWgccLD7-152" edge="1">
          <mxGeometry relative="1" as="geometry">
            <mxPoint x="-590" y="405" as="targetPoint" />
          </mxGeometry>
        </mxCell>
        <mxCell id="4b1C1h9-l_e4xWgccLD7-151" value="SIM" style="edgeLabel;html=1;align=center;verticalAlign=middle;resizable=0;points=[];" parent="4b1C1h9-l_e4xWgccLD7-143" vertex="1" connectable="0">
          <mxGeometry x="-0.3143" relative="1" as="geometry">
            <mxPoint as="offset" />
          </mxGeometry>
        </mxCell>
        <mxCell id="4b1C1h9-l_e4xWgccLD7-184" style="edgeStyle=orthogonalEdgeStyle;rounded=1;orthogonalLoop=1;jettySize=auto;html=1;exitX=1;exitY=0.5;exitDx=0;exitDy=0;entryX=0.5;entryY=0;entryDx=0;entryDy=0;curved=0;" parent="1" source="4b1C1h9-l_e4xWgccLD7-138" target="4b1C1h9-l_e4xWgccLD7-140" edge="1">
          <mxGeometry relative="1" as="geometry" />
        </mxCell>
        <mxCell id="4b1C1h9-l_e4xWgccLD7-138" value="Possui&amp;nbsp;&lt;div&gt;conta?&lt;/div&gt;" style="rhombus;whiteSpace=wrap;html=1;rounded=0;fillColor=#d5e8d4;strokeColor=#82b366;" parent="1" vertex="1">
          <mxGeometry x="-535" y="365" width="80" height="80" as="geometry" />
        </mxCell>
        <mxCell id="4b1C1h9-l_e4xWgccLD7-140" value="FIM" style="ellipse;whiteSpace=wrap;html=1;fontStyle=0;fillColor=#f8cecc;strokeColor=#b85450;rounded=1;labelBackgroundColor=none;labelBorderColor=none;textShadow=0;" parent="1" vertex="1">
          <mxGeometry x="-455" y="785" width="130" height="80" as="geometry" />
        </mxCell>
        <mxCell id="lxdEsuAKqhO_L1pSiuFA-741" style="edgeStyle=orthogonalEdgeStyle;rounded=0;orthogonalLoop=1;jettySize=auto;html=1;exitX=0.5;exitY=1;exitDx=0;exitDy=0;entryX=0.5;entryY=0;entryDx=0;entryDy=0;" parent="1" source="4b1C1h9-l_e4xWgccLD7-152" target="lxdEsuAKqhO_L1pSiuFA-739" edge="1">
          <mxGeometry relative="1" as="geometry" />
        </mxCell>
        <mxCell id="4b1C1h9-l_e4xWgccLD7-152" value="Inserir E-MAIL" style="rounded=1;whiteSpace=wrap;html=1;fillColor=#dae8fc;strokeColor=#6c8ebf;" parent="1" vertex="1">
          <mxGeometry x="-710" y="465" width="120" height="60" as="geometry" />
        </mxCell>
        <mxCell id="4b1C1h9-l_e4xWgccLD7-159" value="" style="edgeStyle=orthogonalEdgeStyle;rounded=0;orthogonalLoop=1;jettySize=auto;html=1;" parent="1" source="4b1C1h9-l_e4xWgccLD7-154" target="4b1C1h9-l_e4xWgccLD7-158" edge="1">
          <mxGeometry relative="1" as="geometry" />
        </mxCell>
        <mxCell id="4b1C1h9-l_e4xWgccLD7-160" value="NÃO" style="edgeLabel;html=1;align=center;verticalAlign=middle;resizable=0;points=[];" parent="4b1C1h9-l_e4xWgccLD7-159" vertex="1" connectable="0">
          <mxGeometry x="-0.1023" y="1" relative="1" as="geometry">
            <mxPoint as="offset" />
          </mxGeometry>
        </mxCell>
        <mxCell id="QQEnkS8oLGYEb6HzyKzU-35" value="" style="edgeStyle=orthogonalEdgeStyle;rounded=0;orthogonalLoop=1;jettySize=auto;html=1;" parent="1" source="4b1C1h9-l_e4xWgccLD7-154" target="QQEnkS8oLGYEb6HzyKzU-28" edge="1">
          <mxGeometry relative="1" as="geometry" />
        </mxCell>
        <mxCell id="QQEnkS8oLGYEb6HzyKzU-36" value="SIM" style="edgeLabel;html=1;align=center;verticalAlign=middle;resizable=0;points=[];" parent="QQEnkS8oLGYEb6HzyKzU-35" vertex="1" connectable="0">
          <mxGeometry x="-0.7079" y="-2" relative="1" as="geometry">
            <mxPoint as="offset" />
          </mxGeometry>
        </mxCell>
        <mxCell id="4b1C1h9-l_e4xWgccLD7-154" value="E-MAIL&lt;div&gt;válido?&lt;/div&gt;" style="rhombus;whiteSpace=wrap;html=1;rounded=0;fillColor=#d5e8d4;strokeColor=#82b366;" parent="1" vertex="1">
          <mxGeometry x="-690" y="650" width="80" height="80" as="geometry" />
        </mxCell>
        <mxCell id="4b1C1h9-l_e4xWgccLD7-161" style="edgeStyle=orthogonalEdgeStyle;rounded=1;orthogonalLoop=1;jettySize=auto;html=1;exitX=0.5;exitY=0;exitDx=0;exitDy=0;entryX=0;entryY=0.5;entryDx=0;entryDy=0;curved=0;" parent="1" source="4b1C1h9-l_e4xWgccLD7-158" target="4b1C1h9-l_e4xWgccLD7-152" edge="1">
          <mxGeometry relative="1" as="geometry" />
        </mxCell>
        <mxCell id="4b1C1h9-l_e4xWgccLD7-158" value="Mensagem de ERRO" style="rounded=1;whiteSpace=wrap;html=1;fillColor=#fff2cc;strokeColor=#d6b656;" parent="1" vertex="1">
          <mxGeometry x="-870" y="660" width="120" height="60" as="geometry" />
        </mxCell>
        <mxCell id="4b1C1h9-l_e4xWgccLD7-165" value="" style="edgeStyle=orthogonalEdgeStyle;rounded=0;orthogonalLoop=1;jettySize=auto;html=1;" parent="1" edge="1">
          <mxGeometry relative="1" as="geometry">
            <mxPoint x="-650" y="940" as="targetPoint" />
          </mxGeometry>
        </mxCell>
        <mxCell id="4b1C1h9-l_e4xWgccLD7-167" value="" style="edgeStyle=orthogonalEdgeStyle;rounded=0;orthogonalLoop=1;jettySize=auto;html=1;" parent="1" edge="1">
          <mxGeometry relative="1" as="geometry">
            <mxPoint x="-690" y="980" as="sourcePoint" />
          </mxGeometry>
        </mxCell>
        <mxCell id="4b1C1h9-l_e4xWgccLD7-172" value="NÃO" style="edgeLabel;html=1;align=center;verticalAlign=middle;resizable=0;points=[];" parent="4b1C1h9-l_e4xWgccLD7-167" vertex="1" connectable="0">
          <mxGeometry x="-0.0667" y="1" relative="1" as="geometry">
            <mxPoint as="offset" />
          </mxGeometry>
        </mxCell>
        <mxCell id="4b1C1h9-l_e4xWgccLD7-170" value="" style="edgeStyle=orthogonalEdgeStyle;rounded=0;orthogonalLoop=1;jettySize=auto;html=1;" parent="1" edge="1">
          <mxGeometry relative="1" as="geometry">
            <mxPoint x="-650" y="1060" as="targetPoint" />
          </mxGeometry>
        </mxCell>
        <mxCell id="4b1C1h9-l_e4xWgccLD7-171" value="SIM" style="edgeLabel;html=1;align=center;verticalAlign=middle;resizable=0;points=[];" parent="4b1C1h9-l_e4xWgccLD7-170" vertex="1" connectable="0">
          <mxGeometry x="-0.45" relative="1" as="geometry">
            <mxPoint as="offset" />
          </mxGeometry>
        </mxCell>
        <mxCell id="4b1C1h9-l_e4xWgccLD7-168" style="edgeStyle=orthogonalEdgeStyle;rounded=1;orthogonalLoop=1;jettySize=auto;html=1;exitX=0.5;exitY=0;exitDx=0;exitDy=0;entryX=0;entryY=0.5;entryDx=0;entryDy=0;curved=0;" parent="1" edge="1">
          <mxGeometry relative="1" as="geometry">
            <mxPoint x="-810" y="950" as="sourcePoint" />
          </mxGeometry>
        </mxCell>
        <mxCell id="4b1C1h9-l_e4xWgccLD7-174" value="" style="edgeStyle=orthogonalEdgeStyle;rounded=0;orthogonalLoop=1;jettySize=auto;html=1;" parent="1" edge="1">
          <mxGeometry relative="1" as="geometry">
            <mxPoint x="-650" y="1160" as="targetPoint" />
          </mxGeometry>
        </mxCell>
        <mxCell id="4b1C1h9-l_e4xWgccLD7-177" style="edgeStyle=orthogonalEdgeStyle;rounded=1;orthogonalLoop=1;jettySize=auto;html=1;exitX=0;exitY=0.5;exitDx=0;exitDy=0;entryX=0.5;entryY=1;entryDx=0;entryDy=0;curved=0;" parent="1" edge="1">
          <mxGeometry relative="1" as="geometry">
            <mxPoint x="-950" y="790" as="targetPoint" />
            <mxPoint x="-690" y="1200" as="sourcePoint" />
          </mxGeometry>
        </mxCell>
        <mxCell id="4b1C1h9-l_e4xWgccLD7-178" value="NÃO" style="edgeLabel;html=1;align=center;verticalAlign=middle;resizable=0;points=[];" parent="4b1C1h9-l_e4xWgccLD7-177" vertex="1" connectable="0">
          <mxGeometry x="-0.6387" y="3" relative="1" as="geometry">
            <mxPoint as="offset" />
          </mxGeometry>
        </mxCell>
        <mxCell id="4b1C1h9-l_e4xWgccLD7-186" style="edgeStyle=orthogonalEdgeStyle;rounded=1;orthogonalLoop=1;jettySize=auto;html=1;exitX=1;exitY=0.5;exitDx=0;exitDy=0;entryX=0.5;entryY=1;entryDx=0;entryDy=0;curved=0;" parent="1" source="4b1C1h9-l_e4xWgccLD7-182" target="4b1C1h9-l_e4xWgccLD7-140" edge="1">
          <mxGeometry relative="1" as="geometry" />
        </mxCell>
        <mxCell id="4b1C1h9-l_e4xWgccLD7-182" value="Efetuar exclusão de conta" style="rounded=1;whiteSpace=wrap;html=1;fillColor=#dae8fc;strokeColor=#6c8ebf;" parent="1" vertex="1">
          <mxGeometry x="-560" y="960" width="120" height="60" as="geometry" />
        </mxCell>
        <mxCell id="QQEnkS8oLGYEb6HzyKzU-2" value="&lt;h1 style=&quot;text-align: justify;&quot;&gt;&lt;font face=&quot;Times New Roman&quot;&gt;&lt;span style=&quot;font-size: 60px; font-weight: 400;&quot;&gt;&lt;i&gt;EXCLUIR CONTA&lt;/i&gt;&lt;/span&gt;&lt;/font&gt;&lt;/h1&gt;" style="text;html=1;align=center;verticalAlign=middle;resizable=0;points=[];autosize=1;" parent="1" vertex="1">
          <mxGeometry x="-815" y="-80" width="470" height="120" as="geometry" />
        </mxCell>
        <mxCell id="QQEnkS8oLGYEb6HzyKzU-4" value="&lt;h1 style=&quot;text-align: justify;&quot;&gt;&lt;font face=&quot;Times New Roman&quot;&gt;&lt;span style=&quot;font-size: 60px; font-weight: 400;&quot;&gt;&lt;i&gt;DIÁRIO DE BORDO - Equipe 01&lt;/i&gt;&lt;/span&gt;&lt;/font&gt;&lt;/h1&gt;" style="text;html=1;align=center;verticalAlign=middle;resizable=0;points=[];autosize=1;" parent="1" vertex="1">
          <mxGeometry x="-4855" y="-140" width="830" height="120" as="geometry" />
        </mxCell>
        <mxCell id="QQEnkS8oLGYEb6HzyKzU-5" value="" style="endArrow=none;html=1;rounded=0;" parent="1" target="QQEnkS8oLGYEb6HzyKzU-3" edge="1">
          <mxGeometry width="50" height="50" relative="1" as="geometry">
            <mxPoint x="-4900" y="-20" as="sourcePoint" />
            <mxPoint x="-4850" y="-70" as="targetPoint" />
          </mxGeometry>
        </mxCell>
        <mxCell id="QQEnkS8oLGYEb6HzyKzU-8" value="&lt;font style=&quot;font-size: 40px;&quot;&gt;Dia 22/05&lt;/font&gt;" style="text;html=1;align=center;verticalAlign=middle;whiteSpace=wrap;rounded=0;" parent="1" vertex="1">
          <mxGeometry x="-4900" y="-20" width="260" height="110" as="geometry" />
        </mxCell>
        <mxCell id="QQEnkS8oLGYEb6HzyKzU-9" value="&lt;div style=&quot;font-size: 26px;&quot;&gt;&lt;font style=&quot;font-size: 26px;&quot;&gt;Fluxograma&amp;nbsp;&lt;br&gt;&lt;/font&gt;&lt;/div&gt;&lt;div style=&quot;font-size: 26px;&quot;&gt;&lt;font style=&quot;font-size: 26px;&quot;&gt;&lt;br&gt;&lt;/font&gt;&lt;/div&gt;&lt;font style=&quot;font-size: 26px;&quot;&gt;Erick - Login, cadastro e exclusão de conta (Todos finalizados)&lt;/font&gt;&lt;div style=&quot;font-size: 26px;&quot;&gt;&lt;font style=&quot;font-size: 26px;&quot;&gt;Lucas - Cadastro (Finalizado)&lt;/font&gt;&lt;/div&gt;&lt;div style=&quot;font-size: 26px;&quot;&gt;&lt;font style=&quot;font-size: 26px;&quot;&gt;Caio - Login (Finalizado)&lt;/font&gt;&lt;/div&gt;&lt;div style=&quot;font-size: 26px;&quot;&gt;&lt;font style=&quot;font-size: 26px;&quot;&gt;Júlia -&amp;nbsp;&lt;/font&gt;&lt;/div&gt;&lt;div style=&quot;font-size: 26px;&quot;&gt;&lt;font style=&quot;font-size: 26px;&quot;&gt;Maria Luiza -&amp;nbsp;&lt;/font&gt;&lt;/div&gt;" style="text;html=1;align=left;verticalAlign=middle;whiteSpace=wrap;rounded=0;" parent="1" vertex="1">
          <mxGeometry x="-4820" y="80" width="770" height="225" as="geometry" />
        </mxCell>
        <mxCell id="QQEnkS8oLGYEb6HzyKzU-10" value="&lt;font style=&quot;font-size: 40px;&quot;&gt;Dia 23/05&lt;/font&gt;" style="text;html=1;align=center;verticalAlign=middle;whiteSpace=wrap;rounded=0;" parent="1" vertex="1">
          <mxGeometry x="-4900" y="300" width="260" height="110" as="geometry" />
        </mxCell>
        <mxCell id="QQEnkS8oLGYEb6HzyKzU-11" style="edgeStyle=orthogonalEdgeStyle;rounded=0;orthogonalLoop=1;jettySize=auto;html=1;exitX=0.5;exitY=1;exitDx=0;exitDy=0;" parent="1" source="QQEnkS8oLGYEb6HzyKzU-9" target="QQEnkS8oLGYEb6HzyKzU-9" edge="1">
          <mxGeometry relative="1" as="geometry" />
        </mxCell>
        <mxCell id="QQEnkS8oLGYEb6HzyKzU-12" value="&lt;div style=&quot;font-size: 26px;&quot;&gt;&lt;font style=&quot;font-size: 26px;&quot;&gt;Fluxograma&amp;nbsp;&lt;br&gt;&lt;/font&gt;&lt;/div&gt;&lt;div style=&quot;font-size: 26px;&quot;&gt;&lt;font style=&quot;font-size: 26px;&quot;&gt;&lt;br&gt;&lt;/font&gt;&lt;/div&gt;&lt;font style=&quot;font-size: 26px;&quot;&gt;Erick - Atualizar dados (Finalizado)&lt;/font&gt;&lt;div style=&quot;font-size: 26px;&quot;&gt;&lt;font style=&quot;font-size: 26px;&quot;&gt;Lucas - Controle de estoque (Finalizado)&lt;/font&gt;&lt;/div&gt;&lt;div style=&quot;font-size: 26px;&quot;&gt;&lt;font style=&quot;font-size: 26px;&quot;&gt;Caio -&amp;nbsp;&lt;/font&gt;&lt;/div&gt;&lt;div style=&quot;font-size: 26px;&quot;&gt;&lt;font style=&quot;font-size: 26px;&quot;&gt;Júlia -&amp;nbsp;&lt;/font&gt;&lt;/div&gt;&lt;div style=&quot;font-size: 26px;&quot;&gt;&lt;font style=&quot;font-size: 26px;&quot;&gt;Maria Luiza -&amp;nbsp;&lt;/font&gt;&lt;/div&gt;" style="text;html=1;align=left;verticalAlign=middle;whiteSpace=wrap;rounded=0;" parent="1" vertex="1">
          <mxGeometry x="-4810" y="410" width="540" height="225" as="geometry" />
        </mxCell>
        <mxCell id="QQEnkS8oLGYEb6HzyKzU-17" style="edgeStyle=orthogonalEdgeStyle;rounded=0;orthogonalLoop=1;jettySize=auto;html=1;exitX=0.5;exitY=1;exitDx=0;exitDy=0;entryX=0.5;entryY=0;entryDx=0;entryDy=0;" parent="1" source="QQEnkS8oLGYEb6HzyKzU-13" target="QQEnkS8oLGYEb6HzyKzU-14" edge="1">
          <mxGeometry relative="1" as="geometry" />
        </mxCell>
        <mxCell id="QQEnkS8oLGYEb6HzyKzU-13" value="&lt;span&gt;INÍCIO&lt;/span&gt;" style="ellipse;whiteSpace=wrap;html=1;fillColor=#f8cecc;strokeColor=#b85450;rounded=1;fontStyle=0;" parent="1" vertex="1">
          <mxGeometry x="-1565" y="125" width="130" height="80" as="geometry" />
        </mxCell>
        <mxCell id="QQEnkS8oLGYEb6HzyKzU-18" style="edgeStyle=orthogonalEdgeStyle;rounded=0;orthogonalLoop=1;jettySize=auto;html=1;exitX=0.5;exitY=1;exitDx=0;exitDy=0;entryX=0.5;entryY=0;entryDx=0;entryDy=0;" parent="1" source="QQEnkS8oLGYEb6HzyKzU-14" target="QQEnkS8oLGYEb6HzyKzU-15" edge="1">
          <mxGeometry relative="1" as="geometry" />
        </mxCell>
        <mxCell id="QQEnkS8oLGYEb6HzyKzU-14" value="Abrir APP" style="rounded=1;whiteSpace=wrap;html=1;fillColor=#dae8fc;strokeColor=#6c8ebf;" parent="1" vertex="1">
          <mxGeometry x="-1560" y="225" width="120" height="60" as="geometry" />
        </mxCell>
        <mxCell id="QQEnkS8oLGYEb6HzyKzU-20" style="edgeStyle=orthogonalEdgeStyle;rounded=0;orthogonalLoop=1;jettySize=auto;html=1;exitX=0.5;exitY=1;exitDx=0;exitDy=0;entryX=0.5;entryY=0;entryDx=0;entryDy=0;" parent="1" source="QQEnkS8oLGYEb6HzyKzU-15" target="QQEnkS8oLGYEb6HzyKzU-19" edge="1">
          <mxGeometry relative="1" as="geometry" />
        </mxCell>
        <mxCell id="QQEnkS8oLGYEb6HzyKzU-15" value="Usuário" style="rounded=1;whiteSpace=wrap;html=1;fillColor=#dae8fc;strokeColor=#6c8ebf;" parent="1" vertex="1">
          <mxGeometry x="-1560" y="305" width="120" height="60" as="geometry" />
        </mxCell>
        <mxCell id="QQEnkS8oLGYEb6HzyKzU-22" style="edgeStyle=orthogonalEdgeStyle;rounded=0;orthogonalLoop=1;jettySize=auto;html=1;exitX=0.5;exitY=1;exitDx=0;exitDy=0;entryX=0.5;entryY=0;entryDx=0;entryDy=0;" parent="1" source="QQEnkS8oLGYEb6HzyKzU-19" target="QQEnkS8oLGYEb6HzyKzU-21" edge="1">
          <mxGeometry relative="1" as="geometry" />
        </mxCell>
        <mxCell id="QQEnkS8oLGYEb6HzyKzU-19" value="Atualizar conta" style="rounded=1;whiteSpace=wrap;html=1;fillColor=#dae8fc;strokeColor=#6c8ebf;" parent="1" vertex="1">
          <mxGeometry x="-1560" y="385" width="120" height="60" as="geometry" />
        </mxCell>
        <mxCell id="QQEnkS8oLGYEb6HzyKzU-24" style="edgeStyle=orthogonalEdgeStyle;rounded=1;orthogonalLoop=1;jettySize=auto;html=1;exitX=1;exitY=0.5;exitDx=0;exitDy=0;entryX=0.5;entryY=0;entryDx=0;entryDy=0;curved=0;" parent="1" source="QQEnkS8oLGYEb6HzyKzU-21" target="QQEnkS8oLGYEb6HzyKzU-23" edge="1">
          <mxGeometry relative="1" as="geometry" />
        </mxCell>
        <mxCell id="QQEnkS8oLGYEb6HzyKzU-27" value="NÃO" style="edgeLabel;html=1;align=center;verticalAlign=middle;resizable=0;points=[];" parent="QQEnkS8oLGYEb6HzyKzU-24" vertex="1" connectable="0">
          <mxGeometry x="-0.1861" y="-2" relative="1" as="geometry">
            <mxPoint as="offset" />
          </mxGeometry>
        </mxCell>
        <mxCell id="QQEnkS8oLGYEb6HzyKzU-56" value="" style="edgeStyle=orthogonalEdgeStyle;rounded=0;orthogonalLoop=1;jettySize=auto;html=1;" parent="1" source="QQEnkS8oLGYEb6HzyKzU-21" target="QQEnkS8oLGYEb6HzyKzU-43" edge="1">
          <mxGeometry relative="1" as="geometry" />
        </mxCell>
        <mxCell id="QQEnkS8oLGYEb6HzyKzU-57" value="SIM" style="edgeLabel;html=1;align=center;verticalAlign=middle;resizable=0;points=[];" parent="QQEnkS8oLGYEb6HzyKzU-56" vertex="1" connectable="0">
          <mxGeometry x="-0.0317" y="1" relative="1" as="geometry">
            <mxPoint as="offset" />
          </mxGeometry>
        </mxCell>
        <mxCell id="QQEnkS8oLGYEb6HzyKzU-21" value="Possui&amp;nbsp;&lt;div&gt;conta?&lt;/div&gt;" style="rhombus;whiteSpace=wrap;html=1;rounded=0;fillColor=#d5e8d4;strokeColor=#82b366;" parent="1" vertex="1">
          <mxGeometry x="-1540" y="465" width="80" height="80" as="geometry" />
        </mxCell>
        <mxCell id="QQEnkS8oLGYEb6HzyKzU-23" value="FIM" style="ellipse;whiteSpace=wrap;html=1;fontStyle=0;fillColor=#f8cecc;strokeColor=#b85450;rounded=1;labelBackgroundColor=none;labelBorderColor=none;textShadow=0;" parent="1" vertex="1">
          <mxGeometry x="-1380" y="810" width="130" height="80" as="geometry" />
        </mxCell>
        <mxCell id="QQEnkS8oLGYEb6HzyKzU-25" style="edgeStyle=orthogonalEdgeStyle;rounded=0;orthogonalLoop=1;jettySize=auto;html=1;exitX=0.5;exitY=1;exitDx=0;exitDy=0;" parent="1" edge="1">
          <mxGeometry relative="1" as="geometry">
            <mxPoint x="-650" y="435" as="sourcePoint" />
            <mxPoint x="-650" y="435" as="targetPoint" />
          </mxGeometry>
        </mxCell>
        <mxCell id="QQEnkS8oLGYEb6HzyKzU-28" value="Inerir senha" style="rounded=1;whiteSpace=wrap;html=1;fillColor=#dae8fc;strokeColor=#6c8ebf;" parent="1" vertex="1">
          <mxGeometry x="-710" y="760" width="120" height="60" as="geometry" />
        </mxCell>
        <mxCell id="QQEnkS8oLGYEb6HzyKzU-38" value="" style="edgeStyle=orthogonalEdgeStyle;rounded=1;orthogonalLoop=1;jettySize=auto;html=1;curved=0;" parent="1" source="QQEnkS8oLGYEb6HzyKzU-29" target="QQEnkS8oLGYEb6HzyKzU-30" edge="1">
          <mxGeometry relative="1" as="geometry" />
        </mxCell>
        <mxCell id="QQEnkS8oLGYEb6HzyKzU-42" value="NÃO" style="edgeLabel;html=1;align=center;verticalAlign=middle;resizable=0;points=[];" parent="QQEnkS8oLGYEb6HzyKzU-38" vertex="1" connectable="0">
          <mxGeometry x="-0.0908" y="3" relative="1" as="geometry">
            <mxPoint y="-3" as="offset" />
          </mxGeometry>
        </mxCell>
        <mxCell id="lxdEsuAKqhO_L1pSiuFA-748" value="SIM" style="edgeStyle=orthogonalEdgeStyle;rounded=0;orthogonalLoop=1;jettySize=auto;html=1;exitX=1;exitY=0.5;exitDx=0;exitDy=0;entryX=0;entryY=0.5;entryDx=0;entryDy=0;" parent="1" source="QQEnkS8oLGYEb6HzyKzU-29" target="4b1C1h9-l_e4xWgccLD7-182" edge="1">
          <mxGeometry relative="1" as="geometry" />
        </mxCell>
        <mxCell id="QQEnkS8oLGYEb6HzyKzU-29" value="&lt;span style=&quot;font-size: 11px;&quot;&gt;Senha&lt;/span&gt;&lt;div&gt;&lt;span style=&quot;font-size: 11px;&quot;&gt;válida?&lt;/span&gt;&lt;/div&gt;" style="rhombus;whiteSpace=wrap;html=1;rounded=0;fillColor=#d5e8d4;strokeColor=#82b366;" parent="1" vertex="1">
          <mxGeometry x="-690" y="950" width="80" height="80" as="geometry" />
        </mxCell>
        <mxCell id="lxdEsuAKqhO_L1pSiuFA-747" style="edgeStyle=orthogonalEdgeStyle;rounded=1;orthogonalLoop=1;jettySize=auto;html=1;exitX=0.5;exitY=0;exitDx=0;exitDy=0;entryX=0;entryY=0.5;entryDx=0;entryDy=0;curved=0;" parent="1" source="QQEnkS8oLGYEb6HzyKzU-30" target="QQEnkS8oLGYEb6HzyKzU-28" edge="1">
          <mxGeometry relative="1" as="geometry" />
        </mxCell>
        <mxCell id="QQEnkS8oLGYEb6HzyKzU-30" value="Mensagem de ERRO" style="rounded=1;whiteSpace=wrap;html=1;fillColor=#fff2cc;strokeColor=#d6b656;" parent="1" vertex="1">
          <mxGeometry x="-870" y="860" width="120" height="60" as="geometry" />
        </mxCell>
        <mxCell id="lxdEsuAKqhO_L1pSiuFA-725" style="edgeStyle=orthogonalEdgeStyle;rounded=0;orthogonalLoop=1;jettySize=auto;html=1;exitX=0.5;exitY=1;exitDx=0;exitDy=0;" parent="1" source="QQEnkS8oLGYEb6HzyKzU-43" target="lxdEsuAKqhO_L1pSiuFA-724" edge="1">
          <mxGeometry relative="1" as="geometry" />
        </mxCell>
        <mxCell id="QQEnkS8oLGYEb6HzyKzU-43" value="Inserir E-MAIL" style="rounded=1;whiteSpace=wrap;html=1;fillColor=#dae8fc;strokeColor=#6c8ebf;" parent="1" vertex="1">
          <mxGeometry x="-1750" y="475" width="120" height="60" as="geometry" />
        </mxCell>
        <mxCell id="QQEnkS8oLGYEb6HzyKzU-59" value="" style="edgeStyle=orthogonalEdgeStyle;rounded=0;orthogonalLoop=1;jettySize=auto;html=1;" parent="1" source="QQEnkS8oLGYEb6HzyKzU-44" target="QQEnkS8oLGYEb6HzyKzU-45" edge="1">
          <mxGeometry relative="1" as="geometry" />
        </mxCell>
        <mxCell id="QQEnkS8oLGYEb6HzyKzU-60" value="NÃO" style="edgeLabel;html=1;align=center;verticalAlign=middle;resizable=0;points=[];" parent="QQEnkS8oLGYEb6HzyKzU-59" vertex="1" connectable="0">
          <mxGeometry x="-0.3" y="-1" relative="1" as="geometry">
            <mxPoint x="-9" y="1" as="offset" />
          </mxGeometry>
        </mxCell>
        <mxCell id="QQEnkS8oLGYEb6HzyKzU-64" style="edgeStyle=orthogonalEdgeStyle;rounded=0;orthogonalLoop=1;jettySize=auto;html=1;exitX=0.5;exitY=1;exitDx=0;exitDy=0;entryX=0.5;entryY=0;entryDx=0;entryDy=0;" parent="1" source="QQEnkS8oLGYEb6HzyKzU-44" target="QQEnkS8oLGYEb6HzyKzU-46" edge="1">
          <mxGeometry relative="1" as="geometry" />
        </mxCell>
        <mxCell id="QQEnkS8oLGYEb6HzyKzU-65" value="SIM" style="edgeLabel;html=1;align=center;verticalAlign=middle;resizable=0;points=[];" parent="QQEnkS8oLGYEb6HzyKzU-64" vertex="1" connectable="0">
          <mxGeometry x="-0.296" relative="1" as="geometry">
            <mxPoint as="offset" />
          </mxGeometry>
        </mxCell>
        <mxCell id="QQEnkS8oLGYEb6HzyKzU-44" value="E-MAIL&lt;div&gt;válido?&lt;/div&gt;" style="rhombus;whiteSpace=wrap;html=1;rounded=0;fillColor=#d5e8d4;strokeColor=#82b366;" parent="1" vertex="1">
          <mxGeometry x="-1730" y="660" width="80" height="80" as="geometry" />
        </mxCell>
        <mxCell id="QQEnkS8oLGYEb6HzyKzU-62" style="edgeStyle=orthogonalEdgeStyle;rounded=1;orthogonalLoop=1;jettySize=auto;html=1;exitX=0.5;exitY=0;exitDx=0;exitDy=0;entryX=0;entryY=0.5;entryDx=0;entryDy=0;curved=0;" parent="1" source="QQEnkS8oLGYEb6HzyKzU-45" target="QQEnkS8oLGYEb6HzyKzU-43" edge="1">
          <mxGeometry relative="1" as="geometry" />
        </mxCell>
        <mxCell id="QQEnkS8oLGYEb6HzyKzU-45" value="Mensagem de ERRO" style="rounded=1;whiteSpace=wrap;html=1;fillColor=#fff2cc;strokeColor=#d6b656;" parent="1" vertex="1">
          <mxGeometry x="-1910" y="670" width="120" height="60" as="geometry" />
        </mxCell>
        <mxCell id="lxdEsuAKqhO_L1pSiuFA-729" style="edgeStyle=orthogonalEdgeStyle;rounded=0;orthogonalLoop=1;jettySize=auto;html=1;exitX=0.5;exitY=1;exitDx=0;exitDy=0;entryX=0.5;entryY=0;entryDx=0;entryDy=0;" parent="1" source="QQEnkS8oLGYEb6HzyKzU-46" target="lxdEsuAKqhO_L1pSiuFA-728" edge="1">
          <mxGeometry relative="1" as="geometry" />
        </mxCell>
        <mxCell id="QQEnkS8oLGYEb6HzyKzU-46" value="Inserir senha" style="rounded=1;whiteSpace=wrap;html=1;fillColor=#dae8fc;strokeColor=#6c8ebf;" parent="1" vertex="1">
          <mxGeometry x="-1750" y="765" width="120" height="60" as="geometry" />
        </mxCell>
        <mxCell id="QQEnkS8oLGYEb6HzyKzU-71" style="edgeStyle=orthogonalEdgeStyle;rounded=1;orthogonalLoop=1;jettySize=auto;html=1;exitX=0.5;exitY=0;exitDx=0;exitDy=0;entryX=0;entryY=0.5;entryDx=0;entryDy=0;curved=0;" parent="1" source="QQEnkS8oLGYEb6HzyKzU-47" target="QQEnkS8oLGYEb6HzyKzU-46" edge="1">
          <mxGeometry relative="1" as="geometry" />
        </mxCell>
        <mxCell id="QQEnkS8oLGYEb6HzyKzU-47" value="Mensagem de ERRO" style="rounded=1;whiteSpace=wrap;html=1;fillColor=#fff2cc;strokeColor=#d6b656;" parent="1" vertex="1">
          <mxGeometry x="-1910" y="855" width="120" height="60" as="geometry" />
        </mxCell>
        <mxCell id="QQEnkS8oLGYEb6HzyKzU-69" value="" style="edgeStyle=orthogonalEdgeStyle;rounded=1;orthogonalLoop=1;jettySize=auto;html=1;curved=0;" parent="1" source="QQEnkS8oLGYEb6HzyKzU-48" target="QQEnkS8oLGYEb6HzyKzU-47" edge="1">
          <mxGeometry relative="1" as="geometry" />
        </mxCell>
        <mxCell id="QQEnkS8oLGYEb6HzyKzU-70" value="NÃO" style="edgeLabel;html=1;align=center;verticalAlign=middle;resizable=0;points=[];" parent="QQEnkS8oLGYEb6HzyKzU-69" vertex="1" connectable="0">
          <mxGeometry x="-0.16" y="-1" relative="1" as="geometry">
            <mxPoint x="30" y="1" as="offset" />
          </mxGeometry>
        </mxCell>
        <mxCell id="lxdEsuAKqhO_L1pSiuFA-732" value="SIM" style="edgeStyle=orthogonalEdgeStyle;rounded=0;orthogonalLoop=1;jettySize=auto;html=1;exitX=0.5;exitY=1;exitDx=0;exitDy=0;" parent="1" source="QQEnkS8oLGYEb6HzyKzU-48" target="QQEnkS8oLGYEb6HzyKzU-55" edge="1">
          <mxGeometry x="0.2632" relative="1" as="geometry">
            <Array as="points">
              <mxPoint x="-1690" y="1010" />
            </Array>
            <mxPoint as="offset" />
          </mxGeometry>
        </mxCell>
        <mxCell id="QQEnkS8oLGYEb6HzyKzU-48" value="&lt;span style=&quot;font-size: 11px;&quot;&gt;Senha&lt;/span&gt;&lt;div&gt;&lt;span style=&quot;font-size: 11px;&quot;&gt;válida?&lt;/span&gt;&lt;/div&gt;" style="rhombus;whiteSpace=wrap;html=1;rounded=0;fillColor=#d5e8d4;strokeColor=#82b366;" parent="1" vertex="1">
          <mxGeometry x="-1730" y="970" width="80" height="80" as="geometry" />
        </mxCell>
        <mxCell id="QQEnkS8oLGYEb6HzyKzU-72" value="" style="edgeStyle=orthogonalEdgeStyle;rounded=0;orthogonalLoop=1;jettySize=auto;html=1;" parent="1" edge="1">
          <mxGeometry relative="1" as="geometry">
            <mxPoint x="-1690" y="920" as="sourcePoint" />
          </mxGeometry>
        </mxCell>
        <mxCell id="QQEnkS8oLGYEb6HzyKzU-73" value="" style="edgeStyle=orthogonalEdgeStyle;rounded=0;orthogonalLoop=1;jettySize=auto;html=1;" parent="1" edge="1">
          <mxGeometry relative="1" as="geometry">
            <mxPoint x="-1790" y="1000" as="targetPoint" />
          </mxGeometry>
        </mxCell>
        <mxCell id="QQEnkS8oLGYEb6HzyKzU-74" value="NÃO" style="edgeLabel;html=1;align=center;verticalAlign=middle;resizable=0;points=[];" parent="QQEnkS8oLGYEb6HzyKzU-73" vertex="1" connectable="0">
          <mxGeometry x="-0.1333" y="-1" relative="1" as="geometry">
            <mxPoint as="offset" />
          </mxGeometry>
        </mxCell>
        <mxCell id="QQEnkS8oLGYEb6HzyKzU-76" style="edgeStyle=orthogonalEdgeStyle;rounded=0;orthogonalLoop=1;jettySize=auto;html=1;exitX=0.5;exitY=1;exitDx=0;exitDy=0;entryX=0.5;entryY=0;entryDx=0;entryDy=0;" parent="1" edge="1">
          <mxGeometry relative="1" as="geometry">
            <mxPoint x="-1690" y="1040" as="sourcePoint" />
          </mxGeometry>
        </mxCell>
        <mxCell id="QQEnkS8oLGYEb6HzyKzU-77" value="SIM" style="edgeLabel;html=1;align=center;verticalAlign=middle;resizable=0;points=[];" parent="QQEnkS8oLGYEb6HzyKzU-76" vertex="1" connectable="0">
          <mxGeometry x="-0.2" relative="1" as="geometry">
            <mxPoint as="offset" />
          </mxGeometry>
        </mxCell>
        <mxCell id="QQEnkS8oLGYEb6HzyKzU-75" style="edgeStyle=orthogonalEdgeStyle;rounded=1;orthogonalLoop=1;jettySize=auto;html=1;exitX=0.5;exitY=0;exitDx=0;exitDy=0;entryX=0;entryY=0.5;entryDx=0;entryDy=0;curved=0;" parent="1" edge="1">
          <mxGeometry relative="1" as="geometry">
            <mxPoint x="-1750" y="890" as="targetPoint" />
          </mxGeometry>
        </mxCell>
        <mxCell id="QQEnkS8oLGYEb6HzyKzU-83" style="edgeStyle=orthogonalEdgeStyle;rounded=1;orthogonalLoop=1;jettySize=auto;html=1;exitX=1;exitY=0.5;exitDx=0;exitDy=0;entryX=0.5;entryY=1;entryDx=0;entryDy=0;curved=0;" parent="1" source="QQEnkS8oLGYEb6HzyKzU-55" target="QQEnkS8oLGYEb6HzyKzU-23" edge="1">
          <mxGeometry relative="1" as="geometry" />
        </mxCell>
        <mxCell id="QQEnkS8oLGYEb6HzyKzU-55" value="Mudar os dados" style="rounded=1;whiteSpace=wrap;html=1;fillColor=#dae8fc;strokeColor=#6c8ebf;" parent="1" vertex="1">
          <mxGeometry x="-1540" y="980" width="120" height="60" as="geometry" />
        </mxCell>
        <mxCell id="QQEnkS8oLGYEb6HzyKzU-85" value="&lt;h1 style=&quot;text-align: justify;&quot;&gt;&lt;font face=&quot;Times New Roman&quot;&gt;&lt;span style=&quot;font-size: 60px; font-weight: 400;&quot;&gt;&lt;i&gt;ATUALIZAR DADOS&lt;/i&gt;&lt;/span&gt;&lt;/font&gt;&lt;/h1&gt;" style="text;html=1;align=center;verticalAlign=middle;resizable=0;points=[];autosize=1;" parent="1" vertex="1">
          <mxGeometry x="-1835" y="-80" width="540" height="120" as="geometry" />
        </mxCell>
        <mxCell id="hFd_SY-1JBbWM3t-39ka-53" value="" style="rounded=0;whiteSpace=wrap;html=1;" parent="1" vertex="1">
          <mxGeometry x="-3030" y="-80" width="920" height="1560" as="geometry" />
        </mxCell>
        <mxCell id="hFd_SY-1JBbWM3t-39ka-54" style="edgeStyle=orthogonalEdgeStyle;rounded=0;orthogonalLoop=1;jettySize=auto;html=1;exitX=0.5;exitY=1;exitDx=0;exitDy=0;entryX=0.5;entryY=0;entryDx=0;entryDy=0;" parent="1" source="hFd_SY-1JBbWM3t-39ka-55" target="hFd_SY-1JBbWM3t-39ka-57" edge="1">
          <mxGeometry relative="1" as="geometry" />
        </mxCell>
        <mxCell id="hFd_SY-1JBbWM3t-39ka-55" value="&lt;span&gt;INÍCIO&lt;/span&gt;" style="ellipse;whiteSpace=wrap;html=1;fillColor=#f8cecc;strokeColor=#b85450;rounded=1;fontStyle=0;" parent="1" vertex="1">
          <mxGeometry x="-2565" y="125" width="130" height="80" as="geometry" />
        </mxCell>
        <mxCell id="hFd_SY-1JBbWM3t-39ka-56" style="edgeStyle=orthogonalEdgeStyle;rounded=0;orthogonalLoop=1;jettySize=auto;html=1;exitX=0.5;exitY=1;exitDx=0;exitDy=0;entryX=0.5;entryY=0;entryDx=0;entryDy=0;" parent="1" source="hFd_SY-1JBbWM3t-39ka-57" target="hFd_SY-1JBbWM3t-39ka-59" edge="1">
          <mxGeometry relative="1" as="geometry" />
        </mxCell>
        <mxCell id="hFd_SY-1JBbWM3t-39ka-57" value="Abrir APP" style="rounded=1;whiteSpace=wrap;html=1;fillColor=#dae8fc;strokeColor=#6c8ebf;" parent="1" vertex="1">
          <mxGeometry x="-2560" y="225" width="120" height="60" as="geometry" />
        </mxCell>
        <mxCell id="hFd_SY-1JBbWM3t-39ka-58" style="edgeStyle=orthogonalEdgeStyle;rounded=0;orthogonalLoop=1;jettySize=auto;html=1;exitX=0.5;exitY=1;exitDx=0;exitDy=0;entryX=0.5;entryY=0;entryDx=0;entryDy=0;" parent="1" source="hFd_SY-1JBbWM3t-39ka-59" target="hFd_SY-1JBbWM3t-39ka-61" edge="1">
          <mxGeometry relative="1" as="geometry" />
        </mxCell>
        <mxCell id="hFd_SY-1JBbWM3t-39ka-59" value="Usuário" style="rounded=1;whiteSpace=wrap;html=1;fillColor=#dae8fc;strokeColor=#6c8ebf;" parent="1" vertex="1">
          <mxGeometry x="-2560" y="305" width="120" height="60" as="geometry" />
        </mxCell>
        <mxCell id="hFd_SY-1JBbWM3t-39ka-60" style="edgeStyle=orthogonalEdgeStyle;rounded=0;orthogonalLoop=1;jettySize=auto;html=1;exitX=0.5;exitY=1;exitDx=0;exitDy=0;entryX=0.5;entryY=0;entryDx=0;entryDy=0;" parent="1" source="hFd_SY-1JBbWM3t-39ka-61" target="hFd_SY-1JBbWM3t-39ka-66" edge="1">
          <mxGeometry relative="1" as="geometry" />
        </mxCell>
        <mxCell id="hFd_SY-1JBbWM3t-39ka-61" value="Visualizar perfil" style="rounded=1;whiteSpace=wrap;html=1;fillColor=#dae8fc;strokeColor=#6c8ebf;" parent="1" vertex="1">
          <mxGeometry x="-2560" y="385" width="120" height="60" as="geometry" />
        </mxCell>
        <mxCell id="hFd_SY-1JBbWM3t-39ka-62" style="edgeStyle=orthogonalEdgeStyle;rounded=1;orthogonalLoop=1;jettySize=auto;html=1;exitX=1;exitY=0.5;exitDx=0;exitDy=0;entryX=0.5;entryY=0;entryDx=0;entryDy=0;curved=0;" parent="1" source="hFd_SY-1JBbWM3t-39ka-66" target="hFd_SY-1JBbWM3t-39ka-67" edge="1">
          <mxGeometry relative="1" as="geometry" />
        </mxCell>
        <mxCell id="hFd_SY-1JBbWM3t-39ka-63" value="NÃO" style="edgeLabel;html=1;align=center;verticalAlign=middle;resizable=0;points=[];" parent="hFd_SY-1JBbWM3t-39ka-62" vertex="1" connectable="0">
          <mxGeometry x="-0.1861" y="-2" relative="1" as="geometry">
            <mxPoint as="offset" />
          </mxGeometry>
        </mxCell>
        <mxCell id="hFd_SY-1JBbWM3t-39ka-64" value="" style="edgeStyle=orthogonalEdgeStyle;rounded=0;orthogonalLoop=1;jettySize=auto;html=1;" parent="1" source="hFd_SY-1JBbWM3t-39ka-66" target="hFd_SY-1JBbWM3t-39ka-69" edge="1">
          <mxGeometry relative="1" as="geometry" />
        </mxCell>
        <mxCell id="hFd_SY-1JBbWM3t-39ka-65" value="SIM" style="edgeLabel;html=1;align=center;verticalAlign=middle;resizable=0;points=[];" parent="hFd_SY-1JBbWM3t-39ka-64" vertex="1" connectable="0">
          <mxGeometry x="-0.0317" y="1" relative="1" as="geometry">
            <mxPoint as="offset" />
          </mxGeometry>
        </mxCell>
        <mxCell id="hFd_SY-1JBbWM3t-39ka-66" value="Possui&amp;nbsp;&lt;div&gt;conta?&lt;/div&gt;" style="rhombus;whiteSpace=wrap;html=1;rounded=0;fillColor=#d5e8d4;strokeColor=#82b366;" parent="1" vertex="1">
          <mxGeometry x="-2540" y="465" width="80" height="80" as="geometry" />
        </mxCell>
        <mxCell id="hFd_SY-1JBbWM3t-39ka-67" value="FIM" style="ellipse;whiteSpace=wrap;html=1;fontStyle=0;fillColor=#f8cecc;strokeColor=#b85450;rounded=1;labelBackgroundColor=none;labelBorderColor=none;textShadow=0;" parent="1" vertex="1">
          <mxGeometry x="-2380" y="810" width="130" height="80" as="geometry" />
        </mxCell>
        <mxCell id="lxdEsuAKqhO_L1pSiuFA-713" style="edgeStyle=orthogonalEdgeStyle;rounded=0;orthogonalLoop=1;jettySize=auto;html=1;exitX=0.5;exitY=1;exitDx=0;exitDy=0;entryX=0.5;entryY=0;entryDx=0;entryDy=0;" parent="1" source="hFd_SY-1JBbWM3t-39ka-69" target="lxdEsuAKqhO_L1pSiuFA-711" edge="1">
          <mxGeometry relative="1" as="geometry" />
        </mxCell>
        <mxCell id="hFd_SY-1JBbWM3t-39ka-69" value="Inserir E-MAIL" style="rounded=1;whiteSpace=wrap;html=1;fillColor=#dae8fc;strokeColor=#6c8ebf;" parent="1" vertex="1">
          <mxGeometry x="-2750" y="475" width="120" height="60" as="geometry" />
        </mxCell>
        <mxCell id="hFd_SY-1JBbWM3t-39ka-70" value="" style="edgeStyle=orthogonalEdgeStyle;rounded=0;orthogonalLoop=1;jettySize=auto;html=1;" parent="1" source="hFd_SY-1JBbWM3t-39ka-74" target="hFd_SY-1JBbWM3t-39ka-76" edge="1">
          <mxGeometry relative="1" as="geometry" />
        </mxCell>
        <mxCell id="hFd_SY-1JBbWM3t-39ka-71" value="NÃO" style="edgeLabel;html=1;align=center;verticalAlign=middle;resizable=0;points=[];" parent="hFd_SY-1JBbWM3t-39ka-70" vertex="1" connectable="0">
          <mxGeometry x="-0.3" y="-1" relative="1" as="geometry">
            <mxPoint x="-9" y="1" as="offset" />
          </mxGeometry>
        </mxCell>
        <mxCell id="hFd_SY-1JBbWM3t-39ka-72" style="edgeStyle=orthogonalEdgeStyle;rounded=0;orthogonalLoop=1;jettySize=auto;html=1;exitX=0.5;exitY=1;exitDx=0;exitDy=0;entryX=0.5;entryY=0;entryDx=0;entryDy=0;" parent="1" source="hFd_SY-1JBbWM3t-39ka-74" target="hFd_SY-1JBbWM3t-39ka-78" edge="1">
          <mxGeometry relative="1" as="geometry" />
        </mxCell>
        <mxCell id="hFd_SY-1JBbWM3t-39ka-73" value="SIM" style="edgeLabel;html=1;align=center;verticalAlign=middle;resizable=0;points=[];" parent="hFd_SY-1JBbWM3t-39ka-72" vertex="1" connectable="0">
          <mxGeometry x="-0.296" relative="1" as="geometry">
            <mxPoint as="offset" />
          </mxGeometry>
        </mxCell>
        <mxCell id="hFd_SY-1JBbWM3t-39ka-74" value="E-MAIL&lt;div&gt;válido?&lt;/div&gt;" style="rhombus;whiteSpace=wrap;html=1;rounded=0;fillColor=#d5e8d4;strokeColor=#82b366;" parent="1" vertex="1">
          <mxGeometry x="-2730" y="662.5" width="80" height="80" as="geometry" />
        </mxCell>
        <mxCell id="hFd_SY-1JBbWM3t-39ka-75" style="edgeStyle=orthogonalEdgeStyle;rounded=1;orthogonalLoop=1;jettySize=auto;html=1;exitX=0.5;exitY=0;exitDx=0;exitDy=0;entryX=0;entryY=0.5;entryDx=0;entryDy=0;curved=0;" parent="1" source="hFd_SY-1JBbWM3t-39ka-76" target="hFd_SY-1JBbWM3t-39ka-69" edge="1">
          <mxGeometry relative="1" as="geometry" />
        </mxCell>
        <mxCell id="hFd_SY-1JBbWM3t-39ka-76" value="Mensagem de ERRO" style="rounded=1;whiteSpace=wrap;html=1;fillColor=#fff2cc;strokeColor=#d6b656;" parent="1" vertex="1">
          <mxGeometry x="-2910" y="672.5" width="120" height="60" as="geometry" />
        </mxCell>
        <mxCell id="lxdEsuAKqhO_L1pSiuFA-718" style="edgeStyle=orthogonalEdgeStyle;rounded=0;orthogonalLoop=1;jettySize=auto;html=1;exitX=0.5;exitY=1;exitDx=0;exitDy=0;entryX=0.5;entryY=0;entryDx=0;entryDy=0;" parent="1" source="hFd_SY-1JBbWM3t-39ka-78" target="lxdEsuAKqhO_L1pSiuFA-717" edge="1">
          <mxGeometry relative="1" as="geometry" />
        </mxCell>
        <mxCell id="hFd_SY-1JBbWM3t-39ka-78" value="Inerir senha" style="rounded=1;whiteSpace=wrap;html=1;fillColor=#dae8fc;strokeColor=#6c8ebf;" parent="1" vertex="1">
          <mxGeometry x="-2750" y="767.5" width="120" height="60" as="geometry" />
        </mxCell>
        <mxCell id="hFd_SY-1JBbWM3t-39ka-79" style="edgeStyle=orthogonalEdgeStyle;rounded=1;orthogonalLoop=1;jettySize=auto;html=1;exitX=0.5;exitY=0;exitDx=0;exitDy=0;entryX=0;entryY=0.5;entryDx=0;entryDy=0;curved=0;" parent="1" source="hFd_SY-1JBbWM3t-39ka-80" target="hFd_SY-1JBbWM3t-39ka-78" edge="1">
          <mxGeometry relative="1" as="geometry" />
        </mxCell>
        <mxCell id="hFd_SY-1JBbWM3t-39ka-80" value="Mensagem de ERRO" style="rounded=1;whiteSpace=wrap;html=1;fillColor=#fff2cc;strokeColor=#d6b656;" parent="1" vertex="1">
          <mxGeometry x="-2910" y="857.5" width="120" height="60" as="geometry" />
        </mxCell>
        <mxCell id="hFd_SY-1JBbWM3t-39ka-83" value="" style="edgeStyle=orthogonalEdgeStyle;rounded=1;orthogonalLoop=1;jettySize=auto;html=1;curved=0;" parent="1" source="hFd_SY-1JBbWM3t-39ka-85" target="hFd_SY-1JBbWM3t-39ka-80" edge="1">
          <mxGeometry relative="1" as="geometry" />
        </mxCell>
        <mxCell id="hFd_SY-1JBbWM3t-39ka-84" value="NÃO" style="edgeLabel;html=1;align=center;verticalAlign=middle;resizable=0;points=[];" parent="hFd_SY-1JBbWM3t-39ka-83" vertex="1" connectable="0">
          <mxGeometry x="-0.16" y="-1" relative="1" as="geometry">
            <mxPoint as="offset" />
          </mxGeometry>
        </mxCell>
        <mxCell id="lxdEsuAKqhO_L1pSiuFA-721" value="SIM" style="edgeStyle=orthogonalEdgeStyle;rounded=0;orthogonalLoop=1;jettySize=auto;html=1;exitX=1;exitY=0.5;exitDx=0;exitDy=0;entryX=0;entryY=0.5;entryDx=0;entryDy=0;" parent="1" source="hFd_SY-1JBbWM3t-39ka-85" target="hFd_SY-1JBbWM3t-39ka-103" edge="1">
          <mxGeometry x="-0.0588" relative="1" as="geometry">
            <Array as="points" />
            <mxPoint as="offset" />
          </mxGeometry>
        </mxCell>
        <mxCell id="hFd_SY-1JBbWM3t-39ka-85" value="&lt;span style=&quot;font-size: 11px;&quot;&gt;Senha&lt;/span&gt;&lt;div&gt;&lt;span style=&quot;font-size: 11px;&quot;&gt;válida?&lt;/span&gt;&lt;/div&gt;" style="rhombus;whiteSpace=wrap;html=1;rounded=0;fillColor=#d5e8d4;strokeColor=#82b366;" parent="1" vertex="1">
          <mxGeometry x="-2730" y="960" width="80" height="80" as="geometry" />
        </mxCell>
        <mxCell id="hFd_SY-1JBbWM3t-39ka-102" style="edgeStyle=orthogonalEdgeStyle;rounded=1;orthogonalLoop=1;jettySize=auto;html=1;exitX=1;exitY=0.5;exitDx=0;exitDy=0;entryX=0.5;entryY=1;entryDx=0;entryDy=0;curved=0;" parent="1" source="hFd_SY-1JBbWM3t-39ka-103" target="hFd_SY-1JBbWM3t-39ka-67" edge="1">
          <mxGeometry relative="1" as="geometry" />
        </mxCell>
        <mxCell id="hFd_SY-1JBbWM3t-39ka-103" value="Visualizar perfil" style="rounded=1;whiteSpace=wrap;html=1;fillColor=#dae8fc;strokeColor=#6c8ebf;" parent="1" vertex="1">
          <mxGeometry x="-2565" y="970" width="120" height="60" as="geometry" />
        </mxCell>
        <mxCell id="hFd_SY-1JBbWM3t-39ka-104" value="&lt;h1 style=&quot;text-align: justify;&quot;&gt;&lt;font face=&quot;Times New Roman&quot;&gt;&lt;span style=&quot;font-size: 60px; font-weight: 400;&quot;&gt;&lt;i&gt;VISUALIZAR PERFIL&lt;/i&gt;&lt;/span&gt;&lt;/font&gt;&lt;/h1&gt;" style="text;html=1;align=center;verticalAlign=middle;resizable=0;points=[];autosize=1;" parent="1" vertex="1">
          <mxGeometry x="-2850" y="-80" width="570" height="120" as="geometry" />
        </mxCell>
        <mxCell id="hFd_SY-1JBbWM3t-39ka-135" style="edgeStyle=orthogonalEdgeStyle;rounded=0;orthogonalLoop=1;jettySize=auto;html=1;exitX=0.5;exitY=1;exitDx=0;exitDy=0;" parent="1" source="hFd_SY-1JBbWM3t-39ka-106" target="hFd_SY-1JBbWM3t-39ka-109" edge="1">
          <mxGeometry relative="1" as="geometry" />
        </mxCell>
        <mxCell id="hFd_SY-1JBbWM3t-39ka-106" value="INÍCIO" style="ellipse;whiteSpace=wrap;html=1;fillColor=#f8cecc;strokeColor=#b85450;" parent="1" vertex="1">
          <mxGeometry x="-2640" y="1965" width="120" height="80" as="geometry" />
        </mxCell>
        <mxCell id="hFd_SY-1JBbWM3t-39ka-107" value="NÃO" style="edgeStyle=orthogonalEdgeStyle;rounded=0;orthogonalLoop=1;jettySize=auto;html=1;" parent="1" source="hFd_SY-1JBbWM3t-39ka-109" target="hFd_SY-1JBbWM3t-39ka-111" edge="1">
          <mxGeometry x="-0.2" relative="1" as="geometry">
            <mxPoint as="offset" />
          </mxGeometry>
        </mxCell>
        <mxCell id="hFd_SY-1JBbWM3t-39ka-136" style="edgeStyle=orthogonalEdgeStyle;rounded=0;orthogonalLoop=1;jettySize=auto;html=1;exitX=0;exitY=0.5;exitDx=0;exitDy=0;entryX=1;entryY=0.5;entryDx=0;entryDy=0;" parent="1" source="hFd_SY-1JBbWM3t-39ka-109" target="hFd_SY-1JBbWM3t-39ka-113" edge="1">
          <mxGeometry relative="1" as="geometry" />
        </mxCell>
        <mxCell id="hFd_SY-1JBbWM3t-39ka-137" value="SIM" style="edgeLabel;html=1;align=center;verticalAlign=middle;resizable=0;points=[];" parent="hFd_SY-1JBbWM3t-39ka-136" vertex="1" connectable="0">
          <mxGeometry x="-0.2333" y="-1" relative="1" as="geometry">
            <mxPoint y="1" as="offset" />
          </mxGeometry>
        </mxCell>
        <mxCell id="hFd_SY-1JBbWM3t-39ka-109" value="chegada de&lt;div&gt;produto&lt;/div&gt;" style="rhombus;whiteSpace=wrap;html=1;fillColor=#d5e8d4;strokeColor=#82b366;" parent="1" vertex="1">
          <mxGeometry x="-2620" y="2065" width="80" height="80" as="geometry" />
        </mxCell>
        <mxCell id="hFd_SY-1JBbWM3t-39ka-138" style="edgeStyle=orthogonalEdgeStyle;rounded=0;orthogonalLoop=1;jettySize=auto;html=1;exitX=0.5;exitY=1;exitDx=0;exitDy=0;" parent="1" source="hFd_SY-1JBbWM3t-39ka-111" target="hFd_SY-1JBbWM3t-39ka-128" edge="1">
          <mxGeometry relative="1" as="geometry" />
        </mxCell>
        <mxCell id="hFd_SY-1JBbWM3t-39ka-111" value="Saida de produto" style="rounded=1;whiteSpace=wrap;html=1;fillColor=#dae8fc;strokeColor=#6c8ebf;" parent="1" vertex="1">
          <mxGeometry x="-2500" y="2075" width="120" height="60" as="geometry" />
        </mxCell>
        <mxCell id="hFd_SY-1JBbWM3t-39ka-112" value="" style="edgeStyle=orthogonalEdgeStyle;rounded=0;orthogonalLoop=1;jettySize=auto;html=1;" parent="1" source="hFd_SY-1JBbWM3t-39ka-113" target="hFd_SY-1JBbWM3t-39ka-116" edge="1">
          <mxGeometry relative="1" as="geometry" />
        </mxCell>
        <mxCell id="hFd_SY-1JBbWM3t-39ka-113" value="Entrada de produto" style="rounded=1;whiteSpace=wrap;html=1;fillColor=#dae8fc;strokeColor=#6c8ebf;" parent="1" vertex="1">
          <mxGeometry x="-2780" y="2075" width="120" height="60" as="geometry" />
        </mxCell>
        <mxCell id="hFd_SY-1JBbWM3t-39ka-115" value="SIM" style="edgeStyle=orthogonalEdgeStyle;rounded=0;orthogonalLoop=1;jettySize=auto;html=1;" parent="1" source="hFd_SY-1JBbWM3t-39ka-116" target="hFd_SY-1JBbWM3t-39ka-120" edge="1">
          <mxGeometry relative="1" as="geometry">
            <mxPoint as="offset" />
          </mxGeometry>
        </mxCell>
        <mxCell id="hFd_SY-1JBbWM3t-39ka-140" style="edgeStyle=orthogonalEdgeStyle;rounded=0;orthogonalLoop=1;jettySize=auto;html=1;exitX=0;exitY=0.5;exitDx=0;exitDy=0;entryX=1;entryY=0.5;entryDx=0;entryDy=0;" parent="1" source="hFd_SY-1JBbWM3t-39ka-116" target="hFd_SY-1JBbWM3t-39ka-118" edge="1">
          <mxGeometry relative="1" as="geometry" />
        </mxCell>
        <mxCell id="hFd_SY-1JBbWM3t-39ka-141" value="NÃO" style="edgeLabel;html=1;align=center;verticalAlign=middle;resizable=0;points=[];" parent="hFd_SY-1JBbWM3t-39ka-140" vertex="1" connectable="0">
          <mxGeometry x="-0.103" relative="1" as="geometry">
            <mxPoint as="offset" />
          </mxGeometry>
        </mxCell>
        <mxCell id="hFd_SY-1JBbWM3t-39ka-116" value="Dados&lt;div&gt;validos?&lt;/div&gt;" style="rhombus;whiteSpace=wrap;html=1;fillColor=#d5e8d4;strokeColor=#82b366;" parent="1" vertex="1">
          <mxGeometry x="-2760" y="2165" width="80" height="80" as="geometry" />
        </mxCell>
        <mxCell id="hFd_SY-1JBbWM3t-39ka-117" style="edgeStyle=orthogonalEdgeStyle;rounded=1;orthogonalLoop=1;jettySize=auto;html=1;exitX=0.5;exitY=0;exitDx=0;exitDy=0;entryX=0;entryY=0.5;entryDx=0;entryDy=0;curved=0;" parent="1" source="hFd_SY-1JBbWM3t-39ka-118" target="hFd_SY-1JBbWM3t-39ka-113" edge="1">
          <mxGeometry relative="1" as="geometry" />
        </mxCell>
        <mxCell id="hFd_SY-1JBbWM3t-39ka-118" value="Mostrar erro" style="rounded=1;whiteSpace=wrap;html=1;fillColor=#fff2cc;strokeColor=#d6b656;" parent="1" vertex="1">
          <mxGeometry x="-2935" y="2175" width="120" height="60" as="geometry" />
        </mxCell>
        <mxCell id="lxdEsuAKqhO_L1pSiuFA-787" style="edgeStyle=orthogonalEdgeStyle;rounded=0;orthogonalLoop=1;jettySize=auto;html=1;exitX=0.5;exitY=1;exitDx=0;exitDy=0;" parent="1" source="hFd_SY-1JBbWM3t-39ka-120" target="lxdEsuAKqhO_L1pSiuFA-785" edge="1">
          <mxGeometry relative="1" as="geometry" />
        </mxCell>
        <mxCell id="hFd_SY-1JBbWM3t-39ka-120" value="Agregar ao estoque" style="rounded=1;whiteSpace=wrap;html=1;fillColor=#dae8fc;strokeColor=#6c8ebf;" parent="1" vertex="1">
          <mxGeometry x="-2780" y="2275" width="120" height="60" as="geometry" />
        </mxCell>
        <mxCell id="hFd_SY-1JBbWM3t-39ka-121" value="" style="edgeStyle=orthogonalEdgeStyle;rounded=0;orthogonalLoop=1;jettySize=auto;html=1;" parent="1" source="hFd_SY-1JBbWM3t-39ka-122" target="hFd_SY-1JBbWM3t-39ka-124" edge="1">
          <mxGeometry relative="1" as="geometry" />
        </mxCell>
        <mxCell id="hFd_SY-1JBbWM3t-39ka-122" value="Fazer listagem" style="rounded=1;whiteSpace=wrap;html=1;fillColor=#dae8fc;strokeColor=#6c8ebf;" parent="1" vertex="1">
          <mxGeometry x="-2640" y="2425" width="120" height="60" as="geometry" />
        </mxCell>
        <mxCell id="hFd_SY-1JBbWM3t-39ka-123" value="" style="edgeStyle=orthogonalEdgeStyle;rounded=0;orthogonalLoop=1;jettySize=auto;html=1;" parent="1" source="hFd_SY-1JBbWM3t-39ka-124" target="hFd_SY-1JBbWM3t-39ka-125" edge="1">
          <mxGeometry relative="1" as="geometry" />
        </mxCell>
        <mxCell id="hFd_SY-1JBbWM3t-39ka-124" value="Mostrar sucesso!" style="rounded=1;whiteSpace=wrap;html=1;fillColor=#dae8fc;strokeColor=#6c8ebf;" parent="1" vertex="1">
          <mxGeometry x="-2640" y="2535" width="120" height="60" as="geometry" />
        </mxCell>
        <mxCell id="hFd_SY-1JBbWM3t-39ka-125" value="FIM" style="ellipse;whiteSpace=wrap;html=1;fillColor=#f8cecc;strokeColor=#b85450;" parent="1" vertex="1">
          <mxGeometry x="-2640" y="2635" width="120" height="80" as="geometry" />
        </mxCell>
        <mxCell id="hFd_SY-1JBbWM3t-39ka-126" value="NÃO" style="edgeStyle=orthogonalEdgeStyle;rounded=0;orthogonalLoop=1;jettySize=auto;html=1;" parent="1" source="hFd_SY-1JBbWM3t-39ka-128" target="hFd_SY-1JBbWM3t-39ka-130" edge="1">
          <mxGeometry relative="1" as="geometry" />
        </mxCell>
        <mxCell id="hFd_SY-1JBbWM3t-39ka-127" value="" style="edgeStyle=orthogonalEdgeStyle;rounded=0;orthogonalLoop=1;jettySize=auto;html=1;" parent="1" source="hFd_SY-1JBbWM3t-39ka-128" target="hFd_SY-1JBbWM3t-39ka-132" edge="1">
          <mxGeometry relative="1" as="geometry" />
        </mxCell>
        <mxCell id="hFd_SY-1JBbWM3t-39ka-139" value="SIM" style="edgeLabel;html=1;align=center;verticalAlign=middle;resizable=0;points=[];" parent="hFd_SY-1JBbWM3t-39ka-127" vertex="1" connectable="0">
          <mxGeometry x="-0.1583" y="-1" relative="1" as="geometry">
            <mxPoint as="offset" />
          </mxGeometry>
        </mxCell>
        <mxCell id="hFd_SY-1JBbWM3t-39ka-128" value="Dados validos?" style="rhombus;whiteSpace=wrap;html=1;fillColor=#d5e8d4;strokeColor=#82b366;" parent="1" vertex="1">
          <mxGeometry x="-2480" y="2165" width="80" height="80" as="geometry" />
        </mxCell>
        <mxCell id="hFd_SY-1JBbWM3t-39ka-129" style="edgeStyle=orthogonalEdgeStyle;rounded=1;orthogonalLoop=1;jettySize=auto;html=1;exitX=0.5;exitY=0;exitDx=0;exitDy=0;entryX=1;entryY=0.25;entryDx=0;entryDy=0;curved=0;" parent="1" source="hFd_SY-1JBbWM3t-39ka-130" target="hFd_SY-1JBbWM3t-39ka-111" edge="1">
          <mxGeometry relative="1" as="geometry" />
        </mxCell>
        <mxCell id="hFd_SY-1JBbWM3t-39ka-130" value="Mostrar erro" style="rounded=1;whiteSpace=wrap;html=1;fillColor=#fff2cc;strokeColor=#d6b656;" parent="1" vertex="1">
          <mxGeometry x="-2345" y="2175" width="120" height="60" as="geometry" />
        </mxCell>
        <mxCell id="lxdEsuAKqhO_L1pSiuFA-789" style="edgeStyle=orthogonalEdgeStyle;rounded=0;orthogonalLoop=1;jettySize=auto;html=1;exitX=0.5;exitY=1;exitDx=0;exitDy=0;entryX=0.5;entryY=0;entryDx=0;entryDy=0;" parent="1" source="hFd_SY-1JBbWM3t-39ka-132" target="lxdEsuAKqhO_L1pSiuFA-786" edge="1">
          <mxGeometry relative="1" as="geometry" />
        </mxCell>
        <mxCell id="hFd_SY-1JBbWM3t-39ka-132" value="Preparar para a entrega" style="rounded=1;whiteSpace=wrap;html=1;fillColor=#dae8fc;strokeColor=#6c8ebf;" parent="1" vertex="1">
          <mxGeometry x="-2500" y="2275" width="120" height="60" as="geometry" />
        </mxCell>
        <mxCell id="hFd_SY-1JBbWM3t-39ka-134" value="&lt;h1 style=&quot;text-align: justify;&quot;&gt;&lt;font face=&quot;Times New Roman&quot;&gt;&lt;span style=&quot;font-size: 60px; font-weight: 400;&quot;&gt;&lt;i&gt;CONTROLE DE ESTOQUE&lt;/i&gt;&lt;/span&gt;&lt;/font&gt;&lt;/h1&gt;" style="text;html=1;align=center;verticalAlign=middle;resizable=0;points=[];autosize=1;" parent="1" vertex="1">
          <mxGeometry x="-2935" y="1560" width="710" height="120" as="geometry" />
        </mxCell>
        <mxCell id="hFd_SY-1JBbWM3t-39ka-144" value="" style="rounded=0;whiteSpace=wrap;html=1;" parent="1" vertex="1">
          <mxGeometry x="-2040" y="1552.5" width="920" height="1560" as="geometry" />
        </mxCell>
        <mxCell id="hFd_SY-1JBbWM3t-39ka-146" value="&lt;span style=&quot;color: rgba(0, 0, 0, 0); font-family: monospace; font-size: 0px; text-align: start; text-wrap: nowrap;&quot;&gt;%3CmxGraphModel%3E%3Croot%3E%3CmxCell%20id%3D%220%22%2F%3E%3CmxCell%20id%3D%221%22%20parent%3D%220%22%2F%3E%3CmxCell%20id%3D%222%22%20value%3D%22%22%20style%3D%22edgeStyle%3DorthogonalEdgeStyle%3Brounded%3D0%3BorthogonalLoop%3D1%3BjettySize%3Dauto%3Bhtml%3D1%3B%22%20edge%3D%221%22%20source%3D%223%22%20target%3D%225%22%20parent%3D%221%22%3E%3CmxGeometry%20relative%3D%221%22%20as%3D%22geometry%22%2F%3E%3C%2FmxCell%3E%3CmxCell%20id%3D%223%22%20value%3D%22IN%C3%8DCIO%22%20style%3D%22ellipse%3BwhiteSpace%3Dwrap%3Bhtml%3D1%3B%22%20vertex%3D%221%22%20parent%3D%221%22%3E%3CmxGeometry%20x%3D%221430%22%20y%3D%22-120%22%20width%3D%22120%22%20height%3D%2280%22%20as%3D%22geometry%22%2F%3E%3C%2FmxCell%3E%3CmxCell%20id%3D%224%22%20value%3D%22%22%20style%3D%22edgeStyle%3DorthogonalEdgeStyle%3Brounded%3D0%3BorthogonalLoop%3D1%3BjettySize%3Dauto%3Bhtml%3D1%3B%22%20edge%3D%221%22%20source%3D%225%22%20target%3D%227%22%20parent%3D%221%22%3E%3CmxGeometry%20relative%3D%221%22%20as%3D%22geometry%22%2F%3E%3C%2FmxCell%3E%3CmxCell%20id%3D%225%22%20value%3D%22Preparar%20materiais%20par%20confec%C3%A7%C3%A3o%22%20style%3D%22rounded%3D1%3BwhiteSpace%3Dwrap%3Bhtml%3D1%3B%22%20vertex%3D%221%22%20parent%3D%221%22%3E%3CmxGeometry%20x%3D%221430%22%20y%3D%2250%22%20width%3D%22120%22%20height%3D%2260%22%20as%3D%22geometry%22%2F%3E%3C%2FmxCell%3E%3CmxCell%20id%3D%226%22%20value%3D%22%22%20style%3D%22edgeStyle%3DorthogonalEdgeStyle%3Brounded%3D0%3BorthogonalLoop%3D1%3BjettySize%3Dauto%3Bhtml%3D1%3B%22%20edge%3D%221%22%20source%3D%227%22%20target%3D%2210%22%20parent%3D%221%22%3E%3CmxGeometry%20relative%3D%221%22%20as%3D%22geometry%22%2F%3E%3C%2FmxCell%3E%3CmxCell%20id%3D%227%22%20value%3D%22Separar%20materiais%20por%20qualidade%22%20style%3D%22rounded%3D1%3BwhiteSpace%3Dwrap%3Bhtml%3D1%3B%22%20vertex%3D%221%22%20parent%3D%221%22%3E%3CmxGeometry%20x%3D%221430%22%20y%3D%22190%22%20width%3D%22120%22%20height%3D%2260%22%20as%3D%22geometry%22%2F%3E%3C%2FmxCell%3E%3CmxCell%20id%3D%228%22%20value%3D%22sim%22%20style%3D%22edgeStyle%3DorthogonalEdgeStyle%3Brounded%3D0%3BorthogonalLoop%3D1%3BjettySize%3Dauto%3Bhtml%3D1%3B%22%20edge%3D%221%22%20source%3D%2210%22%20target%3D%2212%22%20parent%3D%221%22%3E%3CmxGeometry%20relative%3D%221%22%20as%3D%22geometry%22%2F%3E%3C%2FmxCell%3E%3CmxCell%20id%3D%229%22%20value%3D%22%22%20style%3D%22edgeStyle%3DorthogonalEdgeStyle%3Brounded%3D0%3BorthogonalLoop%3D1%3BjettySize%3Dauto%3Bhtml%3D1%3B%22%20edge%3D%221%22%20source%3D%2210%22%20target%3D%2215%22%20parent%3D%221%22%3E%3CmxGeometry%20relative%3D%221%22%20as%3D%22geometry%22%2F%3E%3C%2FmxCell%3E%3CmxCell%20id%3D%2210%22%20value%3D%22Material%20%C3%A9%20bom%3F%22%20style%3D%22rhombus%3BwhiteSpace%3Dwrap%3Bhtml%3D1%3B%22%20vertex%3D%221%22%20parent%3D%221%22%3E%3CmxGeometry%20x%3D%221450%22%20y%3D%22330%22%20width%3D%2280%22%20height%3D%2280%22%20as%3D%22geometry%22%2F%3E%3C%2FmxCell%3E%3CmxCell%20id%3D%2211%22%20value%3D%22%22%20style%3D%22edgeStyle%3DorthogonalEdgeStyle%3Brounded%3D0%3BorthogonalLoop%3D1%3BjettySize%3Dauto%3Bhtml%3D1%3B%22%20edge%3D%221%22%20source%3D%2212%22%20parent%3D%221%22%3E%3CmxGeometry%20relative%3D%221%22%20as%3D%22geometry%22%3E%3CmxPoint%20x%3D%221490%22%20y%3D%22640%22%20as%3D%22targetPoint%22%2F%3E%3C%2FmxGeometry%3E%3C%2FmxCell%3E%3CmxCell%20id%3D%2212%22%20value%3D%22Enviar%20a%20Area%20de%20confec%C3%A7%C3%A3o%22%20style%3D%22rounded%3D1%3BwhiteSpace%3Dwrap%3Bhtml%3D1%3B%22%20vertex%3D%221%22%20parent%3D%221%22%3E%3CmxGeometry%20x%3D%221430%22%20y%3D%22500%22%20width%3D%22120%22%20height%3D%2260%22%20as%3D%22geometry%22%2F%3E%3C%2FmxCell%3E%3CmxCell%20id%3D%2213%22%20value%3D%22FIM%22%20style%3D%22ellipse%3BwhiteSpace%3Dwrap%3Bhtml%3D1%3B%22%20vertex%3D%221%22%20parent%3D%221%22%3E%3CmxGeometry%20x%3D%221430%22%20y%3D%22640%22%20width%3D%22120%22%20height%3D%2280%22%20as%3D%22geometry%22%2F%3E%3C%2FmxCell%3E%3CmxCell%20id%3D%2214%22%20style%3D%22edgeStyle%3DorthogonalEdgeStyle%3Brounded%3D0%3BorthogonalLoop%3D1%3BjettySize%3Dauto%3Bhtml%3D1%3BexitX%3D0.5%3BexitY%3D1%3BexitDx%3D0%3BexitDy%3D0%3BentryX%3D1%3BentryY%3D0.5%3BentryDx%3D0%3BentryDy%3D0%3B%22%20edge%3D%221%22%20source%3D%2215%22%20target%3D%2213%22%20parent%3D%221%22%3E%3CmxGeometry%20relative%3D%221%22%20as%3D%22geometry%22%2F%3E%3C%2FmxCell%3E%3CmxCell%20id%3D%2215%22%20value%3D%22Enviar%20a%20area%20de%20descarte%22%20style%3D%22rounded%3D1%3BwhiteSpace%3Dwrap%3Bhtml%3D1%3B%22%20vertex%3D%221%22%20parent%3D%221%22%3E%3CmxGeometry%20x%3D%221590%22%20y%3D%22340%22%20width%3D%22120%22%20height%3D%2260%22%20as%3D%22geometry%22%2F%3E%3C%2FmxCell%3E%3C%2Froot%3E%3C%2FmxGraphModel%3E&lt;/span&gt;" style="rounded=0;whiteSpace=wrap;html=1;" parent="1" vertex="1">
          <mxGeometry x="-40" y="1560" width="920" height="1560" as="geometry" />
        </mxCell>
        <mxCell id="hFd_SY-1JBbWM3t-39ka-147" value="" style="rounded=0;whiteSpace=wrap;html=1;" parent="1" vertex="1">
          <mxGeometry x="960" y="1560" width="920" height="1560" as="geometry" />
        </mxCell>
        <mxCell id="hFd_SY-1JBbWM3t-39ka-148" value="" style="rounded=0;whiteSpace=wrap;html=1;" parent="1" vertex="1">
          <mxGeometry x="-1040" y="3200" width="920" height="1560" as="geometry" />
        </mxCell>
        <mxCell id="hFd_SY-1JBbWM3t-39ka-149" value="" style="rounded=0;whiteSpace=wrap;html=1;" parent="1" vertex="1">
          <mxGeometry x="-2040" y="3200" width="920" height="1560" as="geometry" />
        </mxCell>
        <mxCell id="hFd_SY-1JBbWM3t-39ka-150" value="" style="rounded=0;whiteSpace=wrap;html=1;" parent="1" vertex="1">
          <mxGeometry x="-3040" y="3195" width="920" height="1560" as="geometry" />
        </mxCell>
        <mxCell id="hFd_SY-1JBbWM3t-39ka-151" value="" style="edgeStyle=orthogonalEdgeStyle;rounded=0;orthogonalLoop=1;jettySize=auto;html=1;" parent="1" source="hFd_SY-1JBbWM3t-39ka-152" target="hFd_SY-1JBbWM3t-39ka-154" edge="1">
          <mxGeometry relative="1" as="geometry" />
        </mxCell>
        <mxCell id="hFd_SY-1JBbWM3t-39ka-152" value="INÍCIO" style="ellipse;whiteSpace=wrap;html=1;fillColor=#f8cecc;strokeColor=#b85450;" parent="1" vertex="1">
          <mxGeometry x="-1635" y="1947.5" width="120" height="80" as="geometry" />
        </mxCell>
        <mxCell id="lxdEsuAKqhO_L1pSiuFA-795" style="edgeStyle=orthogonalEdgeStyle;rounded=0;orthogonalLoop=1;jettySize=auto;html=1;exitX=0.5;exitY=1;exitDx=0;exitDy=0;entryX=0.5;entryY=0;entryDx=0;entryDy=0;" parent="1" source="hFd_SY-1JBbWM3t-39ka-154" target="lxdEsuAKqhO_L1pSiuFA-794" edge="1">
          <mxGeometry relative="1" as="geometry" />
        </mxCell>
        <mxCell id="hFd_SY-1JBbWM3t-39ka-154" value="Verificação do estoque" style="rounded=1;whiteSpace=wrap;html=1;fillColor=#dae8fc;strokeColor=#6c8ebf;" parent="1" vertex="1">
          <mxGeometry x="-1635" y="2057.5" width="120" height="60" as="geometry" />
        </mxCell>
        <mxCell id="hFd_SY-1JBbWM3t-39ka-155" value="SIM" style="edgeStyle=orthogonalEdgeStyle;rounded=0;orthogonalLoop=1;jettySize=auto;html=1;" parent="1" source="hFd_SY-1JBbWM3t-39ka-157" target="hFd_SY-1JBbWM3t-39ka-159" edge="1">
          <mxGeometry x="0.1111" relative="1" as="geometry">
            <mxPoint as="offset" />
          </mxGeometry>
        </mxCell>
        <mxCell id="hFd_SY-1JBbWM3t-39ka-172" style="edgeStyle=orthogonalEdgeStyle;rounded=1;orthogonalLoop=1;jettySize=auto;html=1;exitX=1;exitY=0.5;exitDx=0;exitDy=0;entryX=1;entryY=0.5;entryDx=0;entryDy=0;curved=0;" parent="1" source="hFd_SY-1JBbWM3t-39ka-157" target="hFd_SY-1JBbWM3t-39ka-162" edge="1">
          <mxGeometry relative="1" as="geometry" />
        </mxCell>
        <mxCell id="hFd_SY-1JBbWM3t-39ka-173" value="NÃO" style="edgeLabel;html=1;align=center;verticalAlign=middle;resizable=0;points=[];" parent="hFd_SY-1JBbWM3t-39ka-172" vertex="1" connectable="0">
          <mxGeometry x="-0.0637" y="1" relative="1" as="geometry">
            <mxPoint y="38" as="offset" />
          </mxGeometry>
        </mxCell>
        <mxCell id="hFd_SY-1JBbWM3t-39ka-157" value="&lt;div&gt;&lt;br&gt;&lt;/div&gt;Materiais em falta?" style="rhombus;whiteSpace=wrap;html=1;fillColor=#d5e8d4;strokeColor=#82b366;" parent="1" vertex="1">
          <mxGeometry x="-1615" y="2245" width="80" height="80" as="geometry" />
        </mxCell>
        <mxCell id="lxdEsuAKqhO_L1pSiuFA-799" style="edgeStyle=orthogonalEdgeStyle;rounded=0;orthogonalLoop=1;jettySize=auto;html=1;exitX=0.5;exitY=1;exitDx=0;exitDy=0;entryX=0.5;entryY=0;entryDx=0;entryDy=0;" parent="1" source="hFd_SY-1JBbWM3t-39ka-159" target="lxdEsuAKqhO_L1pSiuFA-798" edge="1">
          <mxGeometry relative="1" as="geometry" />
        </mxCell>
        <mxCell id="hFd_SY-1JBbWM3t-39ka-159" value="Listar materias" style="rounded=1;whiteSpace=wrap;html=1;fillColor=#dae8fc;strokeColor=#6c8ebf;" parent="1" vertex="1">
          <mxGeometry x="-1635" y="2360" width="120" height="60" as="geometry" />
        </mxCell>
        <mxCell id="lxdEsuAKqhO_L1pSiuFA-804" style="edgeStyle=orthogonalEdgeStyle;rounded=0;orthogonalLoop=1;jettySize=auto;html=1;exitX=0.5;exitY=1;exitDx=0;exitDy=0;entryX=0.5;entryY=0;entryDx=0;entryDy=0;" parent="1" source="hFd_SY-1JBbWM3t-39ka-161" target="lxdEsuAKqhO_L1pSiuFA-803" edge="1">
          <mxGeometry relative="1" as="geometry" />
        </mxCell>
        <mxCell id="hFd_SY-1JBbWM3t-39ka-161" value="fazer encomenda" style="rounded=1;whiteSpace=wrap;html=1;fillColor=#dae8fc;strokeColor=#6c8ebf;" parent="1" vertex="1">
          <mxGeometry x="-1635" y="2567.5" width="120" height="60" as="geometry" />
        </mxCell>
        <mxCell id="hFd_SY-1JBbWM3t-39ka-162" value="FIM" style="ellipse;whiteSpace=wrap;html=1;fillColor=#f8cecc;strokeColor=#b85450;" parent="1" vertex="1">
          <mxGeometry x="-1635" y="2840" width="120" height="80" as="geometry" />
        </mxCell>
        <mxCell id="lxdEsuAKqhO_L1pSiuFA-807" style="edgeStyle=orthogonalEdgeStyle;rounded=0;orthogonalLoop=1;jettySize=auto;html=1;exitX=0.5;exitY=1;exitDx=0;exitDy=0;" parent="1" source="hFd_SY-1JBbWM3t-39ka-164" edge="1">
          <mxGeometry relative="1" as="geometry">
            <mxPoint x="-1575" y="2840" as="targetPoint" />
          </mxGeometry>
        </mxCell>
        <mxCell id="hFd_SY-1JBbWM3t-39ka-164" value="Atualizar estoque" style="rounded=1;whiteSpace=wrap;html=1;fillColor=#dae8fc;strokeColor=#6c8ebf;" parent="1" vertex="1">
          <mxGeometry x="-1635" y="2760" width="120" height="60" as="geometry" />
        </mxCell>
        <mxCell id="hFd_SY-1JBbWM3t-39ka-174" value="&lt;h1 style=&quot;text-align: justify;&quot;&gt;&lt;font face=&quot;Times New Roman&quot;&gt;&lt;span style=&quot;font-size: 60px; font-weight: 400;&quot;&gt;&lt;i&gt;COMPRA DE MATERIAL&lt;/i&gt;&lt;/span&gt;&lt;/font&gt;&lt;/h1&gt;" style="text;html=1;align=center;verticalAlign=middle;resizable=0;points=[];autosize=1;" parent="1" vertex="1">
          <mxGeometry x="-1910" y="1560" width="660" height="120" as="geometry" />
        </mxCell>
        <mxCell id="hFd_SY-1JBbWM3t-39ka-175" value="&lt;h1 style=&quot;text-align: justify;&quot;&gt;&lt;font face=&quot;Times New Roman&quot;&gt;&lt;span style=&quot;font-size: 60px; font-weight: 400;&quot;&gt;&lt;i&gt;ANALIZE DE MATERIAL&lt;/i&gt;&lt;/span&gt;&lt;/font&gt;&lt;/h1&gt;" style="text;html=1;align=center;verticalAlign=middle;resizable=0;points=[];autosize=1;" parent="1" vertex="1">
          <mxGeometry x="-905" y="1560" width="650" height="120" as="geometry" />
        </mxCell>
        <mxCell id="hFd_SY-1JBbWM3t-39ka-176" value="" style="edgeStyle=orthogonalEdgeStyle;rounded=0;orthogonalLoop=1;jettySize=auto;html=1;" parent="1" source="hFd_SY-1JBbWM3t-39ka-177" target="hFd_SY-1JBbWM3t-39ka-179" edge="1">
          <mxGeometry relative="1" as="geometry" />
        </mxCell>
        <mxCell id="hFd_SY-1JBbWM3t-39ka-177" value="INÍCIO" style="ellipse;whiteSpace=wrap;html=1;fillColor=#f8cecc;strokeColor=#b85450;" parent="1" vertex="1">
          <mxGeometry x="-635" y="1964.25" width="120" height="80" as="geometry" />
        </mxCell>
        <mxCell id="lxdEsuAKqhO_L1pSiuFA-781" style="edgeStyle=orthogonalEdgeStyle;rounded=0;orthogonalLoop=1;jettySize=auto;html=1;exitX=0.5;exitY=1;exitDx=0;exitDy=0;" parent="1" source="hFd_SY-1JBbWM3t-39ka-179" target="lxdEsuAKqhO_L1pSiuFA-780" edge="1">
          <mxGeometry relative="1" as="geometry" />
        </mxCell>
        <mxCell id="hFd_SY-1JBbWM3t-39ka-179" value="Adicionar material no estoque" style="rounded=1;whiteSpace=wrap;html=1;fillColor=#dae8fc;strokeColor=#6c8ebf;" parent="1" vertex="1">
          <mxGeometry x="-635" y="2101.75" width="120" height="60" as="geometry" />
        </mxCell>
        <mxCell id="hFd_SY-1JBbWM3t-39ka-180" value="SIM" style="edgeStyle=orthogonalEdgeStyle;rounded=0;orthogonalLoop=1;jettySize=auto;html=1;" parent="1" source="hFd_SY-1JBbWM3t-39ka-182" target="hFd_SY-1JBbWM3t-39ka-183" edge="1">
          <mxGeometry relative="1" as="geometry" />
        </mxCell>
        <mxCell id="hFd_SY-1JBbWM3t-39ka-181" value="NÃO" style="edgeStyle=orthogonalEdgeStyle;rounded=0;orthogonalLoop=1;jettySize=auto;html=1;" parent="1" source="hFd_SY-1JBbWM3t-39ka-182" target="hFd_SY-1JBbWM3t-39ka-185" edge="1">
          <mxGeometry relative="1" as="geometry" />
        </mxCell>
        <mxCell id="hFd_SY-1JBbWM3t-39ka-182" value="Material suficiente?" style="rhombus;whiteSpace=wrap;html=1;fillColor=#d5e8d4;strokeColor=#82b366;" parent="1" vertex="1">
          <mxGeometry x="-615" y="2292.5" width="80" height="80" as="geometry" />
        </mxCell>
        <mxCell id="hFd_SY-1JBbWM3t-39ka-183" value="FIM" style="ellipse;whiteSpace=wrap;html=1;fillColor=#f8cecc;strokeColor=#b85450;" parent="1" vertex="1">
          <mxGeometry x="-635" y="2422.5" width="120" height="80" as="geometry" />
        </mxCell>
        <mxCell id="hFd_SY-1JBbWM3t-39ka-184" style="edgeStyle=orthogonalEdgeStyle;rounded=1;orthogonalLoop=1;jettySize=auto;html=1;exitX=0.5;exitY=1;exitDx=0;exitDy=0;entryX=1;entryY=0.5;entryDx=0;entryDy=0;curved=0;" parent="1" source="hFd_SY-1JBbWM3t-39ka-185" target="hFd_SY-1JBbWM3t-39ka-183" edge="1">
          <mxGeometry relative="1" as="geometry" />
        </mxCell>
        <mxCell id="hFd_SY-1JBbWM3t-39ka-185" value="Retornar ao sistema de compras" style="rounded=1;whiteSpace=wrap;html=1;fillColor=#fff2cc;strokeColor=#d6b656;" parent="1" vertex="1">
          <mxGeometry x="-475" y="2302.5" width="120" height="60" as="geometry" />
        </mxCell>
        <mxCell id="hFd_SY-1JBbWM3t-39ka-186" value="" style="edgeStyle=orthogonalEdgeStyle;rounded=0;orthogonalLoop=1;jettySize=auto;html=1;" parent="1" source="hFd_SY-1JBbWM3t-39ka-187" target="hFd_SY-1JBbWM3t-39ka-189" edge="1">
          <mxGeometry relative="1" as="geometry" />
        </mxCell>
        <mxCell id="hFd_SY-1JBbWM3t-39ka-187" value="INÍCIO" style="ellipse;whiteSpace=wrap;html=1;fillColor=#f8cecc;strokeColor=#b85450;" parent="1" vertex="1">
          <mxGeometry x="350" y="1960" width="120" height="80" as="geometry" />
        </mxCell>
        <mxCell id="hFd_SY-1JBbWM3t-39ka-188" value="" style="edgeStyle=orthogonalEdgeStyle;rounded=0;orthogonalLoop=1;jettySize=auto;html=1;" parent="1" source="hFd_SY-1JBbWM3t-39ka-189" target="hFd_SY-1JBbWM3t-39ka-191" edge="1">
          <mxGeometry relative="1" as="geometry" />
        </mxCell>
        <mxCell id="hFd_SY-1JBbWM3t-39ka-189" value="Preparar materiais par confecção" style="rounded=1;whiteSpace=wrap;html=1;fillColor=#dae8fc;strokeColor=#6c8ebf;" parent="1" vertex="1">
          <mxGeometry x="350" y="2080" width="120" height="60" as="geometry" />
        </mxCell>
        <mxCell id="hFd_SY-1JBbWM3t-39ka-190" value="" style="edgeStyle=orthogonalEdgeStyle;rounded=0;orthogonalLoop=1;jettySize=auto;html=1;" parent="1" source="hFd_SY-1JBbWM3t-39ka-191" target="hFd_SY-1JBbWM3t-39ka-194" edge="1">
          <mxGeometry relative="1" as="geometry" />
        </mxCell>
        <mxCell id="hFd_SY-1JBbWM3t-39ka-191" value="Separar materiais por qualidade" style="rounded=1;whiteSpace=wrap;html=1;fillColor=#dae8fc;strokeColor=#6c8ebf;" parent="1" vertex="1">
          <mxGeometry x="350" y="2167.5" width="120" height="60" as="geometry" />
        </mxCell>
        <mxCell id="hFd_SY-1JBbWM3t-39ka-192" value="SIM" style="edgeStyle=orthogonalEdgeStyle;rounded=0;orthogonalLoop=1;jettySize=auto;html=1;" parent="1" source="hFd_SY-1JBbWM3t-39ka-194" target="hFd_SY-1JBbWM3t-39ka-196" edge="1">
          <mxGeometry x="0.0599" relative="1" as="geometry">
            <mxPoint as="offset" />
          </mxGeometry>
        </mxCell>
        <mxCell id="hFd_SY-1JBbWM3t-39ka-193" value="" style="edgeStyle=orthogonalEdgeStyle;rounded=0;orthogonalLoop=1;jettySize=auto;html=1;" parent="1" source="hFd_SY-1JBbWM3t-39ka-194" target="hFd_SY-1JBbWM3t-39ka-199" edge="1">
          <mxGeometry relative="1" as="geometry" />
        </mxCell>
        <mxCell id="hFd_SY-1JBbWM3t-39ka-201" value="NÃO" style="edgeLabel;html=1;align=center;verticalAlign=middle;resizable=0;points=[];" parent="hFd_SY-1JBbWM3t-39ka-193" vertex="1" connectable="0">
          <mxGeometry x="-0.1944" y="-1" relative="1" as="geometry">
            <mxPoint as="offset" />
          </mxGeometry>
        </mxCell>
        <mxCell id="hFd_SY-1JBbWM3t-39ka-194" value="Material é bom?" style="rhombus;whiteSpace=wrap;html=1;fillColor=#d5e8d4;strokeColor=#82b366;" parent="1" vertex="1">
          <mxGeometry x="370" y="2262.5" width="80" height="80" as="geometry" />
        </mxCell>
        <mxCell id="hFd_SY-1JBbWM3t-39ka-202" style="edgeStyle=orthogonalEdgeStyle;rounded=0;orthogonalLoop=1;jettySize=auto;html=1;exitX=0.5;exitY=1;exitDx=0;exitDy=0;entryX=0.5;entryY=0;entryDx=0;entryDy=0;" parent="1" source="hFd_SY-1JBbWM3t-39ka-196" target="hFd_SY-1JBbWM3t-39ka-197" edge="1">
          <mxGeometry relative="1" as="geometry" />
        </mxCell>
        <mxCell id="hFd_SY-1JBbWM3t-39ka-196" value="Enviar a Area de confecção" style="rounded=1;whiteSpace=wrap;html=1;fillColor=#dae8fc;strokeColor=#6c8ebf;" parent="1" vertex="1">
          <mxGeometry x="350" y="2380" width="120" height="60" as="geometry" />
        </mxCell>
        <mxCell id="hFd_SY-1JBbWM3t-39ka-197" value="FIM" style="ellipse;whiteSpace=wrap;html=1;fillColor=#f8cecc;strokeColor=#b85450;" parent="1" vertex="1">
          <mxGeometry x="350" y="2483.75" width="120" height="80" as="geometry" />
        </mxCell>
        <mxCell id="hFd_SY-1JBbWM3t-39ka-198" style="edgeStyle=orthogonalEdgeStyle;rounded=1;orthogonalLoop=1;jettySize=auto;html=1;exitX=0.5;exitY=1;exitDx=0;exitDy=0;entryX=1;entryY=0.5;entryDx=0;entryDy=0;curved=0;" parent="1" source="hFd_SY-1JBbWM3t-39ka-199" target="hFd_SY-1JBbWM3t-39ka-197" edge="1">
          <mxGeometry relative="1" as="geometry" />
        </mxCell>
        <mxCell id="hFd_SY-1JBbWM3t-39ka-199" value="Enviar a area de descarte" style="rounded=1;whiteSpace=wrap;html=1;fillColor=#fff2cc;strokeColor=#d6b656;" parent="1" vertex="1">
          <mxGeometry x="510" y="2272.5" width="120" height="60" as="geometry" />
        </mxCell>
        <mxCell id="hFd_SY-1JBbWM3t-39ka-200" value="&lt;h1 style=&quot;text-align: justify;&quot;&gt;&lt;font face=&quot;Times New Roman&quot;&gt;&lt;span style=&quot;font-size: 60px; font-weight: 400;&quot;&gt;&lt;i&gt;EDIÇÃO DE MATERIAL&lt;/i&gt;&lt;/span&gt;&lt;/font&gt;&lt;/h1&gt;" style="text;html=1;align=center;verticalAlign=middle;resizable=0;points=[];autosize=1;" parent="1" vertex="1">
          <mxGeometry x="95" y="1560" width="630" height="120" as="geometry" />
        </mxCell>
        <mxCell id="hFd_SY-1JBbWM3t-39ka-203" value="" style="edgeStyle=orthogonalEdgeStyle;rounded=0;orthogonalLoop=1;jettySize=auto;html=1;" parent="1" source="hFd_SY-1JBbWM3t-39ka-204" target="hFd_SY-1JBbWM3t-39ka-206" edge="1">
          <mxGeometry relative="1" as="geometry" />
        </mxCell>
        <mxCell id="hFd_SY-1JBbWM3t-39ka-204" value="INÍCIO" style="ellipse;whiteSpace=wrap;html=1;fillColor=#f8cecc;strokeColor=#b85450;" parent="1" vertex="1">
          <mxGeometry x="1348" y="1952.5" width="120" height="80" as="geometry" />
        </mxCell>
        <mxCell id="hFd_SY-1JBbWM3t-39ka-205" value="" style="edgeStyle=orthogonalEdgeStyle;rounded=0;orthogonalLoop=1;jettySize=auto;html=1;" parent="1" source="hFd_SY-1JBbWM3t-39ka-206" target="hFd_SY-1JBbWM3t-39ka-209" edge="1">
          <mxGeometry relative="1" as="geometry" />
        </mxCell>
        <mxCell id="hFd_SY-1JBbWM3t-39ka-206" value="Material ruim ou indesejado" style="rounded=1;whiteSpace=wrap;html=1;fillColor=#dae8fc;strokeColor=#6c8ebf;" parent="1" vertex="1">
          <mxGeometry x="1348" y="2062.5" width="120" height="60" as="geometry" />
        </mxCell>
        <mxCell id="hFd_SY-1JBbWM3t-39ka-207" value="" style="edgeStyle=orthogonalEdgeStyle;rounded=0;orthogonalLoop=1;jettySize=auto;html=1;" parent="1" source="hFd_SY-1JBbWM3t-39ka-209" target="hFd_SY-1JBbWM3t-39ka-211" edge="1">
          <mxGeometry relative="1" as="geometry" />
        </mxCell>
        <mxCell id="hFd_SY-1JBbWM3t-39ka-216" value="SIM" style="edgeLabel;html=1;align=center;verticalAlign=middle;resizable=0;points=[];" parent="hFd_SY-1JBbWM3t-39ka-207" vertex="1" connectable="0">
          <mxGeometry x="-0.3261" y="-1" relative="1" as="geometry">
            <mxPoint as="offset" />
          </mxGeometry>
        </mxCell>
        <mxCell id="hFd_SY-1JBbWM3t-39ka-208" value="" style="edgeStyle=orthogonalEdgeStyle;rounded=0;orthogonalLoop=1;jettySize=auto;html=1;" parent="1" source="hFd_SY-1JBbWM3t-39ka-209" target="hFd_SY-1JBbWM3t-39ka-214" edge="1">
          <mxGeometry relative="1" as="geometry" />
        </mxCell>
        <mxCell id="hFd_SY-1JBbWM3t-39ka-217" value="NÃO" style="edgeLabel;html=1;align=center;verticalAlign=middle;resizable=0;points=[];" parent="hFd_SY-1JBbWM3t-39ka-208" vertex="1" connectable="0">
          <mxGeometry x="-0.2795" relative="1" as="geometry">
            <mxPoint as="offset" />
          </mxGeometry>
        </mxCell>
        <mxCell id="hFd_SY-1JBbWM3t-39ka-209" value="Descartar&lt;div&gt;material?&lt;/div&gt;" style="rhombus;whiteSpace=wrap;html=1;fillColor=#fff2cc;strokeColor=#d6b656;" parent="1" vertex="1">
          <mxGeometry x="1368" y="2160" width="80" height="80" as="geometry" />
        </mxCell>
        <mxCell id="hFd_SY-1JBbWM3t-39ka-210" value="" style="edgeStyle=orthogonalEdgeStyle;rounded=0;orthogonalLoop=1;jettySize=auto;html=1;" parent="1" source="hFd_SY-1JBbWM3t-39ka-211" target="hFd_SY-1JBbWM3t-39ka-212" edge="1">
          <mxGeometry relative="1" as="geometry" />
        </mxCell>
        <mxCell id="hFd_SY-1JBbWM3t-39ka-211" value="Cancelar compra" style="rounded=1;whiteSpace=wrap;html=1;fillColor=#dae8fc;strokeColor=#6c8ebf;" parent="1" vertex="1">
          <mxGeometry x="1348" y="2277.5" width="120" height="60" as="geometry" />
        </mxCell>
        <mxCell id="hFd_SY-1JBbWM3t-39ka-212" value="FIM" style="ellipse;whiteSpace=wrap;html=1;fillColor=#f8cecc;strokeColor=#b85450;" parent="1" vertex="1">
          <mxGeometry x="1348" y="2377.5" width="120" height="80" as="geometry" />
        </mxCell>
        <mxCell id="hFd_SY-1JBbWM3t-39ka-213" style="edgeStyle=orthogonalEdgeStyle;rounded=1;orthogonalLoop=1;jettySize=auto;html=1;exitX=0.5;exitY=1;exitDx=0;exitDy=0;entryX=1;entryY=0.5;entryDx=0;entryDy=0;curved=0;" parent="1" source="hFd_SY-1JBbWM3t-39ka-214" target="hFd_SY-1JBbWM3t-39ka-212" edge="1">
          <mxGeometry relative="1" as="geometry" />
        </mxCell>
        <mxCell id="hFd_SY-1JBbWM3t-39ka-214" value="Devolver ao estoque" style="rounded=1;whiteSpace=wrap;html=1;fillColor=#d5e8d4;strokeColor=#82b366;" parent="1" vertex="1">
          <mxGeometry x="1508" y="2170" width="120" height="60" as="geometry" />
        </mxCell>
        <mxCell id="hFd_SY-1JBbWM3t-39ka-215" value="&lt;h1 style=&quot;text-align: justify;&quot;&gt;&lt;font face=&quot;Times New Roman&quot;&gt;&lt;span style=&quot;font-size: 60px; font-weight: 400;&quot;&gt;&lt;i&gt;EDIÇÃO DE MATERIAL&lt;/i&gt;&lt;/span&gt;&lt;/font&gt;&lt;/h1&gt;" style="text;html=1;align=center;verticalAlign=middle;resizable=0;points=[];autosize=1;" parent="1" vertex="1">
          <mxGeometry x="1095" y="1560" width="630" height="120" as="geometry" />
        </mxCell>
        <mxCell id="hFd_SY-1JBbWM3t-39ka-218" value="&lt;h1 style=&quot;text-align: justify;&quot;&gt;&lt;font face=&quot;Times New Roman&quot;&gt;&lt;span style=&quot;font-size: 60px; font-weight: 400;&quot;&gt;&lt;i&gt;EMBALO DE CAMISAS&lt;/i&gt;&lt;/span&gt;&lt;/font&gt;&lt;/h1&gt;" style="text;html=1;align=center;verticalAlign=middle;resizable=0;points=[];autosize=1;" parent="1" vertex="1">
          <mxGeometry x="-2885" y="3200" width="610" height="120" as="geometry" />
        </mxCell>
        <mxCell id="Mks9S6579AZ91gbMzlR7-7" style="edgeStyle=orthogonalEdgeStyle;rounded=0;orthogonalLoop=1;jettySize=auto;html=1;exitX=0.5;exitY=1;exitDx=0;exitDy=0;entryX=0.5;entryY=0;entryDx=0;entryDy=0;" parent="1" source="hFd_SY-1JBbWM3t-39ka-220" target="Mks9S6579AZ91gbMzlR7-2" edge="1">
          <mxGeometry relative="1" as="geometry" />
        </mxCell>
        <mxCell id="hFd_SY-1JBbWM3t-39ka-220" value="INÍCIO" style="ellipse;whiteSpace=wrap;html=1;fillColor=#f8cecc;strokeColor=#b85450;shadow=0;" parent="1" vertex="1">
          <mxGeometry x="-2625" y="3717.49" width="120" height="80" as="geometry" />
        </mxCell>
        <mxCell id="hFd_SY-1JBbWM3t-39ka-252" style="edgeStyle=orthogonalEdgeStyle;rounded=0;orthogonalLoop=1;jettySize=auto;html=1;exitX=0.5;exitY=1;exitDx=0;exitDy=0;entryX=0.5;entryY=0;entryDx=0;entryDy=0;" parent="1" target="hFd_SY-1JBbWM3t-39ka-250" edge="1">
          <mxGeometry relative="1" as="geometry">
            <mxPoint x="-2715" y="3902.49" as="sourcePoint" />
          </mxGeometry>
        </mxCell>
        <mxCell id="hFd_SY-1JBbWM3t-39ka-241" value="FIM" style="ellipse;whiteSpace=wrap;html=1;fillColor=#f8cecc;strokeColor=#b85450;shadow=0;" parent="1" vertex="1">
          <mxGeometry x="-2775" y="4162.5" width="120" height="80" as="geometry" />
        </mxCell>
        <mxCell id="Mks9S6579AZ91gbMzlR7-15" value="SIM" style="edgeStyle=orthogonalEdgeStyle;rounded=0;orthogonalLoop=1;jettySize=auto;html=1;exitX=0.5;exitY=1;exitDx=0;exitDy=0;" parent="1" source="hFd_SY-1JBbWM3t-39ka-250" target="Mks9S6579AZ91gbMzlR7-3" edge="1">
          <mxGeometry relative="1" as="geometry" />
        </mxCell>
        <mxCell id="hFd_SY-1JBbWM3t-39ka-250" value="Tem embalagem&lt;span style=&quot;background-color: initial;&quot;&gt;?&lt;/span&gt;" style="rhombus;whiteSpace=wrap;html=1;fillColor=#d5e8d4;strokeColor=#82b366;" parent="1" vertex="1">
          <mxGeometry x="-2759.61" y="3935" width="90" height="90" as="geometry" />
        </mxCell>
        <mxCell id="hFd_SY-1JBbWM3t-39ka-261" style="edgeStyle=orthogonalEdgeStyle;rounded=0;orthogonalLoop=1;jettySize=auto;html=1;exitX=0.5;exitY=1;exitDx=0;exitDy=0;entryX=0.5;entryY=0;entryDx=0;entryDy=0;" parent="1" target="hFd_SY-1JBbWM3t-39ka-241" edge="1">
          <mxGeometry relative="1" as="geometry">
            <mxPoint x="-2715" y="4117.49" as="sourcePoint" />
          </mxGeometry>
        </mxCell>
        <mxCell id="hFd_SY-1JBbWM3t-39ka-265" value="&lt;h1 style=&quot;text-align: justify;&quot;&gt;&lt;font face=&quot;Times New Roman&quot;&gt;&lt;span style=&quot;font-size: 60px; font-weight: 400;&quot;&gt;&lt;i&gt;ENTREGA DE PRODUTO&lt;/i&gt;&lt;/span&gt;&lt;/font&gt;&lt;/h1&gt;" style="text;html=1;align=center;verticalAlign=middle;resizable=0;points=[];autosize=1;" parent="1" vertex="1">
          <mxGeometry x="-1915" y="3200" width="670" height="120" as="geometry" />
        </mxCell>
        <mxCell id="Mks9S6579AZ91gbMzlR7-21" style="edgeStyle=orthogonalEdgeStyle;rounded=0;orthogonalLoop=1;jettySize=auto;html=1;exitX=0.5;exitY=1;exitDx=0;exitDy=0;entryX=0.5;entryY=0;entryDx=0;entryDy=0;" parent="1" source="hFd_SY-1JBbWM3t-39ka-267" target="Mks9S6579AZ91gbMzlR7-20" edge="1">
          <mxGeometry relative="1" as="geometry" />
        </mxCell>
        <mxCell id="hFd_SY-1JBbWM3t-39ka-267" value="INÍCIO" style="ellipse;whiteSpace=wrap;html=1;fillColor=#f8cecc;strokeColor=#b85450;shadow=0;" parent="1" vertex="1">
          <mxGeometry x="-1625" y="3595" width="120" height="80" as="geometry" />
        </mxCell>
        <mxCell id="hFd_SY-1JBbWM3t-39ka-273" value="FIM" style="ellipse;whiteSpace=wrap;html=1;fillColor=#f8cecc;strokeColor=#b85450;shadow=0;" parent="1" vertex="1">
          <mxGeometry x="-1465" y="4007.49" width="120" height="80" as="geometry" />
        </mxCell>
        <mxCell id="hFd_SY-1JBbWM3t-39ka-274" value="" style="edgeStyle=orthogonalEdgeStyle;rounded=0;orthogonalLoop=1;jettySize=auto;html=1;shadow=0;" parent="1" source="hFd_SY-1JBbWM3t-39ka-275" target="hFd_SY-1JBbWM3t-39ka-277" edge="1">
          <mxGeometry relative="1" as="geometry" />
        </mxCell>
        <mxCell id="hFd_SY-1JBbWM3t-39ka-275" value="Entregador pega o produto" style="whiteSpace=wrap;html=1;fillColor=#dae8fc;strokeColor=#6c8ebf;shadow=0;rounded=1;" parent="1" vertex="1">
          <mxGeometry x="-1805" y="3854.99" width="120" height="60" as="geometry" />
        </mxCell>
        <mxCell id="hFd_SY-1JBbWM3t-39ka-276" value="" style="edgeStyle=orthogonalEdgeStyle;rounded=0;orthogonalLoop=1;jettySize=auto;html=1;shadow=0;" parent="1" source="hFd_SY-1JBbWM3t-39ka-277" target="hFd_SY-1JBbWM3t-39ka-279" edge="1">
          <mxGeometry relative="1" as="geometry" />
        </mxCell>
        <mxCell id="hFd_SY-1JBbWM3t-39ka-277" value="Cliente manda a localização" style="whiteSpace=wrap;html=1;fillColor=#dae8fc;strokeColor=#6c8ebf;shadow=0;rounded=1;" parent="1" vertex="1">
          <mxGeometry x="-1805" y="3945" width="120" height="60" as="geometry" />
        </mxCell>
        <mxCell id="hFd_SY-1JBbWM3t-39ka-278" value="" style="edgeStyle=orthogonalEdgeStyle;rounded=0;orthogonalLoop=1;jettySize=auto;html=1;shadow=0;" parent="1" source="hFd_SY-1JBbWM3t-39ka-279" target="hFd_SY-1JBbWM3t-39ka-281" edge="1">
          <mxGeometry relative="1" as="geometry" />
        </mxCell>
        <mxCell id="hFd_SY-1JBbWM3t-39ka-279" value="Entregador segue o GPS" style="whiteSpace=wrap;html=1;fillColor=#dae8fc;strokeColor=#6c8ebf;shadow=0;rounded=1;" parent="1" vertex="1">
          <mxGeometry x="-1805" y="4037.4999999999995" width="120" height="60" as="geometry" />
        </mxCell>
        <mxCell id="hFd_SY-1JBbWM3t-39ka-289" style="edgeStyle=orthogonalEdgeStyle;rounded=0;orthogonalLoop=1;jettySize=auto;html=1;exitX=0.5;exitY=1;exitDx=0;exitDy=0;entryX=0.5;entryY=0;entryDx=0;entryDy=0;" parent="1" source="hFd_SY-1JBbWM3t-39ka-281" target="hFd_SY-1JBbWM3t-39ka-285" edge="1">
          <mxGeometry relative="1" as="geometry" />
        </mxCell>
        <mxCell id="hFd_SY-1JBbWM3t-39ka-281" value="Entregador chega ao local desejado" style="whiteSpace=wrap;html=1;fillColor=#dae8fc;strokeColor=#6c8ebf;shadow=0;rounded=1;" parent="1" vertex="1">
          <mxGeometry x="-1805" y="4127.5" width="120" height="60" as="geometry" />
        </mxCell>
        <mxCell id="hFd_SY-1JBbWM3t-39ka-292" style="edgeStyle=orthogonalEdgeStyle;rounded=1;orthogonalLoop=1;jettySize=auto;html=1;exitX=1;exitY=0.5;exitDx=0;exitDy=0;entryX=0.5;entryY=1;entryDx=0;entryDy=0;curved=0;" parent="1" source="hFd_SY-1JBbWM3t-39ka-283" target="hFd_SY-1JBbWM3t-39ka-273" edge="1">
          <mxGeometry relative="1" as="geometry" />
        </mxCell>
        <mxCell id="hFd_SY-1JBbWM3t-39ka-283" value="Entrega do produto é realizada" style="whiteSpace=wrap;html=1;fillColor=#dae8fc;strokeColor=#6c8ebf;shadow=0;rounded=1;" parent="1" vertex="1">
          <mxGeometry x="-1805" y="4305" width="120" height="60" as="geometry" />
        </mxCell>
        <mxCell id="hFd_SY-1JBbWM3t-39ka-290" style="edgeStyle=orthogonalEdgeStyle;rounded=0;orthogonalLoop=1;jettySize=auto;html=1;exitX=0.5;exitY=1;exitDx=0;exitDy=0;entryX=0.5;entryY=0;entryDx=0;entryDy=0;" parent="1" source="hFd_SY-1JBbWM3t-39ka-285" target="hFd_SY-1JBbWM3t-39ka-283" edge="1">
          <mxGeometry relative="1" as="geometry" />
        </mxCell>
        <mxCell id="hFd_SY-1JBbWM3t-39ka-285" value="Cliente paga o produto" style="whiteSpace=wrap;html=1;fillColor=#dae8fc;strokeColor=#6c8ebf;shadow=0;rounded=1;" parent="1" vertex="1">
          <mxGeometry x="-1805" y="4215" width="120" height="60" as="geometry" />
        </mxCell>
        <mxCell id="hFd_SY-1JBbWM3t-39ka-288" style="edgeStyle=orthogonalEdgeStyle;rounded=1;orthogonalLoop=1;jettySize=auto;html=1;exitX=0;exitY=0.5;exitDx=0;exitDy=0;curved=0;" parent="1" source="Mks9S6579AZ91gbMzlR7-20" target="hFd_SY-1JBbWM3t-39ka-275" edge="1">
          <mxGeometry relative="1" as="geometry">
            <mxPoint x="-1610" y="3750" as="sourcePoint" />
          </mxGeometry>
        </mxCell>
        <mxCell id="hFd_SY-1JBbWM3t-39ka-293" value="SIM" style="edgeLabel;html=1;align=center;verticalAlign=middle;resizable=0;points=[];" parent="hFd_SY-1JBbWM3t-39ka-288" vertex="1" connectable="0">
          <mxGeometry x="-0.3805" y="-1" relative="1" as="geometry">
            <mxPoint as="offset" />
          </mxGeometry>
        </mxCell>
        <mxCell id="hFd_SY-1JBbWM3t-39ka-291" style="edgeStyle=orthogonalEdgeStyle;rounded=1;orthogonalLoop=1;jettySize=auto;html=1;exitX=1;exitY=0.5;exitDx=0;exitDy=0;entryX=0.5;entryY=0;entryDx=0;entryDy=0;curved=0;" parent="1" source="Mks9S6579AZ91gbMzlR7-20" target="hFd_SY-1JBbWM3t-39ka-273" edge="1">
          <mxGeometry relative="1" as="geometry">
            <mxPoint x="-1520" y="3750" as="sourcePoint" />
          </mxGeometry>
        </mxCell>
        <mxCell id="hFd_SY-1JBbWM3t-39ka-294" value="NÃO" style="edgeLabel;html=1;align=center;verticalAlign=middle;resizable=0;points=[];" parent="hFd_SY-1JBbWM3t-39ka-291" vertex="1" connectable="0">
          <mxGeometry x="-0.696" relative="1" as="geometry">
            <mxPoint as="offset" />
          </mxGeometry>
        </mxCell>
        <mxCell id="Mks9S6579AZ91gbMzlR7-24" style="edgeStyle=orthogonalEdgeStyle;rounded=0;orthogonalLoop=1;jettySize=auto;html=1;exitX=0.5;exitY=1;exitDx=0;exitDy=0;entryX=0.5;entryY=0;entryDx=0;entryDy=0;" parent="1" source="hFd_SY-1JBbWM3t-39ka-296" target="Mks9S6579AZ91gbMzlR7-23" edge="1">
          <mxGeometry relative="1" as="geometry" />
        </mxCell>
        <mxCell id="hFd_SY-1JBbWM3t-39ka-296" value="INÍCIO" style="ellipse;whiteSpace=wrap;html=1;fillColor=#f8cecc;strokeColor=#b85450;shadow=0;" parent="1" vertex="1">
          <mxGeometry x="-625" y="3609.99" width="120" height="80" as="geometry" />
        </mxCell>
        <mxCell id="hFd_SY-1JBbWM3t-39ka-302" value="" style="edgeStyle=orthogonalEdgeStyle;rounded=0;orthogonalLoop=1;jettySize=auto;html=1;" parent="1" source="hFd_SY-1JBbWM3t-39ka-303" target="hFd_SY-1JBbWM3t-39ka-305" edge="1">
          <mxGeometry relative="1" as="geometry" />
        </mxCell>
        <mxCell id="hFd_SY-1JBbWM3t-39ka-303" value="Entregador pega o produto" style="whiteSpace=wrap;html=1;fillColor=#dae8fc;strokeColor=#6c8ebf;shadow=0;rounded=1;" parent="1" vertex="1">
          <mxGeometry x="-815" y="3807.4799999999996" width="120" height="60" as="geometry" />
        </mxCell>
        <mxCell id="hFd_SY-1JBbWM3t-39ka-304" value="" style="edgeStyle=orthogonalEdgeStyle;rounded=0;orthogonalLoop=1;jettySize=auto;html=1;" parent="1" source="hFd_SY-1JBbWM3t-39ka-305" target="hFd_SY-1JBbWM3t-39ka-310" edge="1">
          <mxGeometry relative="1" as="geometry" />
        </mxCell>
        <mxCell id="hFd_SY-1JBbWM3t-39ka-305" value="Cliente realiza o pagamento" style="whiteSpace=wrap;html=1;fillColor=#dae8fc;strokeColor=#6c8ebf;shadow=0;rounded=1;" parent="1" vertex="1">
          <mxGeometry x="-815" y="3887.4799999999996" width="120" height="60" as="geometry" />
        </mxCell>
        <mxCell id="hFd_SY-1JBbWM3t-39ka-319" value="NÃO" style="edgeStyle=orthogonalEdgeStyle;rounded=1;orthogonalLoop=1;jettySize=auto;html=1;exitX=1;exitY=0.5;exitDx=0;exitDy=0;entryX=0.5;entryY=1;entryDx=0;entryDy=0;curved=0;" parent="1" source="hFd_SY-1JBbWM3t-39ka-310" target="Mks9S6579AZ91gbMzlR7-23" edge="1">
          <mxGeometry x="-0.0315" relative="1" as="geometry">
            <mxPoint as="offset" />
            <mxPoint x="-565" y="3824.99" as="targetPoint" />
          </mxGeometry>
        </mxCell>
        <mxCell id="hFd_SY-1JBbWM3t-39ka-320" style="edgeStyle=orthogonalEdgeStyle;rounded=1;orthogonalLoop=1;jettySize=auto;html=1;exitX=0.5;exitY=1;exitDx=0;exitDy=0;entryX=0;entryY=0.5;entryDx=0;entryDy=0;curved=0;" parent="1" source="hFd_SY-1JBbWM3t-39ka-310" target="hFd_SY-1JBbWM3t-39ka-312" edge="1">
          <mxGeometry relative="1" as="geometry" />
        </mxCell>
        <mxCell id="hFd_SY-1JBbWM3t-39ka-310" value="Compra realizada com sucesso?" style="rhombus;whiteSpace=wrap;html=1;fillColor=#d5e8d4;strokeColor=#82b366;shadow=0;" parent="1" vertex="1">
          <mxGeometry x="-808" y="3977.4799999999996" width="113" height="120" as="geometry" />
        </mxCell>
        <mxCell id="hFd_SY-1JBbWM3t-39ka-311" style="edgeStyle=orthogonalEdgeStyle;rounded=1;orthogonalLoop=1;jettySize=auto;html=1;entryX=0.5;entryY=1;entryDx=0;entryDy=0;curved=0;" parent="1" source="hFd_SY-1JBbWM3t-39ka-312" target="hFd_SY-1JBbWM3t-39ka-313" edge="1">
          <mxGeometry relative="1" as="geometry" />
        </mxCell>
        <mxCell id="hFd_SY-1JBbWM3t-39ka-312" value="Cliente pega o produto" style="whiteSpace=wrap;html=1;fillColor=#dae8fc;strokeColor=#6c8ebf;shadow=0;rounded=1;" parent="1" vertex="1">
          <mxGeometry x="-625" y="4099.99" width="120" height="60" as="geometry" />
        </mxCell>
        <mxCell id="hFd_SY-1JBbWM3t-39ka-313" value="FIM" style="ellipse;whiteSpace=wrap;html=1;fillColor=#f8cecc;strokeColor=#b85450;shadow=0;" parent="1" vertex="1">
          <mxGeometry x="-385" y="3904.99" width="120" height="80" as="geometry" />
        </mxCell>
        <mxCell id="hFd_SY-1JBbWM3t-39ka-314" value="&lt;h1 style=&quot;text-align: justify;&quot;&gt;&lt;font face=&quot;Times New Roman&quot;&gt;&lt;span style=&quot;font-size: 60px; font-weight: 400;&quot;&gt;&lt;i&gt;RETIRADA NO BALCÃO&lt;/i&gt;&lt;/span&gt;&lt;/font&gt;&lt;/h1&gt;" style="text;html=1;align=center;verticalAlign=middle;resizable=0;points=[];autosize=1;" parent="1" vertex="1">
          <mxGeometry x="-895" y="3200" width="640" height="120" as="geometry" />
        </mxCell>
        <mxCell id="hFd_SY-1JBbWM3t-39ka-317" style="edgeStyle=orthogonalEdgeStyle;rounded=1;orthogonalLoop=1;jettySize=auto;html=1;exitX=1;exitY=0.5;exitDx=0;exitDy=0;curved=0;" parent="1" source="Mks9S6579AZ91gbMzlR7-23" target="hFd_SY-1JBbWM3t-39ka-313" edge="1">
          <mxGeometry relative="1" as="geometry">
            <mxPoint x="-520" y="3777.49" as="sourcePoint" />
          </mxGeometry>
        </mxCell>
        <mxCell id="hFd_SY-1JBbWM3t-39ka-322" value="NÃO" style="edgeLabel;html=1;align=center;verticalAlign=middle;resizable=0;points=[];" parent="hFd_SY-1JBbWM3t-39ka-317" vertex="1" connectable="0">
          <mxGeometry x="-0.4339" relative="1" as="geometry">
            <mxPoint as="offset" />
          </mxGeometry>
        </mxCell>
        <mxCell id="hFd_SY-1JBbWM3t-39ka-318" style="edgeStyle=orthogonalEdgeStyle;rounded=1;orthogonalLoop=1;jettySize=auto;html=1;exitX=0;exitY=0.5;exitDx=0;exitDy=0;entryX=0.5;entryY=0;entryDx=0;entryDy=0;curved=0;" parent="1" source="Mks9S6579AZ91gbMzlR7-23" target="hFd_SY-1JBbWM3t-39ka-303" edge="1">
          <mxGeometry relative="1" as="geometry">
            <mxPoint x="-610" y="3777.49" as="sourcePoint" />
          </mxGeometry>
        </mxCell>
        <mxCell id="hFd_SY-1JBbWM3t-39ka-321" value="SIM" style="edgeLabel;html=1;align=center;verticalAlign=middle;resizable=0;points=[];" parent="hFd_SY-1JBbWM3t-39ka-318" vertex="1" connectable="0">
          <mxGeometry x="-0.1665" y="-2" relative="1" as="geometry">
            <mxPoint as="offset" />
          </mxGeometry>
        </mxCell>
        <mxCell id="hFd_SY-1JBbWM3t-39ka-323" value="&lt;font style=&quot;font-size: 40px;&quot;&gt;Dia 24/05&lt;/font&gt;" style="text;html=1;align=center;verticalAlign=middle;whiteSpace=wrap;rounded=0;" parent="1" vertex="1">
          <mxGeometry x="-4900" y="650" width="260" height="110" as="geometry" />
        </mxCell>
        <mxCell id="hFd_SY-1JBbWM3t-39ka-324" value="&lt;div style=&quot;font-size: 26px;&quot;&gt;&lt;font style=&quot;font-size: 26px;&quot;&gt;Fluxograma&amp;nbsp;&lt;br&gt;&lt;/font&gt;&lt;/div&gt;&lt;div style=&quot;font-size: 26px;&quot;&gt;&lt;font style=&quot;font-size: 26px;&quot;&gt;&lt;br&gt;&lt;/font&gt;&lt;/div&gt;&lt;font style=&quot;font-size: 26px;&quot;&gt;Erick - Faltou&lt;/font&gt;&lt;div&gt;&lt;span style=&quot;font-size: 26px; background-color: initial;&quot;&gt;Lucas - Interface de controle de estoque, compra e descarte&lt;/span&gt;&lt;div style=&quot;font-size: 26px;&quot;&gt;&lt;font style=&quot;font-size: 26px;&quot;&gt;Caio - Interface de entrega de pedido&lt;/font&gt;&lt;/div&gt;&lt;div style=&quot;font-size: 26px;&quot;&gt;&lt;font style=&quot;font-size: 26px;&quot;&gt;Júlia -&amp;nbsp;&lt;/font&gt;&lt;span style=&quot;background-color: initial;&quot;&gt;Faltou&lt;/span&gt;&lt;/div&gt;&lt;div style=&quot;font-size: 26px;&quot;&gt;&lt;font style=&quot;font-size: 26px;&quot;&gt;Maria Luiza - Faltou&lt;/font&gt;&lt;/div&gt;&lt;/div&gt;" style="text;html=1;align=left;verticalAlign=middle;whiteSpace=wrap;rounded=0;" parent="1" vertex="1">
          <mxGeometry x="-4810" y="765" width="800" height="225" as="geometry" />
        </mxCell>
        <mxCell id="hFd_SY-1JBbWM3t-39ka-325" value="&lt;font style=&quot;font-size: 40px;&quot;&gt;Dia 24/05&lt;/font&gt;" style="text;html=1;align=center;verticalAlign=middle;whiteSpace=wrap;rounded=0;" parent="1" vertex="1">
          <mxGeometry x="-4910" y="1000" width="260" height="110" as="geometry" />
        </mxCell>
        <mxCell id="hFd_SY-1JBbWM3t-39ka-326" value="&lt;div style=&quot;font-size: 26px;&quot;&gt;&lt;font style=&quot;font-size: 26px;&quot;&gt;Fluxograma&amp;nbsp;&lt;br&gt;&lt;/font&gt;&lt;/div&gt;&lt;div style=&quot;font-size: 26px;&quot;&gt;&lt;font style=&quot;font-size: 26px;&quot;&gt;&lt;br&gt;&lt;/font&gt;&lt;/div&gt;&lt;font style=&quot;font-size: 26px;&quot;&gt;Erick - Faltou&lt;/font&gt;&lt;div&gt;&lt;span style=&quot;font-size: 26px; background-color: initial;&quot;&gt;Lucas - Interface de controle de estoque, compra e descarte&lt;/span&gt;&lt;div style=&quot;font-size: 26px;&quot;&gt;&lt;font style=&quot;font-size: 26px;&quot;&gt;Caio - Interface de entrega de pedido&lt;/font&gt;&lt;/div&gt;&lt;div style=&quot;font-size: 26px;&quot;&gt;&lt;font style=&quot;font-size: 26px;&quot;&gt;Júlia -&amp;nbsp;&lt;/font&gt;&lt;span style=&quot;background-color: initial;&quot;&gt;Faltou&lt;/span&gt;&lt;/div&gt;&lt;div style=&quot;font-size: 26px;&quot;&gt;&lt;font style=&quot;font-size: 26px;&quot;&gt;Maria Luiza - Fluxograma de controle de qualidade e estampa de camisas&lt;/font&gt;&lt;/div&gt;&lt;/div&gt;" style="text;html=1;align=left;verticalAlign=middle;whiteSpace=wrap;rounded=0;" parent="1" vertex="1">
          <mxGeometry x="-4810" y="1110" width="790" height="240" as="geometry" />
        </mxCell>
        <mxCell id="hFd_SY-1JBbWM3t-39ka-327" value="" style="rounded=0;whiteSpace=wrap;html=1;" parent="1" vertex="1">
          <mxGeometry x="-3040" y="4840" width="920" height="1560" as="geometry" />
        </mxCell>
        <mxCell id="hFd_SY-1JBbWM3t-39ka-328" value="Recebimento do Pedido" style="rounded=0;whiteSpace=wrap;html=1;fillColor=#dae8fc;strokeColor=#6c8ebf;" parent="1" vertex="1">
          <mxGeometry x="-2717.5" y="5280" width="95" height="40" as="geometry" />
        </mxCell>
        <mxCell id="hFd_SY-1JBbWM3t-39ka-330" value="Planejamento de produção" style="rounded=0;whiteSpace=wrap;html=1;fillColor=#dae8fc;strokeColor=#6c8ebf;" parent="1" vertex="1">
          <mxGeometry x="-2717.5" y="5400" width="95" height="40" as="geometry" />
        </mxCell>
        <mxCell id="hFd_SY-1JBbWM3t-39ka-332" value="" style="endArrow=classic;html=1;rounded=0;" parent="1" edge="1">
          <mxGeometry width="50" height="50" relative="1" as="geometry">
            <mxPoint x="-2670.5" y="5320" as="sourcePoint" />
            <mxPoint x="-2670.5" y="5390" as="targetPoint" />
          </mxGeometry>
        </mxCell>
        <mxCell id="hFd_SY-1JBbWM3t-39ka-333" value="" style="endArrow=classic;html=1;rounded=0;" parent="1" edge="1">
          <mxGeometry width="50" height="50" relative="1" as="geometry">
            <mxPoint x="-2670.5" y="5440" as="sourcePoint" />
            <mxPoint x="-2670.5" y="5510" as="targetPoint" />
          </mxGeometry>
        </mxCell>
        <mxCell id="hFd_SY-1JBbWM3t-39ka-334" value="" style="rhombus;whiteSpace=wrap;html=1;fillColor=#d5e8d4;strokeColor=#82b366;" parent="1" vertex="1">
          <mxGeometry x="-2730" y="5520" width="120" height="90" as="geometry" />
        </mxCell>
        <mxCell id="hFd_SY-1JBbWM3t-39ka-335" value="Chegada de Matéria-Prima&amp;nbsp;&lt;div&gt;&lt;br&gt;&lt;/div&gt;" style="text;html=1;align=center;verticalAlign=middle;whiteSpace=wrap;rounded=0;" parent="1" vertex="1">
          <mxGeometry x="-2700" y="5560" width="60" height="30" as="geometry" />
        </mxCell>
        <mxCell id="hFd_SY-1JBbWM3t-39ka-336" value="" style="endArrow=classic;html=1;rounded=0;exitX=0;exitY=0.5;exitDx=0;exitDy=0;" parent="1" source="hFd_SY-1JBbWM3t-39ka-334" edge="1">
          <mxGeometry width="50" height="50" relative="1" as="geometry">
            <mxPoint x="-2740" y="5560.19" as="sourcePoint" />
            <mxPoint x="-2810" y="5560" as="targetPoint" />
          </mxGeometry>
        </mxCell>
        <mxCell id="hFd_SY-1JBbWM3t-39ka-337" value="Não" style="text;html=1;align=center;verticalAlign=middle;whiteSpace=wrap;rounded=0;" parent="1" vertex="1">
          <mxGeometry x="-2790" y="5540" width="60" height="30" as="geometry" />
        </mxCell>
        <mxCell id="hFd_SY-1JBbWM3t-39ka-338" value="Corte de Tecido" style="rounded=0;whiteSpace=wrap;html=1;fillColor=#dae8fc;strokeColor=#6c8ebf;" parent="1" vertex="1">
          <mxGeometry x="-2520" y="5540" width="95" height="40" as="geometry" />
        </mxCell>
        <mxCell id="ymlQFacwL70FxSIYHLWP-32" style="edgeStyle=orthogonalEdgeStyle;rounded=0;orthogonalLoop=1;jettySize=auto;html=1;exitX=0.5;exitY=0;exitDx=0;exitDy=0;entryX=0;entryY=0.5;entryDx=0;entryDy=0;" parent="1" source="hFd_SY-1JBbWM3t-39ka-339" target="hFd_SY-1JBbWM3t-39ka-330" edge="1">
          <mxGeometry relative="1" as="geometry" />
        </mxCell>
        <mxCell id="hFd_SY-1JBbWM3t-39ka-339" value="" style="rounded=0;whiteSpace=wrap;html=1;fillColor=#fff2cc;strokeColor=#d6b656;" parent="1" vertex="1">
          <mxGeometry x="-2910" y="5545" width="95" height="40" as="geometry" />
        </mxCell>
        <mxCell id="hFd_SY-1JBbWM3t-39ka-341" value="Aguarde a Matéria-Prima" style="text;html=1;align=center;verticalAlign=middle;whiteSpace=wrap;rounded=0;fillColor=none;" parent="1" vertex="1">
          <mxGeometry x="-2905" y="5550" width="90" height="30" as="geometry" />
        </mxCell>
        <mxCell id="hFd_SY-1JBbWM3t-39ka-342" value="" style="endArrow=classic;html=1;rounded=0;" parent="1" edge="1">
          <mxGeometry width="50" height="50" relative="1" as="geometry">
            <mxPoint x="-2473" y="5580" as="sourcePoint" />
            <mxPoint x="-2473" y="5650" as="targetPoint" />
          </mxGeometry>
        </mxCell>
        <mxCell id="hFd_SY-1JBbWM3t-39ka-343" value="Corte de Tecido" style="text;html=1;align=center;verticalAlign=middle;whiteSpace=wrap;rounded=0;" parent="1" vertex="1">
          <mxGeometry x="-2502.5" y="5680" width="60" height="30" as="geometry" />
        </mxCell>
        <mxCell id="hFd_SY-1JBbWM3t-39ka-344" value="" style="rhombus;whiteSpace=wrap;html=1;fillColor=#d5e8d4;strokeColor=#82b366;" parent="1" vertex="1">
          <mxGeometry x="-2532.5" y="5650" width="120" height="90" as="geometry" />
        </mxCell>
        <mxCell id="hFd_SY-1JBbWM3t-39ka-345" value="Estamparia ou Bordado?" style="text;html=1;align=center;verticalAlign=middle;whiteSpace=wrap;rounded=0;" parent="1" vertex="1">
          <mxGeometry x="-2502.5" y="5680" width="60" height="30" as="geometry" />
        </mxCell>
        <mxCell id="hFd_SY-1JBbWM3t-39ka-346" value="" style="endArrow=classic;html=1;rounded=0;exitX=0.25;exitY=1;exitDx=0;exitDy=0;" parent="1" edge="1">
          <mxGeometry width="50" height="50" relative="1" as="geometry">
            <mxPoint x="-2532.5" y="5694.5" as="sourcePoint" />
            <mxPoint x="-2532.5" y="5694.5" as="targetPoint" />
          </mxGeometry>
        </mxCell>
        <mxCell id="hFd_SY-1JBbWM3t-39ka-347" value="" style="endArrow=classic;html=1;rounded=0;" parent="1" edge="1">
          <mxGeometry width="50" height="50" relative="1" as="geometry">
            <mxPoint x="-2532.5" y="5694.5" as="sourcePoint" />
            <mxPoint x="-2602.5" y="5694.5" as="targetPoint" />
          </mxGeometry>
        </mxCell>
        <mxCell id="hFd_SY-1JBbWM3t-39ka-348" value="Sim" style="text;html=1;align=center;verticalAlign=middle;whiteSpace=wrap;rounded=0;" parent="1" vertex="1">
          <mxGeometry x="-2592.5" y="5670" width="60" height="30" as="geometry" />
        </mxCell>
        <mxCell id="hFd_SY-1JBbWM3t-39ka-349" value="" style="rounded=0;whiteSpace=wrap;html=1;fillColor=#dae8fc;strokeColor=#6c8ebf;" parent="1" vertex="1">
          <mxGeometry x="-2700" y="5675" width="95" height="40" as="geometry" />
        </mxCell>
        <mxCell id="hFd_SY-1JBbWM3t-39ka-350" value="Estamparia ou Bordado" style="text;html=1;align=center;verticalAlign=middle;whiteSpace=wrap;rounded=0;fillColor=none;" parent="1" vertex="1">
          <mxGeometry x="-2682.5" y="5680" width="60" height="30" as="geometry" />
        </mxCell>
        <mxCell id="hFd_SY-1JBbWM3t-39ka-351" value="" style="endArrow=classic;html=1;rounded=0;" parent="1" edge="1">
          <mxGeometry width="50" height="50" relative="1" as="geometry">
            <mxPoint x="-2412.5" y="5694.5" as="sourcePoint" />
            <mxPoint x="-2332.5" y="5694.5" as="targetPoint" />
          </mxGeometry>
        </mxCell>
        <mxCell id="hFd_SY-1JBbWM3t-39ka-352" value="Não" style="text;html=1;align=center;verticalAlign=middle;whiteSpace=wrap;rounded=0;" parent="1" vertex="1">
          <mxGeometry x="-2412.5" y="5670" width="60" height="30" as="geometry" />
        </mxCell>
        <mxCell id="hFd_SY-1JBbWM3t-39ka-353" value="" style="rounded=0;whiteSpace=wrap;html=1;fillColor=#fff2cc;strokeColor=#d6b656;" parent="1" vertex="1">
          <mxGeometry x="-2330" y="5680" width="95" height="40" as="geometry" />
        </mxCell>
        <mxCell id="hFd_SY-1JBbWM3t-39ka-354" value="Costura" style="text;html=1;align=center;verticalAlign=middle;whiteSpace=wrap;rounded=0;fillColor=none;" parent="1" vertex="1">
          <mxGeometry x="-2312.5" y="5685" width="60" height="30" as="geometry" />
        </mxCell>
        <mxCell id="hFd_SY-1JBbWM3t-39ka-355" value="" style="endArrow=classic;html=1;rounded=0;" parent="1" edge="1">
          <mxGeometry width="50" height="50" relative="1" as="geometry">
            <mxPoint x="-2660" y="5715" as="sourcePoint" />
            <mxPoint x="-2660" y="5785" as="targetPoint" />
          </mxGeometry>
        </mxCell>
        <mxCell id="hFd_SY-1JBbWM3t-39ka-356" value="" style="rounded=0;whiteSpace=wrap;html=1;fillColor=#dae8fc;strokeColor=#6c8ebf;" parent="1" vertex="1">
          <mxGeometry x="-2705" y="5790" width="95" height="40" as="geometry" />
        </mxCell>
        <mxCell id="hFd_SY-1JBbWM3t-39ka-357" value="Costura" style="text;html=1;align=center;verticalAlign=middle;whiteSpace=wrap;rounded=0;fillColor=none;" parent="1" vertex="1">
          <mxGeometry x="-2687.5" y="5795" width="60" height="30" as="geometry" />
        </mxCell>
        <mxCell id="hFd_SY-1JBbWM3t-39ka-358" value="" style="endArrow=classic;html=1;rounded=0;" parent="1" edge="1">
          <mxGeometry width="50" height="50" relative="1" as="geometry">
            <mxPoint x="-2658" y="5830" as="sourcePoint" />
            <mxPoint x="-2658" y="5910" as="targetPoint" />
          </mxGeometry>
        </mxCell>
        <mxCell id="hFd_SY-1JBbWM3t-39ka-359" value="" style="rounded=0;whiteSpace=wrap;html=1;fillColor=#dae8fc;strokeColor=#6c8ebf;" parent="1" vertex="1">
          <mxGeometry x="-2705" y="5920" width="95" height="40" as="geometry" />
        </mxCell>
        <mxCell id="hFd_SY-1JBbWM3t-39ka-360" value="Acabamento" style="text;html=1;align=center;verticalAlign=middle;whiteSpace=wrap;rounded=0;fillColor=none;" parent="1" vertex="1">
          <mxGeometry x="-2682.5" y="5925" width="60" height="30" as="geometry" />
        </mxCell>
        <mxCell id="hFd_SY-1JBbWM3t-39ka-361" value="" style="endArrow=classic;html=1;rounded=0;" parent="1" edge="1">
          <mxGeometry width="50" height="50" relative="1" as="geometry">
            <mxPoint x="-2658" y="5960" as="sourcePoint" />
            <mxPoint x="-2658" y="6040" as="targetPoint" />
          </mxGeometry>
        </mxCell>
        <mxCell id="hFd_SY-1JBbWM3t-39ka-362" value="" style="rounded=0;whiteSpace=wrap;html=1;fillColor=#dae8fc;strokeColor=#6c8ebf;" parent="1" vertex="1">
          <mxGeometry x="-2705" y="6040" width="95" height="40" as="geometry" />
        </mxCell>
        <mxCell id="hFd_SY-1JBbWM3t-39ka-363" value="Embalagem" style="text;html=1;align=center;verticalAlign=middle;whiteSpace=wrap;rounded=0;fillColor=none;" parent="1" vertex="1">
          <mxGeometry x="-2687.5" y="6045" width="60" height="30" as="geometry" />
        </mxCell>
        <mxCell id="hFd_SY-1JBbWM3t-39ka-364" value="" style="endArrow=classic;html=1;rounded=0;" parent="1" edge="1">
          <mxGeometry width="50" height="50" relative="1" as="geometry">
            <mxPoint x="-2606" y="6059.5" as="sourcePoint" />
            <mxPoint x="-2526" y="6059.5" as="targetPoint" />
          </mxGeometry>
        </mxCell>
        <mxCell id="hFd_SY-1JBbWM3t-39ka-365" value="" style="rounded=0;whiteSpace=wrap;html=1;fillColor=#dae8fc;strokeColor=#6c8ebf;" parent="1" vertex="1">
          <mxGeometry x="-2520" y="6035" width="95" height="40" as="geometry" />
        </mxCell>
        <mxCell id="hFd_SY-1JBbWM3t-39ka-366" value="Envio ou Distribuição" style="text;html=1;align=center;verticalAlign=middle;whiteSpace=wrap;rounded=0;" parent="1" vertex="1">
          <mxGeometry x="-2502.5" y="6040" width="60" height="30" as="geometry" />
        </mxCell>
        <mxCell id="hFd_SY-1JBbWM3t-39ka-367" value="" style="endArrow=classic;html=1;rounded=0;" parent="1" edge="1">
          <mxGeometry width="50" height="50" relative="1" as="geometry">
            <mxPoint x="-2717.5" y="5299.5" as="sourcePoint" />
            <mxPoint x="-2807.5" y="5300" as="targetPoint" />
          </mxGeometry>
        </mxCell>
        <mxCell id="hFd_SY-1JBbWM3t-39ka-368" value="INÍCIO" style="ellipse;whiteSpace=wrap;html=1;fillColor=#f8cecc;strokeColor=#b85450;" parent="1" vertex="1">
          <mxGeometry x="-2900" y="5270" width="85" height="60" as="geometry" />
        </mxCell>
        <mxCell id="hFd_SY-1JBbWM3t-39ka-370" value="" style="endArrow=classic;html=1;rounded=0;" parent="1" edge="1">
          <mxGeometry width="50" height="50" relative="1" as="geometry">
            <mxPoint x="-2460" y="6080" as="sourcePoint" />
            <mxPoint x="-2460" y="6160" as="targetPoint" />
            <Array as="points">
              <mxPoint x="-2460" y="6150" />
            </Array>
          </mxGeometry>
        </mxCell>
        <mxCell id="hFd_SY-1JBbWM3t-39ka-371" value="FIM" style="ellipse;whiteSpace=wrap;html=1;fillColor=#f8cecc;strokeColor=#b85450;" parent="1" vertex="1">
          <mxGeometry x="-2502.5" y="6160" width="90" height="60" as="geometry" />
        </mxCell>
        <mxCell id="hFd_SY-1JBbWM3t-39ka-373" value="" style="endArrow=classic;html=1;rounded=0;exitX=1;exitY=0.5;exitDx=0;exitDy=0;entryX=0;entryY=0.5;entryDx=0;entryDy=0;" parent="1" source="hFd_SY-1JBbWM3t-39ka-334" target="hFd_SY-1JBbWM3t-39ka-338" edge="1">
          <mxGeometry width="50" height="50" relative="1" as="geometry">
            <mxPoint x="-2610" y="5565" as="sourcePoint" />
            <mxPoint x="-2526.5" y="5560" as="targetPoint" />
          </mxGeometry>
        </mxCell>
        <mxCell id="hFd_SY-1JBbWM3t-39ka-374" value="Sim" style="text;html=1;align=center;verticalAlign=middle;whiteSpace=wrap;rounded=0;" parent="1" vertex="1">
          <mxGeometry x="-2592.5" y="5530" width="60" height="30" as="geometry" />
        </mxCell>
        <mxCell id="hFd_SY-1JBbWM3t-39ka-375" value="&lt;h1 style=&quot;text-align: justify;&quot;&gt;&lt;font face=&quot;Times New Roman&quot;&gt;&lt;span style=&quot;font-size: 60px; font-weight: 400;&quot;&gt;&lt;i&gt;NOTIFICAÇÃO PARA&amp;nbsp; O CLIENTE&lt;/i&gt;&lt;/span&gt;&lt;/font&gt;&lt;/h1&gt;" style="text;html=1;align=center;verticalAlign=middle;resizable=0;points=[];autosize=1;" parent="1" vertex="1">
          <mxGeometry x="-3025" y="4840" width="890" height="120" as="geometry" />
        </mxCell>
        <mxCell id="hFd_SY-1JBbWM3t-39ka-376" value="" style="rounded=0;whiteSpace=wrap;html=1;" parent="1" vertex="1">
          <mxGeometry x="-2040" y="4840" width="920" height="1560" as="geometry" />
        </mxCell>
        <mxCell id="hFd_SY-1JBbWM3t-39ka-395" value="" style="endArrow=classic;html=1;rounded=0;exitX=0.25;exitY=1;exitDx=0;exitDy=0;" parent="1" edge="1">
          <mxGeometry width="50" height="50" relative="1" as="geometry">
            <mxPoint x="-1540" y="5584.5" as="sourcePoint" />
            <mxPoint x="-1540" y="5584.5" as="targetPoint" />
          </mxGeometry>
        </mxCell>
        <mxCell id="hFd_SY-1JBbWM3t-39ka-422" value="" style="endArrow=classic;html=1;rounded=0;exitX=1;exitY=0.5;exitDx=0;exitDy=0;entryX=0;entryY=0.5;entryDx=0;entryDy=0;" parent="1" edge="1">
          <mxGeometry width="50" height="50" relative="1" as="geometry">
            <mxPoint x="-1617.5" y="5455.000000000001" as="sourcePoint" />
            <mxPoint x="-1534" y="5450" as="targetPoint" />
          </mxGeometry>
        </mxCell>
        <mxCell id="hFd_SY-1JBbWM3t-39ka-424" value="&lt;h1 style=&quot;text-align: justify;&quot;&gt;&lt;font size=&quot;1&quot; face=&quot;Times New Roman&quot;&gt;&lt;span style=&quot;font-weight: 400;&quot;&gt;&lt;i style=&quot;font-size: 56px;&quot;&gt;INICIO DO PROCESSO DE COSTURA&lt;/i&gt;&lt;/span&gt;&lt;/font&gt;&lt;/h1&gt;" style="text;html=1;align=center;verticalAlign=middle;resizable=0;points=[];autosize=1;" parent="1" vertex="1">
          <mxGeometry x="-2040" y="4845" width="930" height="110" as="geometry" />
        </mxCell>
        <mxCell id="lxdEsuAKqhO_L1pSiuFA-712" value="NÃO" style="edgeStyle=orthogonalEdgeStyle;rounded=0;orthogonalLoop=1;jettySize=auto;html=1;exitX=0.5;exitY=1;exitDx=0;exitDy=0;entryX=0.5;entryY=0;entryDx=0;entryDy=0;" parent="1" source="lxdEsuAKqhO_L1pSiuFA-711" target="hFd_SY-1JBbWM3t-39ka-74" edge="1">
          <mxGeometry x="-0.3846" relative="1" as="geometry">
            <mxPoint as="offset" />
          </mxGeometry>
        </mxCell>
        <mxCell id="lxdEsuAKqhO_L1pSiuFA-714" value="SIM" style="edgeStyle=orthogonalEdgeStyle;rounded=1;orthogonalLoop=1;jettySize=auto;html=1;exitX=1;exitY=0.5;exitDx=0;exitDy=0;entryX=0;entryY=0.5;entryDx=0;entryDy=0;curved=0;" parent="1" source="lxdEsuAKqhO_L1pSiuFA-711" target="hFd_SY-1JBbWM3t-39ka-67" edge="1">
          <mxGeometry x="0.4906" relative="1" as="geometry">
            <mxPoint as="offset" />
          </mxGeometry>
        </mxCell>
        <mxCell id="lxdEsuAKqhO_L1pSiuFA-711" value="Voltar?" style="rhombus;whiteSpace=wrap;html=1;rounded=0;fillColor=#d5e8d4;strokeColor=#82b366;" parent="1" vertex="1">
          <mxGeometry x="-2730" y="550" width="80" height="80" as="geometry" />
        </mxCell>
        <mxCell id="lxdEsuAKqhO_L1pSiuFA-719" value="NÃO" style="edgeStyle=orthogonalEdgeStyle;rounded=0;orthogonalLoop=1;jettySize=auto;html=1;exitX=0.5;exitY=1;exitDx=0;exitDy=0;entryX=0.5;entryY=0;entryDx=0;entryDy=0;" parent="1" source="lxdEsuAKqhO_L1pSiuFA-717" target="hFd_SY-1JBbWM3t-39ka-85" edge="1">
          <mxGeometry relative="1" as="geometry" />
        </mxCell>
        <mxCell id="lxdEsuAKqhO_L1pSiuFA-720" value="SIM" style="edgeStyle=orthogonalEdgeStyle;rounded=1;orthogonalLoop=1;jettySize=auto;html=1;exitX=1;exitY=0.5;exitDx=0;exitDy=0;curved=0;" parent="1" source="lxdEsuAKqhO_L1pSiuFA-717" edge="1">
          <mxGeometry x="0.1276" relative="1" as="geometry">
            <mxPoint x="-2380" y="850" as="targetPoint" />
            <mxPoint y="-1" as="offset" />
          </mxGeometry>
        </mxCell>
        <mxCell id="lxdEsuAKqhO_L1pSiuFA-717" value="Voltar?" style="rhombus;whiteSpace=wrap;html=1;rounded=0;fillColor=#d5e8d4;strokeColor=#82b366;" parent="1" vertex="1">
          <mxGeometry x="-2730" y="850" width="80" height="80" as="geometry" />
        </mxCell>
        <mxCell id="lxdEsuAKqhO_L1pSiuFA-726" value="NÃO" style="edgeStyle=orthogonalEdgeStyle;rounded=0;orthogonalLoop=1;jettySize=auto;html=1;exitX=0.5;exitY=1;exitDx=0;exitDy=0;entryX=0.5;entryY=0;entryDx=0;entryDy=0;" parent="1" source="lxdEsuAKqhO_L1pSiuFA-724" target="QQEnkS8oLGYEb6HzyKzU-44" edge="1">
          <mxGeometry relative="1" as="geometry" />
        </mxCell>
        <mxCell id="lxdEsuAKqhO_L1pSiuFA-727" value="SIM" style="edgeStyle=orthogonalEdgeStyle;rounded=1;orthogonalLoop=1;jettySize=auto;html=1;exitX=1;exitY=0.5;exitDx=0;exitDy=0;entryX=0;entryY=0.5;entryDx=0;entryDy=0;curved=0;" parent="1" source="lxdEsuAKqhO_L1pSiuFA-724" target="QQEnkS8oLGYEb6HzyKzU-23" edge="1">
          <mxGeometry x="0.4906" relative="1" as="geometry">
            <mxPoint as="offset" />
          </mxGeometry>
        </mxCell>
        <mxCell id="lxdEsuAKqhO_L1pSiuFA-724" value="Voltar?" style="rhombus;whiteSpace=wrap;html=1;rounded=0;fillColor=#d5e8d4;strokeColor=#82b366;" parent="1" vertex="1">
          <mxGeometry x="-1730" y="550" width="80" height="80" as="geometry" />
        </mxCell>
        <mxCell id="lxdEsuAKqhO_L1pSiuFA-730" value="SIM" style="edgeStyle=orthogonalEdgeStyle;rounded=1;orthogonalLoop=1;jettySize=auto;html=1;exitX=1;exitY=0.5;exitDx=0;exitDy=0;curved=0;" parent="1" source="lxdEsuAKqhO_L1pSiuFA-728" edge="1">
          <mxGeometry x="0.1133" relative="1" as="geometry">
            <mxPoint x="-1380" y="850.0000000000002" as="targetPoint" />
            <mxPoint y="-1" as="offset" />
          </mxGeometry>
        </mxCell>
        <mxCell id="lxdEsuAKqhO_L1pSiuFA-731" value="NÃO" style="edgeStyle=orthogonalEdgeStyle;rounded=0;orthogonalLoop=1;jettySize=auto;html=1;exitX=0.5;exitY=1;exitDx=0;exitDy=0;entryX=0.5;entryY=0;entryDx=0;entryDy=0;" parent="1" source="lxdEsuAKqhO_L1pSiuFA-728" target="QQEnkS8oLGYEb6HzyKzU-48" edge="1">
          <mxGeometry relative="1" as="geometry" />
        </mxCell>
        <mxCell id="lxdEsuAKqhO_L1pSiuFA-728" value="Voltar?" style="rhombus;whiteSpace=wrap;html=1;rounded=0;fillColor=#d5e8d4;strokeColor=#82b366;" parent="1" vertex="1">
          <mxGeometry x="-1730" y="845" width="80" height="80" as="geometry" />
        </mxCell>
        <mxCell id="lxdEsuAKqhO_L1pSiuFA-745" value="SM" style="edgeStyle=orthogonalEdgeStyle;rounded=1;orthogonalLoop=1;jettySize=auto;html=1;exitX=1;exitY=0.5;exitDx=0;exitDy=0;entryX=0;entryY=0.5;entryDx=0;entryDy=0;curved=0;" parent="1" source="lxdEsuAKqhO_L1pSiuFA-738" target="4b1C1h9-l_e4xWgccLD7-140" edge="1">
          <mxGeometry relative="1" as="geometry" />
        </mxCell>
        <mxCell id="lxdEsuAKqhO_L1pSiuFA-746" value="NÃO" style="edgeStyle=orthogonalEdgeStyle;rounded=0;orthogonalLoop=1;jettySize=auto;html=1;exitX=0.5;exitY=1;exitDx=0;exitDy=0;entryX=0.5;entryY=0;entryDx=0;entryDy=0;" parent="1" source="lxdEsuAKqhO_L1pSiuFA-738" target="QQEnkS8oLGYEb6HzyKzU-29" edge="1">
          <mxGeometry relative="1" as="geometry" />
        </mxCell>
        <mxCell id="lxdEsuAKqhO_L1pSiuFA-738" value="Voltar?" style="rhombus;whiteSpace=wrap;html=1;rounded=0;fillColor=#d5e8d4;strokeColor=#82b366;" parent="1" vertex="1">
          <mxGeometry x="-690" y="840" width="80" height="80" as="geometry" />
        </mxCell>
        <mxCell id="lxdEsuAKqhO_L1pSiuFA-742" value="NÃO" style="edgeStyle=orthogonalEdgeStyle;rounded=0;orthogonalLoop=1;jettySize=auto;html=1;exitX=0.5;exitY=1;exitDx=0;exitDy=0;entryX=0.5;entryY=0;entryDx=0;entryDy=0;" parent="1" source="lxdEsuAKqhO_L1pSiuFA-739" target="4b1C1h9-l_e4xWgccLD7-154" edge="1">
          <mxGeometry x="-0.3333" relative="1" as="geometry">
            <mxPoint as="offset" />
          </mxGeometry>
        </mxCell>
        <mxCell id="lxdEsuAKqhO_L1pSiuFA-743" value="SIM" style="edgeStyle=orthogonalEdgeStyle;rounded=1;orthogonalLoop=1;jettySize=auto;html=1;exitX=1;exitY=0.5;exitDx=0;exitDy=0;entryX=0;entryY=0.5;entryDx=0;entryDy=0;curved=0;" parent="1" source="lxdEsuAKqhO_L1pSiuFA-739" target="4b1C1h9-l_e4xWgccLD7-140" edge="1">
          <mxGeometry relative="1" as="geometry" />
        </mxCell>
        <mxCell id="lxdEsuAKqhO_L1pSiuFA-739" value="Voltar?" style="rhombus;whiteSpace=wrap;html=1;rounded=0;fillColor=#d5e8d4;strokeColor=#82b366;" parent="1" vertex="1">
          <mxGeometry x="-690" y="540" width="80" height="80" as="geometry" />
        </mxCell>
        <mxCell id="lxdEsuAKqhO_L1pSiuFA-744" style="edgeStyle=orthogonalEdgeStyle;rounded=0;orthogonalLoop=1;jettySize=auto;html=1;exitX=0.5;exitY=1;exitDx=0;exitDy=0;entryX=0.495;entryY=0.048;entryDx=0;entryDy=0;entryPerimeter=0;" parent="1" source="QQEnkS8oLGYEb6HzyKzU-28" target="lxdEsuAKqhO_L1pSiuFA-738" edge="1">
          <mxGeometry relative="1" as="geometry" />
        </mxCell>
        <mxCell id="lxdEsuAKqhO_L1pSiuFA-753" value="NÃO" style="edgeStyle=orthogonalEdgeStyle;rounded=0;orthogonalLoop=1;jettySize=auto;html=1;exitX=1;exitY=0.5;exitDx=0;exitDy=0;entryX=0;entryY=0.5;entryDx=0;entryDy=0;" parent="1" source="lxdEsuAKqhO_L1pSiuFA-749" target="4b1C1h9-l_e4xWgccLD7-13" edge="1">
          <mxGeometry relative="1" as="geometry" />
        </mxCell>
        <mxCell id="lxdEsuAKqhO_L1pSiuFA-779" style="edgeStyle=orthogonalEdgeStyle;rounded=0;orthogonalLoop=1;jettySize=auto;html=1;exitX=0;exitY=0.5;exitDx=0;exitDy=0;" parent="1" source="lxdEsuAKqhO_L1pSiuFA-749" target="4b1C1h9-l_e4xWgccLD7-57" edge="1">
          <mxGeometry relative="1" as="geometry" />
        </mxCell>
        <mxCell id="lxdEsuAKqhO_L1pSiuFA-749" value="Voltar?" style="rhombus;whiteSpace=wrap;html=1;rounded=0;fillColor=#d5e8d4;strokeColor=#82b366;" parent="1" vertex="1">
          <mxGeometry x="430" y="470" width="80" height="80" as="geometry" />
        </mxCell>
        <mxCell id="lxdEsuAKqhO_L1pSiuFA-754" value="NÃO" style="edgeStyle=orthogonalEdgeStyle;rounded=0;orthogonalLoop=1;jettySize=auto;html=1;exitX=0;exitY=0.5;exitDx=0;exitDy=0;entryX=1;entryY=0.5;entryDx=0;entryDy=0;" parent="1" source="lxdEsuAKqhO_L1pSiuFA-750" target="4b1C1h9-l_e4xWgccLD7-74" edge="1">
          <mxGeometry relative="1" as="geometry" />
        </mxCell>
        <mxCell id="lxdEsuAKqhO_L1pSiuFA-772" style="edgeStyle=orthogonalEdgeStyle;rounded=0;orthogonalLoop=1;jettySize=auto;html=1;exitX=1;exitY=0.5;exitDx=0;exitDy=0;entryX=0.5;entryY=0;entryDx=0;entryDy=0;" parent="1" source="lxdEsuAKqhO_L1pSiuFA-750" target="4b1C1h9-l_e4xWgccLD7-57" edge="1">
          <mxGeometry relative="1" as="geometry">
            <Array as="points">
              <mxPoint x="405" y="510" />
            </Array>
          </mxGeometry>
        </mxCell>
        <mxCell id="lxdEsuAKqhO_L1pSiuFA-750" value="Voltar?" style="rhombus;whiteSpace=wrap;html=1;rounded=0;fillColor=#d5e8d4;strokeColor=#82b366;" parent="1" vertex="1">
          <mxGeometry x="310" y="470" width="80" height="80" as="geometry" />
        </mxCell>
        <mxCell id="lxdEsuAKqhO_L1pSiuFA-760" value="NÃO" style="edgeStyle=orthogonalEdgeStyle;rounded=0;orthogonalLoop=1;jettySize=auto;html=1;exitX=1;exitY=0.5;exitDx=0;exitDy=0;entryX=0;entryY=0.5;entryDx=0;entryDy=0;" parent="1" source="lxdEsuAKqhO_L1pSiuFA-755" target="4b1C1h9-l_e4xWgccLD7-19" edge="1">
          <mxGeometry relative="1" as="geometry" />
        </mxCell>
        <mxCell id="lxdEsuAKqhO_L1pSiuFA-777" style="edgeStyle=orthogonalEdgeStyle;rounded=0;orthogonalLoop=1;jettySize=auto;html=1;exitX=0;exitY=0.5;exitDx=0;exitDy=0;" parent="1" source="lxdEsuAKqhO_L1pSiuFA-755" target="4b1C1h9-l_e4xWgccLD7-57" edge="1">
          <mxGeometry relative="1" as="geometry" />
        </mxCell>
        <mxCell id="lxdEsuAKqhO_L1pSiuFA-755" value="Voltar?" style="rhombus;whiteSpace=wrap;html=1;rounded=0;fillColor=#d5e8d4;strokeColor=#82b366;" parent="1" vertex="1">
          <mxGeometry x="430" y="670" width="80" height="80" as="geometry" />
        </mxCell>
        <mxCell id="lxdEsuAKqhO_L1pSiuFA-759" value="NÃO" style="edgeStyle=orthogonalEdgeStyle;rounded=0;orthogonalLoop=1;jettySize=auto;html=1;exitX=0;exitY=0.5;exitDx=0;exitDy=0;entryX=1;entryY=0.5;entryDx=0;entryDy=0;" parent="1" source="lxdEsuAKqhO_L1pSiuFA-756" target="4b1C1h9-l_e4xWgccLD7-83" edge="1">
          <mxGeometry relative="1" as="geometry" />
        </mxCell>
        <mxCell id="lxdEsuAKqhO_L1pSiuFA-776" style="edgeStyle=orthogonalEdgeStyle;rounded=0;orthogonalLoop=1;jettySize=auto;html=1;exitX=1;exitY=0.5;exitDx=0;exitDy=0;entryX=0.5;entryY=0;entryDx=0;entryDy=0;" parent="1" source="lxdEsuAKqhO_L1pSiuFA-756" target="4b1C1h9-l_e4xWgccLD7-57" edge="1">
          <mxGeometry relative="1" as="geometry">
            <Array as="points">
              <mxPoint x="405" y="710" />
            </Array>
          </mxGeometry>
        </mxCell>
        <mxCell id="lxdEsuAKqhO_L1pSiuFA-756" value="Voltar?" style="rhombus;whiteSpace=wrap;html=1;rounded=0;fillColor=#d5e8d4;strokeColor=#82b366;" parent="1" vertex="1">
          <mxGeometry x="310" y="670" width="80" height="80" as="geometry" />
        </mxCell>
        <mxCell id="lxdEsuAKqhO_L1pSiuFA-767" value="NÃO" style="edgeStyle=orthogonalEdgeStyle;rounded=0;orthogonalLoop=1;jettySize=auto;html=1;exitX=1;exitY=0.5;exitDx=0;exitDy=0;entryX=0;entryY=0.5;entryDx=0;entryDy=0;" parent="1" source="lxdEsuAKqhO_L1pSiuFA-765" target="4b1C1h9-l_e4xWgccLD7-26" edge="1">
          <mxGeometry relative="1" as="geometry" />
        </mxCell>
        <mxCell id="lxdEsuAKqhO_L1pSiuFA-765" value="Voltar?" style="rhombus;whiteSpace=wrap;html=1;rounded=0;fillColor=#d5e8d4;strokeColor=#82b366;" parent="1" vertex="1">
          <mxGeometry x="430" y="860" width="80" height="80" as="geometry" />
        </mxCell>
        <mxCell id="lxdEsuAKqhO_L1pSiuFA-770" value="NÃO" style="edgeStyle=orthogonalEdgeStyle;rounded=0;orthogonalLoop=1;jettySize=auto;html=1;exitX=1;exitY=0.5;exitDx=0;exitDy=0;entryX=0;entryY=0.5;entryDx=0;entryDy=0;" parent="1" source="lxdEsuAKqhO_L1pSiuFA-768" target="4b1C1h9-l_e4xWgccLD7-47" edge="1">
          <mxGeometry relative="1" as="geometry" />
        </mxCell>
        <mxCell id="lxdEsuAKqhO_L1pSiuFA-774" value="SIM" style="edgeStyle=orthogonalEdgeStyle;rounded=0;orthogonalLoop=1;jettySize=auto;html=1;exitX=0;exitY=0.5;exitDx=0;exitDy=0;entryX=0.5;entryY=0;entryDx=0;entryDy=0;" parent="1" source="lxdEsuAKqhO_L1pSiuFA-768" target="4b1C1h9-l_e4xWgccLD7-57" edge="1">
          <mxGeometry x="-0.8413" relative="1" as="geometry">
            <mxPoint as="offset" />
          </mxGeometry>
        </mxCell>
        <mxCell id="lxdEsuAKqhO_L1pSiuFA-768" value="Voltar?" style="rhombus;whiteSpace=wrap;html=1;rounded=0;fillColor=#d5e8d4;strokeColor=#82b366;" parent="1" vertex="1">
          <mxGeometry x="430" y="1040" width="80" height="80" as="geometry" />
        </mxCell>
        <mxCell id="lxdEsuAKqhO_L1pSiuFA-784" value="NÃO" style="edgeStyle=orthogonalEdgeStyle;rounded=0;orthogonalLoop=1;jettySize=auto;html=1;exitX=0.5;exitY=1;exitDx=0;exitDy=0;entryX=0.5;entryY=0;entryDx=0;entryDy=0;" parent="1" source="lxdEsuAKqhO_L1pSiuFA-780" target="hFd_SY-1JBbWM3t-39ka-182" edge="1">
          <mxGeometry relative="1" as="geometry" />
        </mxCell>
        <mxCell id="lxdEsuAKqhO_L1pSiuFA-809" value="SIM" style="edgeStyle=orthogonalEdgeStyle;rounded=0;orthogonalLoop=1;jettySize=auto;html=1;exitX=0;exitY=0.5;exitDx=0;exitDy=0;entryX=0;entryY=0.5;entryDx=0;entryDy=0;" parent="1" source="lxdEsuAKqhO_L1pSiuFA-780" target="hFd_SY-1JBbWM3t-39ka-183" edge="1">
          <mxGeometry relative="1" as="geometry">
            <Array as="points">
              <mxPoint x="-650" y="2222" />
              <mxPoint x="-650" y="2462" />
            </Array>
          </mxGeometry>
        </mxCell>
        <mxCell id="lxdEsuAKqhO_L1pSiuFA-780" value="Voltar?" style="rhombus;whiteSpace=wrap;html=1;rounded=0;fillColor=#d5e8d4;strokeColor=#82b366;" parent="1" vertex="1">
          <mxGeometry x="-615" y="2182.5" width="80" height="80" as="geometry" />
        </mxCell>
        <mxCell id="lxdEsuAKqhO_L1pSiuFA-788" value="NÃO" style="edgeStyle=orthogonalEdgeStyle;rounded=0;orthogonalLoop=1;jettySize=auto;html=1;exitX=1;exitY=0.5;exitDx=0;exitDy=0;entryX=0;entryY=0.5;entryDx=0;entryDy=0;" parent="1" source="lxdEsuAKqhO_L1pSiuFA-785" target="hFd_SY-1JBbWM3t-39ka-122" edge="1">
          <mxGeometry x="-0.0197" relative="1" as="geometry">
            <mxPoint as="offset" />
          </mxGeometry>
        </mxCell>
        <mxCell id="lxdEsuAKqhO_L1pSiuFA-792" value="SIM" style="edgeStyle=orthogonalEdgeStyle;rounded=0;orthogonalLoop=1;jettySize=auto;html=1;exitX=0.5;exitY=1;exitDx=0;exitDy=0;entryX=0;entryY=0.5;entryDx=0;entryDy=0;" parent="1" source="lxdEsuAKqhO_L1pSiuFA-785" target="hFd_SY-1JBbWM3t-39ka-125" edge="1">
          <mxGeometry relative="1" as="geometry" />
        </mxCell>
        <mxCell id="lxdEsuAKqhO_L1pSiuFA-785" value="Voltar?" style="rhombus;whiteSpace=wrap;html=1;rounded=0;fillColor=#d5e8d4;strokeColor=#82b366;" parent="1" vertex="1">
          <mxGeometry x="-2760" y="2415.79" width="80" height="80" as="geometry" />
        </mxCell>
        <mxCell id="lxdEsuAKqhO_L1pSiuFA-790" value="NÃO" style="edgeStyle=orthogonalEdgeStyle;rounded=0;orthogonalLoop=1;jettySize=auto;html=1;exitX=0;exitY=0.5;exitDx=0;exitDy=0;entryX=1;entryY=0.5;entryDx=0;entryDy=0;" parent="1" source="lxdEsuAKqhO_L1pSiuFA-786" target="hFd_SY-1JBbWM3t-39ka-122" edge="1">
          <mxGeometry relative="1" as="geometry" />
        </mxCell>
        <mxCell id="lxdEsuAKqhO_L1pSiuFA-791" value="SIM" style="edgeStyle=orthogonalEdgeStyle;rounded=0;orthogonalLoop=1;jettySize=auto;html=1;exitX=0.5;exitY=1;exitDx=0;exitDy=0;entryX=1;entryY=0.5;entryDx=0;entryDy=0;" parent="1" source="lxdEsuAKqhO_L1pSiuFA-786" target="hFd_SY-1JBbWM3t-39ka-125" edge="1">
          <mxGeometry relative="1" as="geometry" />
        </mxCell>
        <mxCell id="lxdEsuAKqhO_L1pSiuFA-786" value="Voltar?" style="rhombus;whiteSpace=wrap;html=1;rounded=0;fillColor=#d5e8d4;strokeColor=#82b366;" parent="1" vertex="1">
          <mxGeometry x="-2480" y="2415" width="80" height="80" as="geometry" />
        </mxCell>
        <mxCell id="lxdEsuAKqhO_L1pSiuFA-796" value="NÃO" style="edgeStyle=orthogonalEdgeStyle;rounded=0;orthogonalLoop=1;jettySize=auto;html=1;entryX=0.5;entryY=0;entryDx=0;entryDy=0;exitX=0.5;exitY=1;exitDx=0;exitDy=0;" parent="1" source="lxdEsuAKqhO_L1pSiuFA-794" target="hFd_SY-1JBbWM3t-39ka-157" edge="1">
          <mxGeometry relative="1" as="geometry">
            <mxPoint x="-1570" y="2220" as="sourcePoint" />
          </mxGeometry>
        </mxCell>
        <mxCell id="lxdEsuAKqhO_L1pSiuFA-808" style="edgeStyle=orthogonalEdgeStyle;rounded=1;orthogonalLoop=1;jettySize=auto;html=1;exitX=0;exitY=0.5;exitDx=0;exitDy=0;entryX=0;entryY=0.5;entryDx=0;entryDy=0;curved=0;" parent="1" source="lxdEsuAKqhO_L1pSiuFA-794" target="hFd_SY-1JBbWM3t-39ka-162" edge="1">
          <mxGeometry relative="1" as="geometry">
            <Array as="points">
              <mxPoint x="-1650" y="2180" />
              <mxPoint x="-1650" y="2880" />
            </Array>
          </mxGeometry>
        </mxCell>
        <mxCell id="lxdEsuAKqhO_L1pSiuFA-794" value="Voltar?" style="rhombus;whiteSpace=wrap;html=1;rounded=0;fillColor=#d5e8d4;strokeColor=#82b366;" parent="1" vertex="1">
          <mxGeometry x="-1615" y="2140" width="80" height="80" as="geometry" />
        </mxCell>
        <mxCell id="lxdEsuAKqhO_L1pSiuFA-800" value="NÃO" style="edgeStyle=orthogonalEdgeStyle;rounded=0;orthogonalLoop=1;jettySize=auto;html=1;exitX=0.5;exitY=1;exitDx=0;exitDy=0;entryX=0.5;entryY=0;entryDx=0;entryDy=0;" parent="1" source="lxdEsuAKqhO_L1pSiuFA-798" target="hFd_SY-1JBbWM3t-39ka-161" edge="1">
          <mxGeometry relative="1" as="geometry" />
        </mxCell>
        <mxCell id="lxdEsuAKqhO_L1pSiuFA-802" value="SIM" style="edgeStyle=orthogonalEdgeStyle;rounded=1;orthogonalLoop=1;jettySize=auto;html=1;exitX=0;exitY=0.5;exitDx=0;exitDy=0;entryX=0;entryY=0.5;entryDx=0;entryDy=0;curved=0;" parent="1" source="lxdEsuAKqhO_L1pSiuFA-798" target="hFd_SY-1JBbWM3t-39ka-162" edge="1">
          <mxGeometry relative="1" as="geometry">
            <Array as="points">
              <mxPoint x="-1650" y="2483" />
              <mxPoint x="-1650" y="2880" />
            </Array>
          </mxGeometry>
        </mxCell>
        <mxCell id="lxdEsuAKqhO_L1pSiuFA-798" value="Voltar?" style="rhombus;whiteSpace=wrap;html=1;rounded=0;fillColor=#d5e8d4;strokeColor=#82b366;" parent="1" vertex="1">
          <mxGeometry x="-1615" y="2442.5" width="80" height="80" as="geometry" />
        </mxCell>
        <mxCell id="lxdEsuAKqhO_L1pSiuFA-805" value="NÃO" style="edgeStyle=orthogonalEdgeStyle;rounded=0;orthogonalLoop=1;jettySize=auto;html=1;exitX=0.5;exitY=1;exitDx=0;exitDy=0;entryX=0.5;entryY=0;entryDx=0;entryDy=0;" parent="1" source="lxdEsuAKqhO_L1pSiuFA-803" target="hFd_SY-1JBbWM3t-39ka-164" edge="1">
          <mxGeometry relative="1" as="geometry" />
        </mxCell>
        <mxCell id="lxdEsuAKqhO_L1pSiuFA-803" value="Voltar?" style="rhombus;whiteSpace=wrap;html=1;rounded=0;fillColor=#d5e8d4;strokeColor=#82b366;" parent="1" vertex="1">
          <mxGeometry x="-1615" y="2647.5" width="80" height="80" as="geometry" />
        </mxCell>
        <mxCell id="ymlQFacwL70FxSIYHLWP-33" value="&lt;font style=&quot;font-size: 200px;&quot;&gt;DIAGRAMAS&lt;/font&gt;" style="text;html=1;align=center;verticalAlign=middle;whiteSpace=wrap;rounded=0;flipH=0;flipV=1;labelPosition=center;verticalLabelPosition=middle;" parent="1" vertex="1">
          <mxGeometry x="-875" y="-360" width="1205" height="160" as="geometry" />
        </mxCell>
        <mxCell id="ymlQFacwL70FxSIYHLWP-34" style="edgeStyle=orthogonalEdgeStyle;rounded=0;orthogonalLoop=1;jettySize=auto;html=1;exitX=0.5;exitY=1;exitDx=0;exitDy=0;" parent="1" source="ymlQFacwL70FxSIYHLWP-33" target="ymlQFacwL70FxSIYHLWP-33" edge="1">
          <mxGeometry relative="1" as="geometry" />
        </mxCell>
        <mxCell id="Mks9S6579AZ91gbMzlR7-1" value="Pegar camisetas no estoque" style="rounded=1;whiteSpace=wrap;html=1;fillColor=#dae8fc;strokeColor=#6c8ebf;" parent="1" vertex="1">
          <mxGeometry x="-2775" y="3842.49" width="120" height="60" as="geometry" />
        </mxCell>
        <mxCell id="Mks9S6579AZ91gbMzlR7-12" value="SIM" style="edgeStyle=orthogonalEdgeStyle;rounded=0;orthogonalLoop=1;jettySize=auto;html=1;exitX=0;exitY=0.5;exitDx=0;exitDy=0;entryX=1;entryY=0.5;entryDx=0;entryDy=0;" parent="1" source="Mks9S6579AZ91gbMzlR7-2" target="Mks9S6579AZ91gbMzlR7-1" edge="1">
          <mxGeometry x="-0.1111" relative="1" as="geometry">
            <mxPoint as="offset" />
          </mxGeometry>
        </mxCell>
        <mxCell id="Mks9S6579AZ91gbMzlR7-2" value="Tem camisa no estoque?" style="rhombus;whiteSpace=wrap;html=1;rounded=0;fillColor=#d5e8d4;strokeColor=#82b366;" parent="1" vertex="1">
          <mxGeometry x="-2610" y="3832.49" width="80" height="80" as="geometry" />
        </mxCell>
        <mxCell id="Mks9S6579AZ91gbMzlR7-3" value="Embalar camisetas" style="rounded=1;whiteSpace=wrap;html=1;fillColor=#dae8fc;strokeColor=#6c8ebf;" parent="1" vertex="1">
          <mxGeometry x="-2774.6" y="4063.74" width="120" height="60" as="geometry" />
        </mxCell>
        <mxCell id="Mks9S6579AZ91gbMzlR7-4" value="Procurar embalagem" style="rounded=1;whiteSpace=wrap;html=1;fillColor=#fff2cc;strokeColor=#d6b656;" parent="1" vertex="1">
          <mxGeometry x="-2615" y="3950" width="120" height="60" as="geometry" />
        </mxCell>
        <mxCell id="Mks9S6579AZ91gbMzlR7-10" style="edgeStyle=orthogonalEdgeStyle;rounded=0;orthogonalLoop=1;jettySize=auto;html=1;exitX=-0.003;exitY=0.831;exitDx=0;exitDy=0;entryX=1;entryY=1;entryDx=0;entryDy=0;exitPerimeter=0;" parent="1" source="Mks9S6579AZ91gbMzlR7-5" target="Mks9S6579AZ91gbMzlR7-2" edge="1">
          <mxGeometry relative="1" as="geometry" />
        </mxCell>
        <mxCell id="Mks9S6579AZ91gbMzlR7-5" value="Produzir camisetas" style="rounded=1;whiteSpace=wrap;html=1;fillColor=#fff2cc;strokeColor=#d6b656;" parent="1" vertex="1">
          <mxGeometry x="-2472.5" y="3842.49" width="120" height="60" as="geometry" />
        </mxCell>
        <mxCell id="Mks9S6579AZ91gbMzlR7-9" style="edgeStyle=orthogonalEdgeStyle;rounded=0;orthogonalLoop=1;jettySize=auto;html=1;exitX=1;exitY=0;exitDx=0;exitDy=0;entryX=0.011;entryY=0.172;entryDx=0;entryDy=0;entryPerimeter=0;" parent="1" source="Mks9S6579AZ91gbMzlR7-2" target="Mks9S6579AZ91gbMzlR7-5" edge="1">
          <mxGeometry relative="1" as="geometry" />
        </mxCell>
        <mxCell id="Mks9S6579AZ91gbMzlR7-11" value="NÃO" style="edgeLabel;html=1;align=center;verticalAlign=middle;resizable=0;points=[];" parent="Mks9S6579AZ91gbMzlR7-9" vertex="1" connectable="0">
          <mxGeometry x="-0.0041" relative="1" as="geometry">
            <mxPoint as="offset" />
          </mxGeometry>
        </mxCell>
        <mxCell id="Mks9S6579AZ91gbMzlR7-17" value="NÃO" style="edgeStyle=orthogonalEdgeStyle;rounded=0;orthogonalLoop=1;jettySize=auto;html=1;exitX=0.851;exitY=0.335;exitDx=0;exitDy=0;entryX=0;entryY=0.25;entryDx=0;entryDy=0;exitPerimeter=0;" parent="1" source="hFd_SY-1JBbWM3t-39ka-250" target="Mks9S6579AZ91gbMzlR7-4" edge="1">
          <mxGeometry relative="1" as="geometry" />
        </mxCell>
        <mxCell id="Mks9S6579AZ91gbMzlR7-19" style="edgeStyle=orthogonalEdgeStyle;rounded=0;orthogonalLoop=1;jettySize=auto;html=1;exitX=0;exitY=0.75;exitDx=0;exitDy=0;entryX=0.836;entryY=0.672;entryDx=0;entryDy=0;entryPerimeter=0;" parent="1" source="Mks9S6579AZ91gbMzlR7-4" target="hFd_SY-1JBbWM3t-39ka-250" edge="1">
          <mxGeometry relative="1" as="geometry" />
        </mxCell>
        <mxCell id="Mks9S6579AZ91gbMzlR7-20" value="Cliente pediu o produto" style="rhombus;whiteSpace=wrap;html=1;rounded=0;fillColor=#d5e8d4;strokeColor=#82b366;" parent="1" vertex="1">
          <mxGeometry x="-1605" y="3710" width="80" height="80" as="geometry" />
        </mxCell>
        <mxCell id="Mks9S6579AZ91gbMzlR7-23" value="Cliente pede o produto na loja" style="rhombus;whiteSpace=wrap;html=1;rounded=0;fillColor=#d5e8d4;strokeColor=#82b366;" parent="1" vertex="1">
          <mxGeometry x="-610" y="3724.99" width="100" height="105.01" as="geometry" />
        </mxCell>
        <mxCell id="Mks9S6579AZ91gbMzlR7-43" style="edgeStyle=orthogonalEdgeStyle;rounded=0;orthogonalLoop=1;jettySize=auto;html=1;exitX=0.5;exitY=1;exitDx=0;exitDy=0;entryX=0.5;entryY=0;entryDx=0;entryDy=0;" parent="1" source="Mks9S6579AZ91gbMzlR7-25" target="Mks9S6579AZ91gbMzlR7-29" edge="1">
          <mxGeometry relative="1" as="geometry" />
        </mxCell>
        <mxCell id="Mks9S6579AZ91gbMzlR7-25" value="Recebimento do pedido" style="whiteSpace=wrap;html=1;fillColor=#dae8fc;strokeColor=#6c8ebf;shadow=0;rounded=1;" parent="1" vertex="1">
          <mxGeometry x="-1666.87" y="5165" width="120" height="60" as="geometry" />
        </mxCell>
        <mxCell id="Mks9S6579AZ91gbMzlR7-46" style="edgeStyle=orthogonalEdgeStyle;rounded=0;orthogonalLoop=1;jettySize=auto;html=1;exitX=1;exitY=0.5;exitDx=0;exitDy=0;entryX=0;entryY=0.5;entryDx=0;entryDy=0;" parent="1" source="Mks9S6579AZ91gbMzlR7-26" target="Mks9S6579AZ91gbMzlR7-39" edge="1">
          <mxGeometry relative="1" as="geometry" />
        </mxCell>
        <mxCell id="Mks9S6579AZ91gbMzlR7-47" style="edgeStyle=orthogonalEdgeStyle;rounded=0;orthogonalLoop=1;jettySize=auto;html=1;exitX=0;exitY=0.5;exitDx=0;exitDy=0;entryX=1;entryY=0.5;entryDx=0;entryDy=0;" parent="1" source="Mks9S6579AZ91gbMzlR7-26" target="Mks9S6579AZ91gbMzlR7-40" edge="1">
          <mxGeometry relative="1" as="geometry" />
        </mxCell>
        <mxCell id="Mks9S6579AZ91gbMzlR7-26" value="Estamparia ou bordado" style="rhombus;whiteSpace=wrap;html=1;rounded=0;fillColor=#d5e8d4;strokeColor=#82b366;" parent="1" vertex="1">
          <mxGeometry x="-1500" y="5430" width="80" height="80" as="geometry" />
        </mxCell>
        <mxCell id="Mks9S6579AZ91gbMzlR7-42" style="edgeStyle=orthogonalEdgeStyle;rounded=0;orthogonalLoop=1;jettySize=auto;html=1;exitX=0.5;exitY=1;exitDx=0;exitDy=0;entryX=0.5;entryY=0;entryDx=0;entryDy=0;" parent="1" source="Mks9S6579AZ91gbMzlR7-27" target="Mks9S6579AZ91gbMzlR7-25" edge="1">
          <mxGeometry relative="1" as="geometry" />
        </mxCell>
        <mxCell id="Mks9S6579AZ91gbMzlR7-27" value="INÍICO" style="ellipse;whiteSpace=wrap;html=1;fillColor=#f8cecc;strokeColor=#b85450;shadow=0;" parent="1" vertex="1">
          <mxGeometry x="-1666.87" y="5060" width="120" height="80" as="geometry" />
        </mxCell>
        <mxCell id="Mks9S6579AZ91gbMzlR7-44" style="edgeStyle=orthogonalEdgeStyle;rounded=0;orthogonalLoop=1;jettySize=auto;html=1;exitX=0.5;exitY=1;exitDx=0;exitDy=0;entryX=0.5;entryY=0;entryDx=0;entryDy=0;" parent="1" source="Mks9S6579AZ91gbMzlR7-29" target="Mks9S6579AZ91gbMzlR7-30" edge="1">
          <mxGeometry relative="1" as="geometry" />
        </mxCell>
        <mxCell id="Mks9S6579AZ91gbMzlR7-29" value="Planejamento de produção" style="whiteSpace=wrap;html=1;fillColor=#dae8fc;strokeColor=#6c8ebf;shadow=0;rounded=1;" parent="1" vertex="1">
          <mxGeometry x="-1666.87" y="5245" width="120" height="60" as="geometry" />
        </mxCell>
        <mxCell id="Mks9S6579AZ91gbMzlR7-37" value="SIM" style="edgeStyle=orthogonalEdgeStyle;rounded=0;orthogonalLoop=1;jettySize=auto;html=1;exitX=1;exitY=0.5;exitDx=0;exitDy=0;entryX=0;entryY=0.5;entryDx=0;entryDy=0;" parent="1" source="Mks9S6579AZ91gbMzlR7-30" target="Mks9S6579AZ91gbMzlR7-32" edge="1">
          <mxGeometry x="0.0447" relative="1" as="geometry">
            <mxPoint as="offset" />
          </mxGeometry>
        </mxCell>
        <mxCell id="Mks9S6579AZ91gbMzlR7-38" value="NÃO" style="edgeStyle=orthogonalEdgeStyle;rounded=0;orthogonalLoop=1;jettySize=auto;html=1;exitX=0;exitY=0.5;exitDx=0;exitDy=0;entryX=1;entryY=0.5;entryDx=0;entryDy=0;" parent="1" source="Mks9S6579AZ91gbMzlR7-30" target="Mks9S6579AZ91gbMzlR7-31" edge="1">
          <mxGeometry x="-0.291" relative="1" as="geometry">
            <mxPoint as="offset" />
          </mxGeometry>
        </mxCell>
        <mxCell id="Mks9S6579AZ91gbMzlR7-30" value="Chegada da matéria prima" style="rhombus;whiteSpace=wrap;html=1;rounded=0;fillColor=#d5e8d4;strokeColor=#82b366;" parent="1" vertex="1">
          <mxGeometry x="-1651.87" y="5330" width="90" height="90" as="geometry" />
        </mxCell>
        <mxCell id="Mks9S6579AZ91gbMzlR7-41" style="edgeStyle=orthogonalEdgeStyle;rounded=1;orthogonalLoop=1;jettySize=auto;html=1;exitX=0.5;exitY=0;exitDx=0;exitDy=0;entryX=0;entryY=0.5;entryDx=0;entryDy=0;curved=0;" parent="1" source="Mks9S6579AZ91gbMzlR7-31" target="Mks9S6579AZ91gbMzlR7-29" edge="1">
          <mxGeometry relative="1" as="geometry" />
        </mxCell>
        <mxCell id="Mks9S6579AZ91gbMzlR7-31" value="Aguarde a matéria prima" style="rounded=1;whiteSpace=wrap;html=1;fillColor=#fff2cc;strokeColor=#d6b656;" parent="1" vertex="1">
          <mxGeometry x="-1823.01" y="5345" width="120" height="60" as="geometry" />
        </mxCell>
        <mxCell id="Mks9S6579AZ91gbMzlR7-45" style="edgeStyle=orthogonalEdgeStyle;rounded=0;orthogonalLoop=1;jettySize=auto;html=1;exitX=0.5;exitY=1;exitDx=0;exitDy=0;entryX=0.5;entryY=0;entryDx=0;entryDy=0;" parent="1" source="Mks9S6579AZ91gbMzlR7-32" target="Mks9S6579AZ91gbMzlR7-26" edge="1">
          <mxGeometry relative="1" as="geometry" />
        </mxCell>
        <mxCell id="Mks9S6579AZ91gbMzlR7-32" value="Corte de tecido" style="whiteSpace=wrap;html=1;fillColor=#dae8fc;strokeColor=#6c8ebf;shadow=0;rounded=1;" parent="1" vertex="1">
          <mxGeometry x="-1520" y="5345" width="120" height="60" as="geometry" />
        </mxCell>
        <mxCell id="Mks9S6579AZ91gbMzlR7-56" style="edgeStyle=orthogonalEdgeStyle;rounded=1;orthogonalLoop=1;jettySize=auto;html=1;exitX=0.5;exitY=1;exitDx=0;exitDy=0;entryX=1;entryY=0.5;entryDx=0;entryDy=0;curved=0;" parent="1" source="Mks9S6579AZ91gbMzlR7-39" target="Mks9S6579AZ91gbMzlR7-49" edge="1">
          <mxGeometry relative="1" as="geometry" />
        </mxCell>
        <mxCell id="Mks9S6579AZ91gbMzlR7-39" value="Costura" style="rounded=1;whiteSpace=wrap;html=1;fillColor=#fff2cc;strokeColor=#d6b656;" parent="1" vertex="1">
          <mxGeometry x="-1390" y="5440" width="120" height="60" as="geometry" />
        </mxCell>
        <mxCell id="Mks9S6579AZ91gbMzlR7-51" style="edgeStyle=orthogonalEdgeStyle;rounded=0;orthogonalLoop=1;jettySize=auto;html=1;exitX=0.5;exitY=1;exitDx=0;exitDy=0;" parent="1" source="Mks9S6579AZ91gbMzlR7-40" target="Mks9S6579AZ91gbMzlR7-48" edge="1">
          <mxGeometry relative="1" as="geometry" />
        </mxCell>
        <mxCell id="Mks9S6579AZ91gbMzlR7-40" value="Estamparia ou bordado" style="whiteSpace=wrap;html=1;fillColor=#dae8fc;strokeColor=#6c8ebf;shadow=0;rounded=1;" parent="1" vertex="1">
          <mxGeometry x="-1664.9999999999998" y="5440" width="120" height="60" as="geometry" />
        </mxCell>
        <mxCell id="Mks9S6579AZ91gbMzlR7-52" style="edgeStyle=orthogonalEdgeStyle;rounded=0;orthogonalLoop=1;jettySize=auto;html=1;exitX=0.5;exitY=1;exitDx=0;exitDy=0;entryX=0.5;entryY=0;entryDx=0;entryDy=0;" parent="1" source="Mks9S6579AZ91gbMzlR7-48" target="Mks9S6579AZ91gbMzlR7-49" edge="1">
          <mxGeometry relative="1" as="geometry" />
        </mxCell>
        <mxCell id="Mks9S6579AZ91gbMzlR7-48" value="Costura" style="whiteSpace=wrap;html=1;fillColor=#dae8fc;strokeColor=#6c8ebf;shadow=0;rounded=1;" parent="1" vertex="1">
          <mxGeometry x="-1664.9999999999995" y="5525" width="120" height="60" as="geometry" />
        </mxCell>
        <mxCell id="Mks9S6579AZ91gbMzlR7-53" style="edgeStyle=orthogonalEdgeStyle;rounded=0;orthogonalLoop=1;jettySize=auto;html=1;exitX=0.5;exitY=1;exitDx=0;exitDy=0;entryX=0.5;entryY=0;entryDx=0;entryDy=0;" parent="1" source="Mks9S6579AZ91gbMzlR7-49" target="Mks9S6579AZ91gbMzlR7-50" edge="1">
          <mxGeometry relative="1" as="geometry" />
        </mxCell>
        <mxCell id="Mks9S6579AZ91gbMzlR7-49" value="Acabamento" style="whiteSpace=wrap;html=1;fillColor=#dae8fc;strokeColor=#6c8ebf;shadow=0;rounded=1;" parent="1" vertex="1">
          <mxGeometry x="-1664.9999999999995" y="5615" width="120" height="60" as="geometry" />
        </mxCell>
        <mxCell id="Mks9S6579AZ91gbMzlR7-57" style="edgeStyle=orthogonalEdgeStyle;rounded=0;orthogonalLoop=1;jettySize=auto;html=1;exitX=0.5;exitY=1;exitDx=0;exitDy=0;entryX=0.5;entryY=0;entryDx=0;entryDy=0;" parent="1" source="Mks9S6579AZ91gbMzlR7-50" target="Mks9S6579AZ91gbMzlR7-54" edge="1">
          <mxGeometry relative="1" as="geometry" />
        </mxCell>
        <mxCell id="Mks9S6579AZ91gbMzlR7-50" value="Embalagem" style="whiteSpace=wrap;html=1;fillColor=#dae8fc;strokeColor=#6c8ebf;shadow=0;rounded=1;" parent="1" vertex="1">
          <mxGeometry x="-1664.9999999999995" y="5700" width="120" height="60" as="geometry" />
        </mxCell>
        <mxCell id="Mks9S6579AZ91gbMzlR7-58" style="edgeStyle=orthogonalEdgeStyle;rounded=0;orthogonalLoop=1;jettySize=auto;html=1;exitX=0.5;exitY=1;exitDx=0;exitDy=0;entryX=0.5;entryY=0;entryDx=0;entryDy=0;" parent="1" source="Mks9S6579AZ91gbMzlR7-54" target="Mks9S6579AZ91gbMzlR7-55" edge="1">
          <mxGeometry relative="1" as="geometry" />
        </mxCell>
        <mxCell id="Mks9S6579AZ91gbMzlR7-54" value="Envio ou distribuição" style="whiteSpace=wrap;html=1;fillColor=#dae8fc;strokeColor=#6c8ebf;shadow=0;rounded=1;" parent="1" vertex="1">
          <mxGeometry x="-1664.9999999999995" y="5780" width="120" height="60" as="geometry" />
        </mxCell>
        <mxCell id="Mks9S6579AZ91gbMzlR7-55" value="FIM" style="ellipse;whiteSpace=wrap;html=1;fillColor=#f8cecc;strokeColor=#b85450;shadow=0;" parent="1" vertex="1">
          <mxGeometry x="-1665" y="5860" width="120" height="80" as="geometry" />
        </mxCell>
        <mxCell id="Mks9S6579AZ91gbMzlR7-69" value="&lt;font style=&quot;font-size: 40px;&quot;&gt;Dia 06/06&lt;/font&gt;" style="text;html=1;align=center;verticalAlign=middle;whiteSpace=wrap;rounded=0;" parent="1" vertex="1">
          <mxGeometry x="-4900" y="1360" width="260" height="110" as="geometry" />
        </mxCell>
        <mxCell id="Mks9S6579AZ91gbMzlR7-70" value="&lt;div style=&quot;font-size: 26px;&quot;&gt;&lt;font style=&quot;font-size: 26px;&quot;&gt;Fluxograma&amp;nbsp;&lt;br&gt;&lt;/font&gt;&lt;/div&gt;&lt;div style=&quot;font-size: 26px;&quot;&gt;&lt;font style=&quot;font-size: 26px;&quot;&gt;&lt;br&gt;&lt;/font&gt;&lt;/div&gt;&lt;font style=&quot;font-size: 26px;&quot;&gt;Erick -&amp;nbsp;&lt;/font&gt;&lt;span style=&quot;font-size: 26px;&quot;&gt;Fazendo telas&lt;/span&gt;&lt;div&gt;&lt;span style=&quot;font-size: 26px; background-color: initial;&quot;&gt;Lucas -&amp;nbsp;&lt;/span&gt;&lt;span style=&quot;font-size: 26px;&quot;&gt;Fazendo telas&lt;/span&gt;&lt;div style=&quot;font-size: 26px;&quot;&gt;&lt;font style=&quot;font-size: 26px;&quot;&gt;Caio - Fazendo telas&lt;/font&gt;&lt;/div&gt;&lt;div style=&quot;font-size: 26px;&quot;&gt;&lt;font style=&quot;font-size: 26px;&quot;&gt;Júlia -&amp;nbsp;&lt;/font&gt;&lt;span style=&quot;background-color: initial;&quot;&gt;Faltou&lt;/span&gt;&lt;/div&gt;&lt;div style=&quot;font-size: 26px;&quot;&gt;&lt;font style=&quot;font-size: 26px;&quot;&gt;Maria Luiza - Faltou&lt;/font&gt;&lt;/div&gt;&lt;/div&gt;" style="text;html=1;align=left;verticalAlign=middle;whiteSpace=wrap;rounded=0;" parent="1" vertex="1">
          <mxGeometry x="-4807" y="1470" width="790" height="240" as="geometry" />
        </mxCell>
      </root>
    </mxGraphModel>
  </diagram>
</mxfile>
